<?xml version="1.0" encoding="utf-8" standalone="no"?>
<!DOCTYPE svg PUBLIC "-//W3C//DTD SVG 1.1//EN"
  "http://www.w3.org/Graphics/SVG/1.1/DTD/svg11.dtd">
<svg xmlns:xlink="http://www.w3.org/1999/xlink" width="720pt" height="720pt" viewBox="0 0 720 720" xmlns="http://www.w3.org/2000/svg" version="1.1">
 <metadata>
  <rdf:RDF xmlns:dc="http://purl.org/dc/elements/1.1/" xmlns:cc="http://creativecommons.org/ns#" xmlns:rdf="http://www.w3.org/1999/02/22-rdf-syntax-ns#">
   <cc:Work>
    <dc:type rdf:resource="http://purl.org/dc/dcmitype/StillImage"/>
    <dc:date>2022-11-01T14:57:19.013625</dc:date>
    <dc:format>image/svg+xml</dc:format>
    <dc:creator>
     <cc:Agent>
      <dc:title>Matplotlib v3.6.0, https://matplotlib.org/</dc:title>
     </cc:Agent>
    </dc:creator>
   </cc:Work>
  </rdf:RDF>
 </metadata>
 <defs>
  <style type="text/css">*{stroke-linejoin: round; stroke-linecap: butt}</style>
 </defs>
 <g id="figure_1">
  <g id="patch_1">
   <path d="M 0 720 
L 720 720 
L 720 0 
L 0 0 
z
" style="fill: #ffffff"/>
  </g>
  <g id="axes_1">
   <g id="patch_2">
    <path d="M 80.30907 646.272238 
L 696.24 646.272238 
L 696.24 23.76 
L 80.30907 23.76 
z
" style="fill: #ffffff"/>
   </g>
   <g id="PathCollection_1">
    <defs>
     <path id="C0_0_28e711b086" d="M 0 3 
C 0.795609 3 1.55874 2.683901 2.12132 2.12132 
C 2.683901 1.55874 3 0.795609 3 -0 
C 3 -0.795609 2.683901 -1.55874 2.12132 -2.12132 
C 1.55874 -2.683901 0.795609 -3 0 -3 
C -0.795609 -3 -1.55874 -2.683901 -2.12132 -2.12132 
C -2.683901 -1.55874 -3 -0.795609 -3 0 
C -3 0.795609 -2.683901 1.55874 -2.12132 2.12132 
C -1.55874 2.683901 -0.795609 3 0 3 
z
"/>
    </defs>
    <g clip-path="url(#pdc06a6cd24)">
     <use xlink:href="#C0_0_28e711b086" x="668.24314" y="617.976227" style="fill: #3b4cc0"/>
    </g>
    <g clip-path="url(#pdc06a6cd24)">
     <use xlink:href="#C0_0_28e711b086" x="667.900922" y="617.79943" style="fill: #3d50c3"/>
    </g>
    <g clip-path="url(#pdc06a6cd24)">
     <use xlink:href="#C0_0_28e711b086" x="667.52561" y="617.605429" style="fill: #4055c8"/>
    </g>
    <g clip-path="url(#pdc06a6cd24)">
     <use xlink:href="#C0_0_28e711b086" x="667.114032" y="617.392552" style="fill: #4358cb"/>
    </g>
    <g clip-path="url(#pdc06a6cd24)">
     <use xlink:href="#C0_0_28e711b086" x="666.66272" y="617.158968" style="fill: #465ecf"/>
    </g>
    <g clip-path="url(#pdc06a6cd24)">
     <use xlink:href="#C0_0_28e711b086" x="666.16788" y="616.902668" style="fill: #4a63d3"/>
    </g>
    <g clip-path="url(#pdc06a6cd24)">
     <use xlink:href="#C0_0_28e711b086" x="665.625364" y="616.62145" style="fill: #4c66d6"/>
    </g>
    <g clip-path="url(#pdc06a6cd24)">
     <use xlink:href="#C0_0_28e711b086" x="665.03064" y="616.312898" style="fill: #506bda"/>
    </g>
    <g clip-path="url(#pdc06a6cd24)">
     <use xlink:href="#C0_0_28e711b086" x="664.378759" y="615.974367" style="fill: #536edd"/>
    </g>
    <g clip-path="url(#pdc06a6cd24)">
     <use xlink:href="#C0_0_28e711b086" x="663.664314" y="615.602954" style="fill: #5673e0"/>
    </g>
    <g clip-path="url(#pdc06a6cd24)">
     <use xlink:href="#C0_0_28e711b086" x="662.88141" y="615.195482" style="fill: #5a78e4"/>
    </g>
    <g clip-path="url(#pdc06a6cd24)">
     <use xlink:href="#C0_0_28e711b086" x="662.023614" y="614.748468" style="fill: #5d7ce6"/>
    </g>
    <g clip-path="url(#pdc06a6cd24)">
     <use xlink:href="#C0_0_28e711b086" x="661.083918" y="614.258096" style="fill: #6180e9"/>
    </g>
    <g clip-path="url(#pdc06a6cd24)">
     <use xlink:href="#C0_0_28e711b086" x="660.054688" y="613.720187" style="fill: #6384eb"/>
    </g>
    <g clip-path="url(#pdc06a6cd24)">
     <use xlink:href="#C0_0_28e711b086" x="658.927618" y="613.130168" style="fill: #6788ee"/>
    </g>
    <g clip-path="url(#pdc06a6cd24)">
     <use xlink:href="#C0_0_28e711b086" x="657.693677" y="612.48303" style="fill: #6b8df0"/>
    </g>
    <g clip-path="url(#pdc06a6cd24)">
     <use xlink:href="#C0_0_28e711b086" x="656.343056" y="611.773293" style="fill: #6e90f2"/>
    </g>
    <g clip-path="url(#pdc06a6cd24)">
     <use xlink:href="#C0_0_28e711b086" x="654.865114" y="610.994966" style="fill: #7295f4"/>
    </g>
    <g clip-path="url(#pdc06a6cd24)">
     <use xlink:href="#C0_0_28e711b086" x="653.248316" y="610.141495" style="fill: #7699f6"/>
    </g>
    <g clip-path="url(#pdc06a6cd24)">
     <use xlink:href="#C0_0_28e711b086" x="651.480185" y="609.205719" style="fill: #799cf8"/>
    </g>
    <g clip-path="url(#pdc06a6cd24)">
     <use xlink:href="#C0_0_28e711b086" x="649.547234" y="608.179819" style="fill: #7da0f9"/>
    </g>
    <g clip-path="url(#pdc06a6cd24)">
     <use xlink:href="#C0_0_28e711b086" x="647.434916" y="607.055258" style="fill: #80a3fa"/>
    </g>
    <g clip-path="url(#pdc06a6cd24)">
     <use xlink:href="#C0_0_28e711b086" x="645.127569" y="605.822727" style="fill: #84a7fc"/>
    </g>
    <g clip-path="url(#pdc06a6cd24)">
     <use xlink:href="#C0_0_28e711b086" x="642.608367" y="604.472082" style="fill: #88abfd"/>
    </g>
    <g clip-path="url(#pdc06a6cd24)">
     <use xlink:href="#C0_0_28e711b086" x="639.859274" y="602.992278" style="fill: #8badfd"/>
    </g>
    <g clip-path="url(#pdc06a6cd24)">
     <use xlink:href="#C0_0_28e711b086" x="636.861011" y="601.371306" style="fill: #8fb1fe"/>
    </g>
    <g clip-path="url(#pdc06a6cd24)">
     <use xlink:href="#C0_0_28e711b086" x="633.593036" y="599.596124" style="fill: #92b4fe"/>
    </g>
    <g clip-path="url(#pdc06a6cd24)">
     <use xlink:href="#C0_0_28e711b086" x="630.033531" y="597.652592" style="fill: #96b7ff"/>
    </g>
    <g clip-path="url(#pdc06a6cd24)">
     <use xlink:href="#C0_0_28e711b086" x="626.159422" y="595.525401" style="fill: #9abbff"/>
    </g>
    <g clip-path="url(#pdc06a6cd24)">
     <use xlink:href="#C0_0_28e711b086" x="621.946412" y="593.198018" style="fill: #9dbdff"/>
    </g>
    <g clip-path="url(#pdc06a6cd24)">
     <use xlink:href="#C0_0_28e711b086" x="617.369052" y="590.652621" style="fill: #a1c0ff"/>
    </g>
    <g clip-path="url(#pdc06a6cd24)">
     <use xlink:href="#C0_0_28e711b086" x="612.40085" y="587.870061" style="fill: #a3c2fe"/>
    </g>
    <g clip-path="url(#pdc06a6cd24)">
     <use xlink:href="#C0_0_28e711b086" x="607.014422" y="584.829821" style="fill: #a7c5fe"/>
    </g>
    <g clip-path="url(#pdc06a6cd24)">
     <use xlink:href="#C0_0_28e711b086" x="601.181696" y="581.510006" style="fill: #abc8fd"/>
    </g>
    <g clip-path="url(#pdc06a6cd24)">
     <use xlink:href="#C0_0_28e711b086" x="594.874189" y="577.887348" style="fill: #aec9fc"/>
    </g>
    <g clip-path="url(#pdc06a6cd24)">
     <use xlink:href="#C0_0_28e711b086" x="588.063342" y="573.937252" style="fill: #b2ccfb"/>
    </g>
    <g clip-path="url(#pdc06a6cd24)">
     <use xlink:href="#C0_0_28e711b086" x="580.720949" y="569.633872" style="fill: #b6cefa"/>
    </g>
    <g clip-path="url(#pdc06a6cd24)">
     <use xlink:href="#C0_0_28e711b086" x="572.819673" y="564.950246" style="fill: #b9d0f9"/>
    </g>
    <g clip-path="url(#pdc06a6cd24)">
     <use xlink:href="#C0_0_28e711b086" x="564.333661" y="559.858485" style="fill: #bcd2f7"/>
    </g>
    <g clip-path="url(#pdc06a6cd24)">
     <use xlink:href="#C0_0_28e711b086" x="555.239263" y="554.330039" style="fill: #bfd3f6"/>
    </g>
    <g clip-path="url(#pdc06a6cd24)">
     <use xlink:href="#C0_0_28e711b086" x="545.515865" y="548.336046" style="fill: #c3d5f4"/>
    </g>
    <g clip-path="url(#pdc06a6cd24)">
     <use xlink:href="#C0_0_28e711b086" x="535.146822" y="541.847774" style="fill: #c6d6f1"/>
    </g>
    <g clip-path="url(#pdc06a6cd24)">
     <use xlink:href="#C0_0_28e711b086" x="524.120486" y="534.837174" style="fill: #c9d7f0"/>
    </g>
    <g clip-path="url(#pdc06a6cd24)">
     <use xlink:href="#C0_0_28e711b086" x="512.431321" y="527.277546" style="fill: #ccd9ed"/>
    </g>
    <g clip-path="url(#pdc06a6cd24)">
     <use xlink:href="#C0_0_28e711b086" x="500.081065" y="519.144323" style="fill: #cedaeb"/>
    </g>
    <g clip-path="url(#pdc06a6cd24)">
     <use xlink:href="#C0_0_28e711b086" x="487.079903" y="510.415972" style="fill: #d2dbe8"/>
    </g>
    <g clip-path="url(#pdc06a6cd24)">
     <use xlink:href="#C0_0_28e711b086" x="473.447602" y="501.075001" style="fill: #d5dbe5"/>
    </g>
    <g clip-path="url(#pdc06a6cd24)">
     <use xlink:href="#C0_0_28e711b086" x="459.214549" y="491.109048" style="fill: #d7dce3"/>
    </g>
    <g clip-path="url(#pdc06a6cd24)">
     <use xlink:href="#C0_0_28e711b086" x="444.422594" y="480.512023" style="fill: #dadce0"/>
    </g>
    <g clip-path="url(#pdc06a6cd24)">
     <use xlink:href="#C0_0_28e711b086" x="429.125642" y="469.285255" style="fill: #dddcdc"/>
    </g>
    <g clip-path="url(#pdc06a6cd24)">
     <use xlink:href="#C0_0_28e711b086" x="413.389879" y="457.438585" style="fill: #dfdbd9"/>
    </g>
    <g clip-path="url(#pdc06a6cd24)">
     <use xlink:href="#C0_0_28e711b086" x="397.29357" y="444.991325" style="fill: #e2dad5"/>
    </g>
    <g clip-path="url(#pdc06a6cd24)">
     <use xlink:href="#C0_0_28e711b086" x="380.926344" y="431.973024" style="fill: #e4d9d2"/>
    </g>
    <g clip-path="url(#pdc06a6cd24)">
     <use xlink:href="#C0_0_28e711b086" x="364.387922" y="418.423931" style="fill: #e7d7ce"/>
    </g>
    <g clip-path="url(#pdc06a6cd24)">
     <use xlink:href="#C0_0_28e711b086" x="347.786284" y="404.395106" style="fill: #ead5c9"/>
    </g>
    <g clip-path="url(#pdc06a6cd24)">
     <use xlink:href="#C0_0_28e711b086" x="331.235294" y="389.948097" style="fill: #ebd3c6"/>
    </g>
    <g clip-path="url(#pdc06a6cd24)">
     <use xlink:href="#C0_0_28e711b086" x="314.851869" y="375.154162" style="fill: #edd1c2"/>
    </g>
    <g clip-path="url(#pdc06a6cd24)">
     <use xlink:href="#C0_0_28e711b086" x="298.752807" y="360.093006" style="fill: #efcfbf"/>
    </g>
    <g clip-path="url(#pdc06a6cd24)">
     <use xlink:href="#C0_0_28e711b086" x="283.051455" y="344.851098" style="fill: #f1cdba"/>
    </g>
    <g clip-path="url(#pdc06a6cd24)">
     <use xlink:href="#C0_0_28e711b086" x="267.854392" y="329.519598" style="fill: #f2cab5"/>
    </g>
    <g clip-path="url(#pdc06a6cd24)">
     <use xlink:href="#C0_0_28e711b086" x="253.258345" y="314.192034" style="fill: #f3c8b2"/>
    </g>
    <g clip-path="url(#pdc06a6cd24)">
     <use xlink:href="#C0_0_28e711b086" x="239.347523" y="298.961827" style="fill: #f4c5ad"/>
    </g>
    <g clip-path="url(#pdc06a6cd24)">
     <use xlink:href="#C0_0_28e711b086" x="226.191529" y="283.919831" style="fill: #f5c2aa"/>
    </g>
    <g clip-path="url(#pdc06a6cd24)">
     <use xlink:href="#C0_0_28e711b086" x="213.843973" y="269.152023" style="fill: #f6bfa6"/>
    </g>
    <g clip-path="url(#pdc06a6cd24)">
     <use xlink:href="#C0_0_28e711b086" x="202.341828" y="254.737459" style="fill: #f7bca1"/>
    </g>
    <g clip-path="url(#pdc06a6cd24)">
     <use xlink:href="#C0_0_28e711b086" x="191.705531" y="240.746625" style="fill: #f7b99e"/>
    </g>
    <g clip-path="url(#pdc06a6cd24)">
     <use xlink:href="#C0_0_28e711b086" x="181.939764" y="227.240213" style="fill: #f7b599"/>
    </g>
    <g clip-path="url(#pdc06a6cd24)">
     <use xlink:href="#C0_0_28e711b086" x="173.034804" y="214.268384" style="fill: #f7b194"/>
    </g>
    <g clip-path="url(#pdc06a6cd24)">
     <use xlink:href="#C0_0_28e711b086" x="164.968305" y="201.870479" style="fill: #f7af91"/>
    </g>
    <g clip-path="url(#pdc06a6cd24)">
     <use xlink:href="#C0_0_28e711b086" x="157.707359" y="190.075167" style="fill: #f7aa8c"/>
    </g>
    <g clip-path="url(#pdc06a6cd24)">
     <use xlink:href="#C0_0_28e711b086" x="151.210683" y="178.900933" style="fill: #f7a889"/>
    </g>
    <g clip-path="url(#pdc06a6cd24)">
     <use xlink:href="#C0_0_28e711b086" x="145.430809" y="168.356866" style="fill: #f6a385"/>
    </g>
    <g clip-path="url(#pdc06a6cd24)">
     <use xlink:href="#C0_0_28e711b086" x="140.316151" y="158.44363" style="fill: #f59f80"/>
    </g>
    <g clip-path="url(#pdc06a6cd24)">
     <use xlink:href="#C0_0_28e711b086" x="135.812881" y="149.154564" style="fill: #f59c7d"/>
    </g>
    <g clip-path="url(#pdc06a6cd24)">
     <use xlink:href="#C0_0_28e711b086" x="131.866552" y="140.476834" style="fill: #f39778"/>
    </g>
    <g clip-path="url(#pdc06a6cd24)">
     <use xlink:href="#C0_0_28e711b086" x="128.423447" y="132.392567" style="fill: #f39475"/>
    </g>
    <g clip-path="url(#pdc06a6cd24)">
     <use xlink:href="#C0_0_28e711b086" x="125.431645" y="124.879939" style="fill: #f18f71"/>
    </g>
    <g clip-path="url(#pdc06a6cd24)">
     <use xlink:href="#C0_0_28e711b086" x="122.841827" y="117.914171" style="fill: #f08a6c"/>
    </g>
    <g clip-path="url(#pdc06a6cd24)">
     <use xlink:href="#C0_0_28e711b086" x="120.607832" y="111.468422" style="fill: #ee8669"/>
    </g>
    <g clip-path="url(#pdc06a6cd24)">
     <use xlink:href="#C0_0_28e711b086" x="118.687002" y="105.514561" style="fill: #ec8165"/>
    </g>
    <g clip-path="url(#pdc06a6cd24)">
     <use xlink:href="#C0_0_28e711b086" x="117.040363" y="100.023826" style="fill: #eb7d62"/>
    </g>
    <g clip-path="url(#pdc06a6cd24)">
     <use xlink:href="#C0_0_28e711b086" x="115.632648" y="94.967366" style="fill: #e9785d"/>
    </g>
    <g clip-path="url(#pdc06a6cd24)">
     <use xlink:href="#C0_0_28e711b086" x="114.432226" y="90.316673" style="fill: #e67259"/>
    </g>
    <g clip-path="url(#pdc06a6cd24)">
     <use xlink:href="#C0_0_28e711b086" x="113.410942" y="86.043927" style="fill: #e46e56"/>
    </g>
    <g clip-path="url(#pdc06a6cd24)">
     <use xlink:href="#C0_0_28e711b086" x="112.543908" y="82.122254" style="fill: #e26952"/>
    </g>
    <g clip-path="url(#pdc06a6cd24)">
     <use xlink:href="#C0_0_28e711b086" x="111.809259" y="78.525908" style="fill: #df634e"/>
    </g>
    <g clip-path="url(#pdc06a6cd24)">
     <use xlink:href="#C0_0_28e711b086" x="111.187891" y="75.230403" style="fill: #dd5f4b"/>
    </g>
    <g clip-path="url(#pdc06a6cd24)">
     <use xlink:href="#C0_0_28e711b086" x="110.663192" y="72.212584" style="fill: #d95847"/>
    </g>
    <g clip-path="url(#pdc06a6cd24)">
     <use xlink:href="#C0_0_28e711b086" x="110.220783" y="69.450672" style="fill: #d75445"/>
    </g>
    <g clip-path="url(#pdc06a6cd24)">
     <use xlink:href="#C0_0_28e711b086" x="109.848266" y="66.924267" style="fill: #d44e41"/>
    </g>
    <g clip-path="url(#pdc06a6cd24)">
     <use xlink:href="#C0_0_28e711b086" x="109.53499" y="64.61433" style="fill: #d0473d"/>
    </g>
    <g clip-path="url(#pdc06a6cd24)">
     <use xlink:href="#C0_0_28e711b086" x="109.271832" y="62.503152" style="fill: #cd423b"/>
    </g>
    <g clip-path="url(#pdc06a6cd24)">
     <use xlink:href="#C0_0_28e711b086" x="109.051003" y="60.574302" style="fill: #ca3b37"/>
    </g>
    <g clip-path="url(#pdc06a6cd24)">
     <use xlink:href="#C0_0_28e711b086" x="108.865871" y="58.812575" style="fill: #c73635"/>
    </g>
    <g clip-path="url(#pdc06a6cd24)">
     <use xlink:href="#C0_0_28e711b086" x="108.710798" y="57.203922" style="fill: #c32e31"/>
    </g>
    <g clip-path="url(#pdc06a6cd24)">
     <use xlink:href="#C0_0_28e711b086" x="108.581007" y="55.735392" style="fill: #be242e"/>
    </g>
    <g clip-path="url(#pdc06a6cd24)">
     <use xlink:href="#C0_0_28e711b086" x="108.472453" y="54.395058" style="fill: #bb1b2c"/>
    </g>
    <g clip-path="url(#pdc06a6cd24)">
     <use xlink:href="#C0_0_28e711b086" x="108.381721" y="53.171955" style="fill: #b70d28"/>
    </g>
    <g clip-path="url(#pdc06a6cd24)">
     <use xlink:href="#C0_0_28e711b086" x="108.305931" y="52.056011" style="fill: #b40426"/>
    </g>
   </g>
   <g id="PathCollection_2"/>
   <g id="PathCollection_3"/>
   <g id="PathCollection_4"/>
   <g id="PathCollection_5"/>
   <g id="PathCollection_6"/>
   <g id="matplotlib.axis_1">
    <g id="xtick_1">
     <g id="line2d_1">
      <defs>
       <path id="m3385fdae1e" d="M 0 0 
L 0 3.5 
" style="stroke: #000000; stroke-width: 0.8"/>
      </defs>
      <g>
       <use xlink:href="#m3385fdae1e" x="107.926678" y="646.272238" style="stroke: #000000; stroke-width: 0.8"/>
      </g>
     </g>
     <g id="text_1">
      <!-- $\mathdefault{0.0}$ -->
      <g transform="translate(94.894084 668.492931) scale(0.22 -0.22)">
       <defs>
        <path id="CMR17-30" d="M 2688 2025 
C 2688 2416 2682 3080 2413 3591 
C 2176 4039 1798 4198 1466 4198 
C 1158 4198 768 4058 525 3597 
C 269 3118 243 2524 243 2025 
C 243 1661 250 1106 448 619 
C 723 -39 1216 -128 1466 -128 
C 1760 -128 2208 -7 2470 600 
C 2662 1042 2688 1559 2688 2025 
z
M 1466 -26 
C 1056 -26 813 325 723 812 
C 653 1188 653 1738 653 2096 
C 653 2588 653 2997 736 3387 
C 858 3929 1216 4096 1466 4096 
C 1728 4096 2067 3923 2189 3400 
C 2272 3036 2278 2607 2278 2096 
C 2278 1680 2278 1169 2202 792 
C 2067 95 1690 -26 1466 -26 
z
" transform="scale(0.015625)"/>
        <path id="CMMI12-3a" d="M 1178 307 
C 1178 492 1024 619 870 619 
C 685 619 557 466 557 313 
C 557 128 710 0 864 0 
C 1050 0 1178 153 1178 307 
z
" transform="scale(0.015625)"/>
       </defs>
       <use xlink:href="#CMR17-30" transform="scale(0.996264)"/>
       <use xlink:href="#CMMI12-3a" transform="translate(45.690477 0) scale(0.996264)"/>
       <use xlink:href="#CMR17-30" transform="translate(72.787654 0) scale(0.996264)"/>
      </g>
     </g>
    </g>
    <g id="xtick_2">
     <g id="line2d_2">
      <g>
       <use xlink:href="#m3385fdae1e" x="239.489364" y="646.272238" style="stroke: #000000; stroke-width: 0.8"/>
      </g>
     </g>
     <g id="text_2">
      <!-- $\mathdefault{0.1}$ -->
      <g transform="translate(226.45677 668.492931) scale(0.22 -0.22)">
       <defs>
        <path id="CMR17-31" d="M 1702 4058 
C 1702 4192 1696 4192 1606 4192 
C 1357 3916 979 3827 621 3827 
C 602 3827 570 3827 563 3808 
C 557 3795 557 3782 557 3648 
C 755 3648 1088 3686 1344 3839 
L 1344 461 
C 1344 236 1331 160 781 160 
L 589 160 
L 589 0 
C 896 0 1216 0 1523 0 
C 1830 0 2150 0 2458 0 
L 2458 160 
L 2266 160 
C 1715 160 1702 230 1702 458 
L 1702 4058 
z
" transform="scale(0.015625)"/>
       </defs>
       <use xlink:href="#CMR17-30" transform="scale(0.996264)"/>
       <use xlink:href="#CMMI12-3a" transform="translate(45.690477 0) scale(0.996264)"/>
       <use xlink:href="#CMR17-31" transform="translate(72.787654 0) scale(0.996264)"/>
      </g>
     </g>
    </g>
    <g id="xtick_3">
     <g id="line2d_3">
      <g>
       <use xlink:href="#m3385fdae1e" x="371.05205" y="646.272238" style="stroke: #000000; stroke-width: 0.8"/>
      </g>
     </g>
     <g id="text_3">
      <!-- $\mathdefault{0.2}$ -->
      <g transform="translate(358.019456 668.492931) scale(0.22 -0.22)">
       <defs>
        <path id="CMR17-32" d="M 2669 989 
L 2554 989 
C 2490 536 2438 459 2413 420 
C 2381 369 1920 369 1830 369 
L 602 369 
C 832 619 1280 1072 1824 1597 
C 2214 1967 2669 2402 2669 3035 
C 2669 3790 2067 4224 1395 4224 
C 691 4224 262 3604 262 3030 
C 262 2780 448 2748 525 2748 
C 589 2748 781 2787 781 3010 
C 781 3207 614 3264 525 3264 
C 486 3264 448 3258 422 3245 
C 544 3790 915 4058 1306 4058 
C 1862 4058 2227 3617 2227 3035 
C 2227 2479 1901 2000 1536 1584 
L 262 146 
L 262 0 
L 2515 0 
L 2669 989 
z
" transform="scale(0.015625)"/>
       </defs>
       <use xlink:href="#CMR17-30" transform="scale(0.996264)"/>
       <use xlink:href="#CMMI12-3a" transform="translate(45.690477 0) scale(0.996264)"/>
       <use xlink:href="#CMR17-32" transform="translate(72.787654 0) scale(0.996264)"/>
      </g>
     </g>
    </g>
    <g id="xtick_4">
     <g id="line2d_4">
      <g>
       <use xlink:href="#m3385fdae1e" x="502.614737" y="646.272238" style="stroke: #000000; stroke-width: 0.8"/>
      </g>
     </g>
     <g id="text_4">
      <!-- $\mathdefault{0.3}$ -->
      <g transform="translate(489.582142 668.492931) scale(0.22 -0.22)">
       <defs>
        <path id="CMR17-33" d="M 1414 2157 
C 1984 2157 2234 1662 2234 1090 
C 2234 320 1824 25 1453 25 
C 1114 25 563 194 390 693 
C 422 680 454 680 486 680 
C 640 680 755 782 755 948 
C 755 1133 614 1216 486 1216 
C 378 1216 211 1165 211 926 
C 211 335 787 -128 1466 -128 
C 2176 -128 2720 430 2720 1085 
C 2720 1707 2208 2157 1600 2227 
C 2086 2328 2554 2756 2554 3329 
C 2554 3820 2048 4179 1472 4179 
C 890 4179 378 3829 378 3329 
C 378 3110 544 3072 627 3072 
C 762 3072 877 3155 877 3321 
C 877 3486 762 3569 627 3569 
C 602 3569 570 3569 544 3557 
C 730 3959 1235 4032 1459 4032 
C 1683 4032 2106 3925 2106 3320 
C 2106 3143 2080 2828 1862 2550 
C 1670 2304 1453 2304 1242 2284 
C 1210 2284 1062 2269 1037 2269 
C 992 2263 966 2257 966 2208 
C 966 2163 973 2157 1101 2157 
L 1414 2157 
z
" transform="scale(0.015625)"/>
       </defs>
       <use xlink:href="#CMR17-30" transform="scale(0.996264)"/>
       <use xlink:href="#CMMI12-3a" transform="translate(45.690477 0) scale(0.996264)"/>
       <use xlink:href="#CMR17-33" transform="translate(72.787654 0) scale(0.996264)"/>
      </g>
     </g>
    </g>
    <g id="xtick_5">
     <g id="line2d_5">
      <g>
       <use xlink:href="#m3385fdae1e" x="634.177423" y="646.272238" style="stroke: #000000; stroke-width: 0.8"/>
      </g>
     </g>
     <g id="text_5">
      <!-- $\mathdefault{0.4}$ -->
      <g transform="translate(621.144828 668.492931) scale(0.22 -0.22)">
       <defs>
        <path id="CMR17-34" d="M 2150 4122 
C 2150 4256 2144 4256 2029 4256 
L 128 1254 
L 128 1088 
L 1779 1088 
L 1779 457 
C 1779 224 1766 160 1318 160 
L 1197 160 
L 1197 0 
C 1402 0 1747 0 1965 0 
C 2182 0 2528 0 2733 0 
L 2733 160 
L 2611 160 
C 2163 160 2150 224 2150 457 
L 2150 1088 
L 2803 1088 
L 2803 1254 
L 2150 1254 
L 2150 4122 
z
M 1798 3703 
L 1798 1254 
L 256 1254 
L 1798 3703 
z
" transform="scale(0.015625)"/>
       </defs>
       <use xlink:href="#CMR17-30" transform="scale(0.996264)"/>
       <use xlink:href="#CMMI12-3a" transform="translate(45.690477 0) scale(0.996264)"/>
       <use xlink:href="#CMR17-34" transform="translate(72.787654 0) scale(0.996264)"/>
      </g>
     </g>
    </g>
    <g id="text_6">
     <!-- $p_0$ -->
     <g transform="translate(379.133346 691.976812) scale(0.22 -0.22)">
      <defs>
       <path id="CMMI12-70" d="M 275 -789 
C 230 -980 205 -1031 -58 -1031 
C -134 -1031 -198 -1031 -198 -1152 
C -198 -1165 -192 -1216 -122 -1216 
C -38 -1216 51 -1216 134 -1216 
L 410 -1216 
C 544 -1216 870 -1216 1005 -1216 
C 1043 -1216 1120 -1216 1120 -1101 
C 1120 -1031 1075 -1031 966 -1031 
C 672 -1031 653 -987 653 -937 
C 653 -861 941 219 979 364 
C 1050 185 1222 -64 1555 -64 
C 2278 -64 3059 875 3059 1814 
C 3059 2401 2726 2816 2246 2816 
C 1837 2816 1491 2420 1421 2331 
C 1370 2650 1120 2816 864 2816 
C 678 2816 531 2727 410 2484 
C 294 2254 205 1865 205 1839 
C 205 1814 230 1782 275 1782 
C 326 1782 333 1788 371 1935 
C 467 2312 589 2689 845 2689 
C 992 2689 1043 2587 1043 2397 
C 1043 2245 1024 2181 998 2067 
L 275 -789 
z
M 1382 1993 
C 1427 2171 1606 2357 1709 2446 
C 1779 2510 1990 2689 2234 2689 
C 2515 2689 2643 2408 2643 2076 
C 2643 1769 2464 1047 2304 715 
C 2144 370 1850 64 1555 64 
C 1120 64 1050 613 1050 639 
C 1050 658 1062 709 1069 741 
L 1382 1993 
z
" transform="scale(0.015625)"/>
      </defs>
      <use xlink:href="#CMMI12-70" transform="scale(0.996264)"/>
      <use xlink:href="#CMR17-30" transform="translate(48.959514 -14.943915) scale(0.697382)"/>
     </g>
    </g>
   </g>
   <g id="matplotlib.axis_2">
    <g id="ytick_1">
     <g id="line2d_6">
      <defs>
       <path id="ma600d9e374" d="M 0 0 
L -3.5 0 
" style="stroke: #000000; stroke-width: 0.8"/>
      </defs>
      <g>
       <use xlink:href="#ma600d9e374" x="80.30907" y="619.791163" style="stroke: #000000; stroke-width: 0.8"/>
      </g>
     </g>
     <g id="text_7">
      <!-- $\mathdefault{0.0}$ -->
      <g transform="translate(47.243881 627.401509) scale(0.22 -0.22)">
       <use xlink:href="#CMR17-30" transform="scale(0.996264)"/>
       <use xlink:href="#CMMI12-3a" transform="translate(45.690477 0) scale(0.996264)"/>
       <use xlink:href="#CMR17-30" transform="translate(72.787654 0) scale(0.996264)"/>
      </g>
     </g>
    </g>
    <g id="ytick_2">
     <g id="line2d_7">
      <g>
       <use xlink:href="#ma600d9e374" x="80.30907" y="503.939795" style="stroke: #000000; stroke-width: 0.8"/>
      </g>
     </g>
     <g id="text_8">
      <!-- $\mathdefault{0.2}$ -->
      <g transform="translate(47.243881 511.550142) scale(0.22 -0.22)">
       <use xlink:href="#CMR17-30" transform="scale(0.996264)"/>
       <use xlink:href="#CMMI12-3a" transform="translate(45.690477 0) scale(0.996264)"/>
       <use xlink:href="#CMR17-32" transform="translate(72.787654 0) scale(0.996264)"/>
      </g>
     </g>
    </g>
    <g id="ytick_3">
     <g id="line2d_8">
      <g>
       <use xlink:href="#ma600d9e374" x="80.30907" y="388.088428" style="stroke: #000000; stroke-width: 0.8"/>
      </g>
     </g>
     <g id="text_9">
      <!-- $\mathdefault{0.4}$ -->
      <g transform="translate(47.243881 395.698775) scale(0.22 -0.22)">
       <use xlink:href="#CMR17-30" transform="scale(0.996264)"/>
       <use xlink:href="#CMMI12-3a" transform="translate(45.690477 0) scale(0.996264)"/>
       <use xlink:href="#CMR17-34" transform="translate(72.787654 0) scale(0.996264)"/>
      </g>
     </g>
    </g>
    <g id="ytick_4">
     <g id="line2d_9">
      <g>
       <use xlink:href="#ma600d9e374" x="80.30907" y="272.237061" style="stroke: #000000; stroke-width: 0.8"/>
      </g>
     </g>
     <g id="text_10">
      <!-- $\mathdefault{0.6}$ -->
      <g transform="translate(47.243881 279.847408) scale(0.22 -0.22)">
       <defs>
        <path id="CMR17-36" d="M 678 2176 
C 678 3690 1395 4032 1811 4032 
C 1946 4032 2272 4009 2400 3776 
C 2298 3776 2106 3776 2106 3553 
C 2106 3381 2246 3323 2336 3323 
C 2394 3323 2566 3348 2566 3560 
C 2566 3954 2246 4179 1805 4179 
C 1043 4179 243 3390 243 1984 
C 243 253 966 -128 1478 -128 
C 2099 -128 2688 427 2688 1283 
C 2688 2081 2170 2662 1517 2662 
C 1126 2662 838 2407 678 1960 
L 678 2176 
z
M 1478 25 
C 691 25 691 1200 691 1436 
C 691 1896 909 2560 1504 2560 
C 1613 2560 1926 2560 2138 2120 
C 2253 1870 2253 1609 2253 1289 
C 2253 944 2253 690 2118 434 
C 1978 171 1773 25 1478 25 
z
" transform="scale(0.015625)"/>
       </defs>
       <use xlink:href="#CMR17-30" transform="scale(0.996264)"/>
       <use xlink:href="#CMMI12-3a" transform="translate(45.690477 0) scale(0.996264)"/>
       <use xlink:href="#CMR17-36" transform="translate(72.787654 0) scale(0.996264)"/>
      </g>
     </g>
    </g>
    <g id="ytick_5">
     <g id="line2d_10">
      <g>
       <use xlink:href="#ma600d9e374" x="80.30907" y="156.385694" style="stroke: #000000; stroke-width: 0.8"/>
      </g>
     </g>
     <g id="text_11">
      <!-- $\mathdefault{0.8}$ -->
      <g transform="translate(47.243881 163.996041) scale(0.22 -0.22)">
       <defs>
        <path id="CMR17-38" d="M 1741 2264 
C 2144 2467 2554 2773 2554 3263 
C 2554 3841 1990 4179 1472 4179 
C 890 4179 378 3759 378 3180 
C 378 3021 416 2747 666 2505 
C 730 2442 998 2251 1171 2130 
C 883 1983 211 1634 211 934 
C 211 279 838 -128 1459 -128 
C 2144 -128 2720 362 2720 1010 
C 2720 1590 2330 1857 2074 2029 
L 1741 2264 
z
M 902 2822 
C 851 2854 595 3051 595 3351 
C 595 3739 998 4032 1459 4032 
C 1965 4032 2336 3676 2336 3262 
C 2336 2669 1670 2331 1638 2331 
C 1632 2331 1626 2331 1574 2370 
L 902 2822 
z
M 2080 1519 
C 2176 1449 2483 1240 2483 851 
C 2483 381 2010 25 1472 25 
C 890 25 448 438 448 940 
C 448 1443 838 1862 1280 2060 
L 2080 1519 
z
" transform="scale(0.015625)"/>
       </defs>
       <use xlink:href="#CMR17-30" transform="scale(0.996264)"/>
       <use xlink:href="#CMMI12-3a" transform="translate(45.690477 0) scale(0.996264)"/>
       <use xlink:href="#CMR17-38" transform="translate(72.787654 0) scale(0.996264)"/>
      </g>
     </g>
    </g>
    <g id="ytick_6">
     <g id="line2d_11">
      <g>
       <use xlink:href="#ma600d9e374" x="80.30907" y="40.534327" style="stroke: #000000; stroke-width: 0.8"/>
      </g>
     </g>
     <g id="text_12">
      <!-- $\mathdefault{1.0}$ -->
      <g transform="translate(47.243881 48.144674) scale(0.22 -0.22)">
       <use xlink:href="#CMR17-31" transform="scale(0.996264)"/>
       <use xlink:href="#CMMI12-3a" transform="translate(45.690477 0) scale(0.996264)"/>
       <use xlink:href="#CMR17-30" transform="translate(72.787654 0) scale(0.996264)"/>
      </g>
     </g>
    </g>
    <g id="text_13">
     <!-- $p_2$ -->
     <g transform="translate(38.980693 344.157308) rotate(-90) scale(0.22 -0.22)">
      <use xlink:href="#CMMI12-70" transform="scale(0.996264)"/>
      <use xlink:href="#CMR17-32" transform="translate(48.959514 -14.943915) scale(0.697382)"/>
     </g>
    </g>
   </g>
   <g id="patch_3">
    <path d="M 80.30907 646.272238 
L 80.30907 23.76 
" style="fill: none; stroke: #000000; stroke-width: 0.8; stroke-linejoin: miter; stroke-linecap: square"/>
   </g>
   <g id="patch_4">
    <path d="M 696.24 646.272238 
L 696.24 23.76 
" style="fill: none; stroke: #000000; stroke-width: 0.8; stroke-linejoin: miter; stroke-linecap: square"/>
   </g>
   <g id="patch_5">
    <path d="M 80.30907 646.272238 
L 696.24 646.272238 
" style="fill: none; stroke: #000000; stroke-width: 0.8; stroke-linejoin: miter; stroke-linecap: square"/>
   </g>
   <g id="patch_6">
    <path d="M 80.30907 23.76 
L 696.24 23.76 
" style="fill: none; stroke: #000000; stroke-width: 0.8; stroke-linejoin: miter; stroke-linecap: square"/>
   </g>
   <g id="legend_1">
    <g id="patch_7">
     <path d="M 583.340862 194.675939 
L 680.84 194.675939 
Q 685.24 194.675939 685.24 190.275939 
L 685.24 39.16 
Q 685.24 34.76 680.84 34.76 
L 583.340862 34.76 
Q 578.940862 34.76 578.940862 39.16 
L 578.940862 190.275939 
Q 578.940862 194.675939 583.340862 194.675939 
z
" style="fill: #ffffff; opacity: 0.8; stroke: #cccccc; stroke-linejoin: miter"/>
    </g>
    <g id="PathCollection_7">
     <defs>
      <path id="m887b4c0e6a" d="M 0 3 
C 0.795609 3 1.55874 2.683901 2.12132 2.12132 
C 2.683901 1.55874 3 0.795609 3 0 
C 3 -0.795609 2.683901 -1.55874 2.12132 -2.12132 
C 1.55874 -2.683901 0.795609 -3 0 -3 
C -0.795609 -3 -1.55874 -2.683901 -2.12132 -2.12132 
C -2.683901 -1.55874 -3 -0.795609 -3 0 
C -3 0.795609 -2.683901 1.55874 -2.12132 2.12132 
C -1.55874 2.683901 -0.795609 3 0 3 
z
" style="stroke: #4b64d5"/>
     </defs>
     <g>
      <use xlink:href="#m887b4c0e6a" x="609.740862" y="53.185" style="fill: #4b64d5; stroke: #4b64d5"/>
     </g>
    </g>
    <g id="text_14">
     <!-- $\mathdefault{−4}$ -->
     <g transform="translate(649.340862 58.96) scale(0.22 -0.22)">
      <defs>
       <path id="CMSY10-0" d="M 4218 1472 
C 4326 1472 4442 1472 4442 1600 
C 4442 1728 4326 1728 4218 1728 
L 755 1728 
C 646 1728 531 1728 531 1600 
C 531 1472 646 1472 755 1472 
L 4218 1472 
z
" transform="scale(0.015625)"/>
      </defs>
      <use xlink:href="#CMSY10-0" transform="scale(0.996264)"/>
      <use xlink:href="#CMR17-34" transform="translate(77.487468 0) scale(0.996264)"/>
     </g>
    </g>
    <g id="PathCollection_8">
     <defs>
      <path id="mfb981429c9" d="M 0 3 
C 0.795609 3 1.55874 2.683901 2.12132 2.12132 
C 2.683901 1.55874 3 0.795609 3 0 
C 3 -0.795609 2.683901 -1.55874 2.12132 -2.12132 
C 1.55874 -2.683901 0.795609 -3 0 -3 
C -0.795609 -3 -1.55874 -2.683901 -2.12132 -2.12132 
C -2.683901 -1.55874 -3 -0.795609 -3 0 
C -3 0.795609 -2.683901 1.55874 -2.12132 2.12132 
C -1.55874 2.683901 -0.795609 3 0 3 
z
" style="stroke: #96b7ff"/>
     </defs>
     <g>
      <use xlink:href="#mfb981429c9" x="609.740862" y="83.848188" style="fill: #96b7ff; stroke: #96b7ff"/>
     </g>
    </g>
    <g id="text_15">
     <!-- $\mathdefault{−2}$ -->
     <g transform="translate(649.340862 89.623188) scale(0.22 -0.22)">
      <use xlink:href="#CMSY10-0" transform="scale(0.996264)"/>
      <use xlink:href="#CMR17-32" transform="translate(77.487468 0) scale(0.996264)"/>
     </g>
    </g>
    <g id="PathCollection_9">
     <defs>
      <path id="meec723e040" d="M 0 3 
C 0.795609 3 1.55874 2.683901 2.12132 2.12132 
C 2.683901 1.55874 3 0.795609 3 0 
C 3 -0.795609 2.683901 -1.55874 2.12132 -2.12132 
C 1.55874 -2.683901 0.795609 -3 0 -3 
C -0.795609 -3 -1.55874 -2.683901 -2.12132 -2.12132 
C -2.683901 -1.55874 -3 -0.795609 -3 0 
C -3 0.795609 -2.683901 1.55874 -2.12132 2.12132 
C -1.55874 2.683901 -0.795609 3 0 3 
z
" style="stroke: #dbdcde"/>
     </defs>
     <g>
      <use xlink:href="#meec723e040" x="609.740862" y="114.511376" style="fill: #dbdcde; stroke: #dbdcde"/>
     </g>
    </g>
    <g id="text_16">
     <!-- $\mathdefault{0}$ -->
     <g transform="translate(649.340862 120.286376) scale(0.22 -0.22)">
      <use xlink:href="#CMR17-30" transform="scale(0.996264)"/>
     </g>
    </g>
    <g id="PathCollection_10">
     <defs>
      <path id="m5896ca7bfd" d="M 0 3 
C 0.795609 3 1.55874 2.683901 2.12132 2.12132 
C 2.683901 1.55874 3 0.795609 3 0 
C 3 -0.795609 2.683901 -1.55874 2.12132 -2.12132 
C 1.55874 -2.683901 0.795609 -3 0 -3 
C -0.795609 -3 -1.55874 -2.683901 -2.12132 -2.12132 
C -2.683901 -1.55874 -3 -0.795609 -3 0 
C -3 0.795609 -2.683901 1.55874 -2.12132 2.12132 
C -1.55874 2.683901 -0.795609 3 0 3 
z
" style="stroke: #f7a889"/>
     </defs>
     <g>
      <use xlink:href="#m5896ca7bfd" x="609.740862" y="145.174564" style="fill: #f7a889; stroke: #f7a889"/>
     </g>
    </g>
    <g id="text_17">
     <!-- $\mathdefault{2}$ -->
     <g transform="translate(649.340862 150.949564) scale(0.22 -0.22)">
      <use xlink:href="#CMR17-32" transform="scale(0.996264)"/>
     </g>
    </g>
    <g id="PathCollection_11">
     <defs>
      <path id="m1a9ccdf138" d="M 0 3 
C 0.795609 3 1.55874 2.683901 2.12132 2.12132 
C 2.683901 1.55874 3 0.795609 3 0 
C 3 -0.795609 2.683901 -1.55874 2.12132 -2.12132 
C 1.55874 -2.683901 0.795609 -3 0 -3 
C -0.795609 -3 -1.55874 -2.683901 -2.12132 -2.12132 
C -2.683901 -1.55874 -3 -0.795609 -3 0 
C -3 0.795609 -2.683901 1.55874 -2.12132 2.12132 
C -1.55874 2.683901 -0.795609 3 0 3 
z
" style="stroke: #cb3e38"/>
     </defs>
     <g>
      <use xlink:href="#m1a9ccdf138" x="609.740862" y="175.837751" style="fill: #cb3e38; stroke: #cb3e38"/>
     </g>
    </g>
    <g id="text_18">
     <!-- $\mathdefault{4}$ -->
     <g transform="translate(649.340862 181.612751) scale(0.22 -0.22)">
      <use xlink:href="#CMR17-34" transform="scale(0.996264)"/>
     </g>
    </g>
   </g>
  </g>
 </g>
 <defs>
  <clipPath id="pdc06a6cd24">
   <rect x="80.30907" y="23.76" width="615.93093" height="622.512238"/>
  </clipPath>
 </defs>
</svg>
