<?xml version="1.0" encoding="utf-8" standalone="no"?>
<!DOCTYPE svg PUBLIC "-//W3C//DTD SVG 1.1//EN"
  "http://www.w3.org/Graphics/SVG/1.1/DTD/svg11.dtd">
<svg xmlns:xlink="http://www.w3.org/1999/xlink" width="720pt" height="720pt" viewBox="0 0 720 720" xmlns="http://www.w3.org/2000/svg" version="1.1">
 <metadata>
  <rdf:RDF xmlns:dc="http://purl.org/dc/elements/1.1/" xmlns:cc="http://creativecommons.org/ns#" xmlns:rdf="http://www.w3.org/1999/02/22-rdf-syntax-ns#">
   <cc:Work>
    <dc:type rdf:resource="http://purl.org/dc/dcmitype/StillImage"/>
    <dc:date>2022-11-02T16:39:06.658953</dc:date>
    <dc:format>image/svg+xml</dc:format>
    <dc:creator>
     <cc:Agent>
      <dc:title>Matplotlib v3.6.0, https://matplotlib.org/</dc:title>
     </cc:Agent>
    </dc:creator>
   </cc:Work>
  </rdf:RDF>
 </metadata>
 <defs>
  <style type="text/css">*{stroke-linejoin: round; stroke-linecap: butt}</style>
 </defs>
 <g id="figure_1">
  <g id="patch_1">
   <path d="M 0 720 
L 720 720 
L 720 0 
L 0 0 
z
" style="fill: #ffffff"/>
  </g>
  <g id="axes_1">
   <g id="patch_2">
    <path d="M 80.30907 646.272238 
L 696.24 646.272238 
L 696.24 23.76 
L 80.30907 23.76 
z
" style="fill: #ffffff"/>
   </g>
   <g id="PathCollection_1">
    <defs>
     <path id="C0_0_28e711b086" d="M 0 3 
C 0.795609 3 1.55874 2.683901 2.12132 2.12132 
C 2.683901 1.55874 3 0.795609 3 -0 
C 3 -0.795609 2.683901 -1.55874 2.12132 -2.12132 
C 1.55874 -2.683901 0.795609 -3 0 -3 
C -0.795609 -3 -1.55874 -2.683901 -2.12132 -2.12132 
C -2.683901 -1.55874 -3 -0.795609 -3 0 
C -3 0.795609 -2.683901 1.55874 -2.12132 2.12132 
C -1.55874 2.683901 -0.795609 3 0 3 
z
"/>
    </defs>
    <g clip-path="url(#pbe968ad550)">
     <use xlink:href="#C0_0_28e711b086" x="108.305931" y="52.056011" style="fill: #3b4cc0"/>
    </g>
    <g clip-path="url(#pbe968ad550)">
     <use xlink:href="#C0_0_28e711b086" x="114.131536" y="57.943863" style="fill: #3b4cc0"/>
    </g>
    <g clip-path="url(#pbe968ad550)">
     <use xlink:href="#C0_0_28e711b086" x="120.38732" y="64.266491" style="fill: #3b4cc0"/>
    </g>
    <g clip-path="url(#pbe968ad550)">
     <use xlink:href="#C0_0_28e711b086" x="127.092607" y="71.043425" style="fill: #3b4cc0"/>
    </g>
    <g clip-path="url(#pbe968ad550)">
     <use xlink:href="#C0_0_28e711b086" x="134.265427" y="78.292889" style="fill: #3b4cc0"/>
    </g>
    <g clip-path="url(#pbe968ad550)">
     <use xlink:href="#C0_0_28e711b086" x="141.922091" y="86.031365" style="fill: #3b4cc0"/>
    </g>
    <g clip-path="url(#pbe968ad550)">
     <use xlink:href="#C0_0_28e711b086" x="150.076714" y="94.273121" style="fill: #3b4cc0"/>
    </g>
    <g clip-path="url(#pbe968ad550)">
     <use xlink:href="#C0_0_28e711b086" x="158.740724" y="103.029707" style="fill: #3b4cc0"/>
    </g>
    <g clip-path="url(#pbe968ad550)">
     <use xlink:href="#C0_0_28e711b086" x="167.922344" y="112.309434" style="fill: #3b4cc0"/>
    </g>
    <g clip-path="url(#pbe968ad550)">
     <use xlink:href="#C0_0_28e711b086" x="177.626069" y="122.116845" style="fill: #3b4cc0"/>
    </g>
    <g clip-path="url(#pbe968ad550)">
     <use xlink:href="#C0_0_28e711b086" x="187.852153" y="132.452195" style="fill: #3b4cc0"/>
    </g>
    <g clip-path="url(#pbe968ad550)">
     <use xlink:href="#C0_0_28e711b086" x="198.596123" y="143.310967" style="fill: #3b4cc0"/>
    </g>
    <g clip-path="url(#pbe968ad550)">
     <use xlink:href="#C0_0_28e711b086" x="209.848348" y="154.683423" style="fill: #3b4cc0"/>
    </g>
    <g clip-path="url(#pbe968ad550)">
     <use xlink:href="#C0_0_28e711b086" x="221.593667" y="166.554242" style="fill: #3b4cc0"/>
    </g>
    <g clip-path="url(#pbe968ad550)">
     <use xlink:href="#C0_0_28e711b086" x="233.811123" y="178.902244" style="fill: #3b4cc0"/>
    </g>
    <g clip-path="url(#pbe968ad550)">
     <use xlink:href="#C0_0_28e711b086" x="246.473805" y="191.700228" style="fill: #3b4cc0"/>
    </g>
    <g clip-path="url(#pbe968ad550)">
     <use xlink:href="#C0_0_28e711b086" x="259.548825" y="204.914956" style="fill: #3b4cc0"/>
    </g>
    <g clip-path="url(#pbe968ad550)">
     <use xlink:href="#C0_0_28e711b086" x="272.997451" y="218.507283" style="fill: #3b4cc0"/>
    </g>
    <g clip-path="url(#pbe968ad550)">
     <use xlink:href="#C0_0_28e711b086" x="286.775394" y="232.432446" style="fill: #3b4cc0"/>
    </g>
    <g clip-path="url(#pbe968ad550)">
     <use xlink:href="#C0_0_28e711b086" x="300.833265" y="246.640527" style="fill: #3b4cc0"/>
    </g>
    <g clip-path="url(#pbe968ad550)">
     <use xlink:href="#C0_0_28e711b086" x="315.117187" y="261.077074" style="fill: #3b4cc0"/>
    </g>
    <g clip-path="url(#pbe968ad550)">
     <use xlink:href="#C0_0_28e711b086" x="329.569558" y="275.683871" style="fill: #3b4cc0"/>
    </g>
    <g clip-path="url(#pbe968ad550)">
     <use xlink:href="#C0_0_28e711b086" x="344.129946" y="290.399839" style="fill: #3b4cc0"/>
    </g>
    <g clip-path="url(#pbe968ad550)">
     <use xlink:href="#C0_0_28e711b086" x="358.736073" y="305.162034" style="fill: #3b4cc0"/>
    </g>
    <g clip-path="url(#pbe968ad550)">
     <use xlink:href="#C0_0_28e711b086" x="373.324874" y="319.906718" style="fill: #3b4cc0"/>
    </g>
    <g clip-path="url(#pbe968ad550)">
     <use xlink:href="#C0_0_28e711b086" x="387.833583" y="334.570456" style="fill: #3b4cc0"/>
    </g>
    <g clip-path="url(#pbe968ad550)">
     <use xlink:href="#C0_0_28e711b086" x="402.200809" y="349.091197" style="fill: #3b4cc0"/>
    </g>
    <g clip-path="url(#pbe968ad550)">
     <use xlink:href="#C0_0_28e711b086" x="416.367555" y="363.409317" style="fill: #3b4cc0"/>
    </g>
    <g clip-path="url(#pbe968ad550)">
     <use xlink:href="#C0_0_28e711b086" x="430.278163" y="377.468561" style="fill: #3b4cc0"/>
    </g>
    <g clip-path="url(#pbe968ad550)">
     <use xlink:href="#C0_0_28e711b086" x="443.881132" y="391.21688" style="fill: #3b4cc0"/>
    </g>
    <g clip-path="url(#pbe968ad550)">
     <use xlink:href="#C0_0_28e711b086" x="457.129808" y="404.60712" style="fill: #3b4cc0"/>
    </g>
    <g clip-path="url(#pbe968ad550)">
     <use xlink:href="#C0_0_28e711b086" x="469.982907" y="417.597556" style="fill: #3b4cc0"/>
    </g>
    <g clip-path="url(#pbe968ad550)">
     <use xlink:href="#C0_0_28e711b086" x="482.404878" y="430.152257" style="fill: #3b4cc0"/>
    </g>
    <g clip-path="url(#pbe968ad550)">
     <use xlink:href="#C0_0_28e711b086" x="494.366109" y="442.241296" style="fill: #3b4cc0"/>
    </g>
    <g clip-path="url(#pbe968ad550)">
     <use xlink:href="#C0_0_28e711b086" x="505.842969" y="453.840788" style="fill: #3b4cc0"/>
    </g>
    <g clip-path="url(#pbe968ad550)">
     <use xlink:href="#C0_0_28e711b086" x="516.817709" y="464.932795" style="fill: #3b4cc0"/>
    </g>
    <g clip-path="url(#pbe968ad550)">
     <use xlink:href="#C0_0_28e711b086" x="527.278245" y="475.505103" style="fill: #3b4cc0"/>
    </g>
    <g clip-path="url(#pbe968ad550)">
     <use xlink:href="#C0_0_28e711b086" x="537.217827" y="485.55089" style="fill: #3b4cc0"/>
    </g>
    <g clip-path="url(#pbe968ad550)">
     <use xlink:href="#C0_0_28e711b086" x="546.634635" y="495.068318" style="fill: #3b4cc0"/>
    </g>
    <g clip-path="url(#pbe968ad550)">
     <use xlink:href="#C0_0_28e711b086" x="555.531312" y="504.060058" style="fill: #3c4ec2"/>
    </g>
    <g clip-path="url(#pbe968ad550)">
     <use xlink:href="#C0_0_28e711b086" x="563.914465" y="512.532786" style="fill: #3c4ec2"/>
    </g>
    <g clip-path="url(#pbe968ad550)">
     <use xlink:href="#C0_0_28e711b086" x="571.794141" y="520.496657" style="fill: #3c4ec2"/>
    </g>
    <g clip-path="url(#pbe968ad550)">
     <use xlink:href="#C0_0_28e711b086" x="579.183306" y="527.964777" style="fill: #3c4ec2"/>
    </g>
    <g clip-path="url(#pbe968ad550)">
     <use xlink:href="#C0_0_28e711b086" x="586.09734" y="534.952688" style="fill: #3c4ec2"/>
    </g>
    <g clip-path="url(#pbe968ad550)">
     <use xlink:href="#C0_0_28e711b086" x="592.553553" y="541.477887" style="fill: #3c4ec2"/>
    </g>
    <g clip-path="url(#pbe968ad550)">
     <use xlink:href="#C0_0_28e711b086" x="598.570738" y="547.559366" style="fill: #3c4ec2"/>
    </g>
    <g clip-path="url(#pbe968ad550)">
     <use xlink:href="#C0_0_28e711b086" x="604.168755" y="553.217199" style="fill: #3d50c3"/>
    </g>
    <g clip-path="url(#pbe968ad550)">
     <use xlink:href="#C0_0_28e711b086" x="609.368173" y="558.472173" style="fill: #3d50c3"/>
    </g>
    <g clip-path="url(#pbe968ad550)">
     <use xlink:href="#C0_0_28e711b086" x="614.189934" y="563.345456" style="fill: #3d50c3"/>
    </g>
    <g clip-path="url(#pbe968ad550)">
     <use xlink:href="#C0_0_28e711b086" x="618.655085" y="567.858317" style="fill: #3d50c3"/>
    </g>
    <g clip-path="url(#pbe968ad550)">
     <use xlink:href="#C0_0_28e711b086" x="622.78453" y="572.031886" style="fill: #3d50c3"/>
    </g>
    <g clip-path="url(#pbe968ad550)">
     <use xlink:href="#C0_0_28e711b086" x="626.598836" y="575.886948" style="fill: #3e51c5"/>
    </g>
    <g clip-path="url(#pbe968ad550)">
     <use xlink:href="#C0_0_28e711b086" x="630.118072" y="579.443787" style="fill: #3e51c5"/>
    </g>
    <g clip-path="url(#pbe968ad550)">
     <use xlink:href="#C0_0_28e711b086" x="633.361677" y="582.722051" style="fill: #3e51c5"/>
    </g>
    <g clip-path="url(#pbe968ad550)">
     <use xlink:href="#C0_0_28e711b086" x="636.348366" y="585.740653" style="fill: #3f53c6"/>
    </g>
    <g clip-path="url(#pbe968ad550)">
     <use xlink:href="#C0_0_28e711b086" x="639.096053" y="588.5177" style="fill: #3f53c6"/>
    </g>
    <g clip-path="url(#pbe968ad550)">
     <use xlink:href="#C0_0_28e711b086" x="641.621807" y="591.070441" style="fill: #4055c8"/>
    </g>
    <g clip-path="url(#pbe968ad550)">
     <use xlink:href="#C0_0_28e711b086" x="643.941814" y="593.415238" style="fill: #4055c8"/>
    </g>
    <g clip-path="url(#pbe968ad550)">
     <use xlink:href="#C0_0_28e711b086" x="646.071368" y="595.567547" style="fill: #4257c9"/>
    </g>
    <g clip-path="url(#pbe968ad550)">
     <use xlink:href="#C0_0_28e711b086" x="648.024872" y="597.541924" style="fill: #4257c9"/>
    </g>
    <g clip-path="url(#pbe968ad550)">
     <use xlink:href="#C0_0_28e711b086" x="649.81584" y="599.352028" style="fill: #4358cb"/>
    </g>
    <g clip-path="url(#pbe968ad550)">
     <use xlink:href="#C0_0_28e711b086" x="651.456924" y="601.010648" style="fill: #445acc"/>
    </g>
    <g clip-path="url(#pbe968ad550)">
     <use xlink:href="#C0_0_28e711b086" x="652.959936" y="602.52972" style="fill: #445acc"/>
    </g>
    <g clip-path="url(#pbe968ad550)">
     <use xlink:href="#C0_0_28e711b086" x="654.33588" y="603.920366" style="fill: #455cce"/>
    </g>
    <g clip-path="url(#pbe968ad550)">
     <use xlink:href="#C0_0_28e711b086" x="655.594984" y="605.192923" style="fill: #465ecf"/>
    </g>
    <g clip-path="url(#pbe968ad550)">
     <use xlink:href="#C0_0_28e711b086" x="656.746739" y="606.356985" style="fill: #485fd1"/>
    </g>
    <g clip-path="url(#pbe968ad550)">
     <use xlink:href="#C0_0_28e711b086" x="657.799938" y="607.421438" style="fill: #4a63d3"/>
    </g>
    <g clip-path="url(#pbe968ad550)">
     <use xlink:href="#C0_0_28e711b086" x="658.762714" y="608.394502" style="fill: #4b64d5"/>
    </g>
    <g clip-path="url(#pbe968ad550)">
     <use xlink:href="#C0_0_28e711b086" x="659.642579" y="609.283768" style="fill: #4c66d6"/>
    </g>
    <g clip-path="url(#pbe968ad550)">
     <use xlink:href="#C0_0_28e711b086" x="660.446463" y="610.096242" style="fill: #4f69d9"/>
    </g>
    <g clip-path="url(#pbe968ad550)">
     <use xlink:href="#C0_0_28e711b086" x="661.180752" y="610.838377" style="fill: #506bda"/>
    </g>
    <g clip-path="url(#pbe968ad550)">
     <use xlink:href="#C0_0_28e711b086" x="661.851326" y="611.516116" style="fill: #536edd"/>
    </g>
    <g clip-path="url(#pbe968ad550)">
     <use xlink:href="#C0_0_28e711b086" x="662.463591" y="612.134922" style="fill: #5572df"/>
    </g>
    <g clip-path="url(#pbe968ad550)">
     <use xlink:href="#C0_0_28e711b086" x="663.022515" y="612.699819" style="fill: #5875e1"/>
    </g>
    <g clip-path="url(#pbe968ad550)">
     <use xlink:href="#C0_0_28e711b086" x="663.532662" y="613.215417" style="fill: #5b7ae5"/>
    </g>
    <g clip-path="url(#pbe968ad550)">
     <use xlink:href="#C0_0_28e711b086" x="663.998217" y="613.685947" style="fill: #5f7fe8"/>
    </g>
    <g clip-path="url(#pbe968ad550)">
     <use xlink:href="#C0_0_28e711b086" x="664.42302" y="614.115289" style="fill: #6384eb"/>
    </g>
    <g clip-path="url(#pbe968ad550)">
     <use xlink:href="#C0_0_28e711b086" x="664.81059" y="614.507" style="fill: #6788ee"/>
    </g>
    <g clip-path="url(#pbe968ad550)">
     <use xlink:href="#C0_0_28e711b086" x="665.164148" y="614.864336" style="fill: #6b8df0"/>
    </g>
    <g clip-path="url(#pbe968ad550)">
     <use xlink:href="#C0_0_28e711b086" x="665.486646" y="615.19028" style="fill: #7093f3"/>
    </g>
    <g clip-path="url(#pbe968ad550)">
     <use xlink:href="#C0_0_28e711b086" x="665.780784" y="615.487561" style="fill: #7699f6"/>
    </g>
    <g clip-path="url(#pbe968ad550)">
     <use xlink:href="#C0_0_28e711b086" x="666.049033" y="615.758676" style="fill: #7da0f9"/>
    </g>
    <g clip-path="url(#pbe968ad550)">
     <use xlink:href="#C0_0_28e711b086" x="666.293652" y="616.005909" style="fill: #84a7fc"/>
    </g>
    <g clip-path="url(#pbe968ad550)">
     <use xlink:href="#C0_0_28e711b086" x="666.516707" y="616.231347" style="fill: #8caffe"/>
    </g>
    <g clip-path="url(#pbe968ad550)">
     <use xlink:href="#C0_0_28e711b086" x="666.720084" y="616.436898" style="fill: #94b6ff"/>
    </g>
    <g clip-path="url(#pbe968ad550)">
     <use xlink:href="#C0_0_28e711b086" x="666.90551" y="616.624304" style="fill: #9ebeff"/>
    </g>
    <g clip-path="url(#pbe968ad550)">
     <use xlink:href="#C0_0_28e711b086" x="667.074558" y="616.795158" style="fill: #a7c5fe"/>
    </g>
    <g clip-path="url(#pbe968ad550)">
     <use xlink:href="#C0_0_28e711b086" x="667.228667" y="616.950915" style="fill: #b2ccfb"/>
    </g>
    <g clip-path="url(#pbe968ad550)">
     <use xlink:href="#C0_0_28e711b086" x="667.369153" y="617.092901" style="fill: #bed2f6"/>
    </g>
    <g clip-path="url(#pbe968ad550)">
     <use xlink:href="#C0_0_28e711b086" x="667.497212" y="617.222329" style="fill: #cad8ef"/>
    </g>
    <g clip-path="url(#pbe968ad550)">
     <use xlink:href="#C0_0_28e711b086" x="667.613941" y="617.340305" style="fill: #d6dce4"/>
    </g>
    <g clip-path="url(#pbe968ad550)">
     <use xlink:href="#C0_0_28e711b086" x="667.720338" y="617.447839" style="fill: #e2dad5"/>
    </g>
    <g clip-path="url(#pbe968ad550)">
     <use xlink:href="#C0_0_28e711b086" x="667.817314" y="617.545851" style="fill: #edd1c2"/>
    </g>
    <g clip-path="url(#pbe968ad550)">
     <use xlink:href="#C0_0_28e711b086" x="667.905701" y="617.635183" style="fill: #f5c4ac"/>
    </g>
    <g clip-path="url(#pbe968ad550)">
     <use xlink:href="#C0_0_28e711b086" x="667.986258" y="617.716601" style="fill: #f7b093"/>
    </g>
    <g clip-path="url(#pbe968ad550)">
     <use xlink:href="#C0_0_28e711b086" x="668.059677" y="617.790804" style="fill: #f39778"/>
    </g>
    <g clip-path="url(#pbe968ad550)">
     <use xlink:href="#C0_0_28e711b086" x="668.126588" y="617.85843" style="fill: #e8765c"/>
    </g>
    <g clip-path="url(#pbe968ad550)">
     <use xlink:href="#C0_0_28e711b086" x="668.187567" y="617.92006" style="fill: #d24b40"/>
    </g>
    <g clip-path="url(#pbe968ad550)">
     <use xlink:href="#C0_0_28e711b086" x="668.24314" y="617.976227" style="fill: #b40426"/>
    </g>
   </g>
   <g id="PathCollection_2"/>
   <g id="PathCollection_3"/>
   <g id="PathCollection_4"/>
   <g id="PathCollection_5"/>
   <g id="PathCollection_6"/>
   <g id="matplotlib.axis_1">
    <g id="xtick_1">
     <g id="line2d_1">
      <defs>
       <path id="m3385fdae1e" d="M 0 0 
L 0 3.5 
" style="stroke: #000000; stroke-width: 0.8"/>
      </defs>
      <g>
       <use xlink:href="#m3385fdae1e" x="155.804121" y="646.272238" style="stroke: #000000; stroke-width: 0.8"/>
      </g>
     </g>
     <g id="text_1">
      <!-- $\mathdefault{0.05}$ -->
      <g transform="translate(137.745574 668.492931) scale(0.22 -0.22)">
       <defs>
        <path id="CMR17-30" d="M 2688 2025 
C 2688 2416 2682 3080 2413 3591 
C 2176 4039 1798 4198 1466 4198 
C 1158 4198 768 4058 525 3597 
C 269 3118 243 2524 243 2025 
C 243 1661 250 1106 448 619 
C 723 -39 1216 -128 1466 -128 
C 1760 -128 2208 -7 2470 600 
C 2662 1042 2688 1559 2688 2025 
z
M 1466 -26 
C 1056 -26 813 325 723 812 
C 653 1188 653 1738 653 2096 
C 653 2588 653 2997 736 3387 
C 858 3929 1216 4096 1466 4096 
C 1728 4096 2067 3923 2189 3400 
C 2272 3036 2278 2607 2278 2096 
C 2278 1680 2278 1169 2202 792 
C 2067 95 1690 -26 1466 -26 
z
" transform="scale(0.015625)"/>
        <path id="CMMI12-3a" d="M 1178 307 
C 1178 492 1024 619 870 619 
C 685 619 557 466 557 313 
C 557 128 710 0 864 0 
C 1050 0 1178 153 1178 307 
z
" transform="scale(0.015625)"/>
        <path id="CMR17-35" d="M 730 3692 
C 794 3666 1056 3584 1325 3584 
C 1920 3584 2246 3911 2432 4100 
C 2432 4157 2432 4192 2394 4192 
C 2387 4192 2374 4192 2323 4163 
C 2099 4058 1837 3973 1517 3973 
C 1325 3973 1037 3999 723 4139 
C 653 4171 640 4171 634 4171 
C 602 4171 595 4164 595 4037 
L 595 2203 
C 595 2089 595 2057 659 2057 
C 691 2057 704 2070 736 2114 
C 941 2401 1222 2522 1542 2522 
C 1766 2522 2246 2382 2246 1289 
C 2246 1085 2246 715 2054 421 
C 1894 159 1645 25 1370 25 
C 947 25 518 320 403 814 
C 429 807 480 795 506 795 
C 589 795 749 840 749 1038 
C 749 1210 627 1280 506 1280 
C 358 1280 262 1190 262 1011 
C 262 454 704 -128 1382 -128 
C 2042 -128 2669 440 2669 1264 
C 2669 2030 2170 2624 1549 2624 
C 1222 2624 947 2503 730 2274 
L 730 3692 
z
" transform="scale(0.015625)"/>
       </defs>
       <use xlink:href="#CMR17-30" transform="scale(0.996264)"/>
       <use xlink:href="#CMMI12-3a" transform="translate(45.690477 0) scale(0.996264)"/>
       <use xlink:href="#CMR17-30" transform="translate(72.787654 0) scale(0.996264)"/>
       <use xlink:href="#CMR17-35" transform="translate(118.478131 0) scale(0.996264)"/>
      </g>
     </g>
    </g>
    <g id="xtick_2">
     <g id="line2d_2">
      <g>
       <use xlink:href="#m3385fdae1e" x="270.969534" y="646.272238" style="stroke: #000000; stroke-width: 0.8"/>
      </g>
     </g>
     <g id="text_2">
      <!-- $\mathdefault{0.10}$ -->
      <g transform="translate(252.910987 668.492931) scale(0.22 -0.22)">
       <defs>
        <path id="CMR17-31" d="M 1702 4058 
C 1702 4192 1696 4192 1606 4192 
C 1357 3916 979 3827 621 3827 
C 602 3827 570 3827 563 3808 
C 557 3795 557 3782 557 3648 
C 755 3648 1088 3686 1344 3839 
L 1344 461 
C 1344 236 1331 160 781 160 
L 589 160 
L 589 0 
C 896 0 1216 0 1523 0 
C 1830 0 2150 0 2458 0 
L 2458 160 
L 2266 160 
C 1715 160 1702 230 1702 458 
L 1702 4058 
z
" transform="scale(0.015625)"/>
       </defs>
       <use xlink:href="#CMR17-30" transform="scale(0.996264)"/>
       <use xlink:href="#CMMI12-3a" transform="translate(45.690477 0) scale(0.996264)"/>
       <use xlink:href="#CMR17-31" transform="translate(72.787654 0) scale(0.996264)"/>
       <use xlink:href="#CMR17-30" transform="translate(118.478131 0) scale(0.996264)"/>
      </g>
     </g>
    </g>
    <g id="xtick_3">
     <g id="line2d_3">
      <g>
       <use xlink:href="#m3385fdae1e" x="386.134947" y="646.272238" style="stroke: #000000; stroke-width: 0.8"/>
      </g>
     </g>
     <g id="text_3">
      <!-- $\mathdefault{0.15}$ -->
      <g transform="translate(368.0764 668.492931) scale(0.22 -0.22)">
       <use xlink:href="#CMR17-30" transform="scale(0.996264)"/>
       <use xlink:href="#CMMI12-3a" transform="translate(45.690477 0) scale(0.996264)"/>
       <use xlink:href="#CMR17-31" transform="translate(72.787654 0) scale(0.996264)"/>
       <use xlink:href="#CMR17-35" transform="translate(118.478131 0) scale(0.996264)"/>
      </g>
     </g>
    </g>
    <g id="xtick_4">
     <g id="line2d_4">
      <g>
       <use xlink:href="#m3385fdae1e" x="501.300361" y="646.272238" style="stroke: #000000; stroke-width: 0.8"/>
      </g>
     </g>
     <g id="text_4">
      <!-- $\mathdefault{0.20}$ -->
      <g transform="translate(483.241814 668.492931) scale(0.22 -0.22)">
       <defs>
        <path id="CMR17-32" d="M 2669 989 
L 2554 989 
C 2490 536 2438 459 2413 420 
C 2381 369 1920 369 1830 369 
L 602 369 
C 832 619 1280 1072 1824 1597 
C 2214 1967 2669 2402 2669 3035 
C 2669 3790 2067 4224 1395 4224 
C 691 4224 262 3604 262 3030 
C 262 2780 448 2748 525 2748 
C 589 2748 781 2787 781 3010 
C 781 3207 614 3264 525 3264 
C 486 3264 448 3258 422 3245 
C 544 3790 915 4058 1306 4058 
C 1862 4058 2227 3617 2227 3035 
C 2227 2479 1901 2000 1536 1584 
L 262 146 
L 262 0 
L 2515 0 
L 2669 989 
z
" transform="scale(0.015625)"/>
       </defs>
       <use xlink:href="#CMR17-30" transform="scale(0.996264)"/>
       <use xlink:href="#CMMI12-3a" transform="translate(45.690477 0) scale(0.996264)"/>
       <use xlink:href="#CMR17-32" transform="translate(72.787654 0) scale(0.996264)"/>
       <use xlink:href="#CMR17-30" transform="translate(118.478131 0) scale(0.996264)"/>
      </g>
     </g>
    </g>
    <g id="xtick_5">
     <g id="line2d_5">
      <g>
       <use xlink:href="#m3385fdae1e" x="616.465774" y="646.272238" style="stroke: #000000; stroke-width: 0.8"/>
      </g>
     </g>
     <g id="text_5">
      <!-- $\mathdefault{0.25}$ -->
      <g transform="translate(598.407227 668.492931) scale(0.22 -0.22)">
       <use xlink:href="#CMR17-30" transform="scale(0.996264)"/>
       <use xlink:href="#CMMI12-3a" transform="translate(45.690477 0) scale(0.996264)"/>
       <use xlink:href="#CMR17-32" transform="translate(72.787654 0) scale(0.996264)"/>
       <use xlink:href="#CMR17-35" transform="translate(118.478131 0) scale(0.996264)"/>
      </g>
     </g>
    </g>
    <g id="text_6">
     <!-- $p_0$ -->
     <g transform="translate(379.133346 691.976812) scale(0.22 -0.22)">
      <defs>
       <path id="CMMI12-70" d="M 275 -789 
C 230 -980 205 -1031 -58 -1031 
C -134 -1031 -198 -1031 -198 -1152 
C -198 -1165 -192 -1216 -122 -1216 
C -38 -1216 51 -1216 134 -1216 
L 410 -1216 
C 544 -1216 870 -1216 1005 -1216 
C 1043 -1216 1120 -1216 1120 -1101 
C 1120 -1031 1075 -1031 966 -1031 
C 672 -1031 653 -987 653 -937 
C 653 -861 941 219 979 364 
C 1050 185 1222 -64 1555 -64 
C 2278 -64 3059 875 3059 1814 
C 3059 2401 2726 2816 2246 2816 
C 1837 2816 1491 2420 1421 2331 
C 1370 2650 1120 2816 864 2816 
C 678 2816 531 2727 410 2484 
C 294 2254 205 1865 205 1839 
C 205 1814 230 1782 275 1782 
C 326 1782 333 1788 371 1935 
C 467 2312 589 2689 845 2689 
C 992 2689 1043 2587 1043 2397 
C 1043 2245 1024 2181 998 2067 
L 275 -789 
z
M 1382 1993 
C 1427 2171 1606 2357 1709 2446 
C 1779 2510 1990 2689 2234 2689 
C 2515 2689 2643 2408 2643 2076 
C 2643 1769 2464 1047 2304 715 
C 2144 370 1850 64 1555 64 
C 1120 64 1050 613 1050 639 
C 1050 658 1062 709 1069 741 
L 1382 1993 
z
" transform="scale(0.015625)"/>
      </defs>
      <use xlink:href="#CMMI12-70" transform="scale(0.996264)"/>
      <use xlink:href="#CMR17-30" transform="translate(48.959514 -14.943915) scale(0.697382)"/>
     </g>
    </g>
   </g>
   <g id="matplotlib.axis_2">
    <g id="ytick_1">
     <g id="line2d_6">
      <defs>
       <path id="ma600d9e374" d="M 0 0 
L -3.5 0 
" style="stroke: #000000; stroke-width: 0.8"/>
      </defs>
      <g>
       <use xlink:href="#ma600d9e374" x="80.30907" y="604.44427" style="stroke: #000000; stroke-width: 0.8"/>
      </g>
     </g>
     <g id="text_7">
      <!-- $\mathdefault{0.2}$ -->
      <g transform="translate(47.243881 612.054617) scale(0.22 -0.22)">
       <use xlink:href="#CMR17-30" transform="scale(0.996264)"/>
       <use xlink:href="#CMMI12-3a" transform="translate(45.690477 0) scale(0.996264)"/>
       <use xlink:href="#CMR17-32" transform="translate(72.787654 0) scale(0.996264)"/>
      </g>
     </g>
    </g>
    <g id="ytick_2">
     <g id="line2d_7">
      <g>
       <use xlink:href="#ma600d9e374" x="80.30907" y="526.846955" style="stroke: #000000; stroke-width: 0.8"/>
      </g>
     </g>
     <g id="text_8">
      <!-- $\mathdefault{0.3}$ -->
      <g transform="translate(47.243881 534.457302) scale(0.22 -0.22)">
       <defs>
        <path id="CMR17-33" d="M 1414 2157 
C 1984 2157 2234 1662 2234 1090 
C 2234 320 1824 25 1453 25 
C 1114 25 563 194 390 693 
C 422 680 454 680 486 680 
C 640 680 755 782 755 948 
C 755 1133 614 1216 486 1216 
C 378 1216 211 1165 211 926 
C 211 335 787 -128 1466 -128 
C 2176 -128 2720 430 2720 1085 
C 2720 1707 2208 2157 1600 2227 
C 2086 2328 2554 2756 2554 3329 
C 2554 3820 2048 4179 1472 4179 
C 890 4179 378 3829 378 3329 
C 378 3110 544 3072 627 3072 
C 762 3072 877 3155 877 3321 
C 877 3486 762 3569 627 3569 
C 602 3569 570 3569 544 3557 
C 730 3959 1235 4032 1459 4032 
C 1683 4032 2106 3925 2106 3320 
C 2106 3143 2080 2828 1862 2550 
C 1670 2304 1453 2304 1242 2284 
C 1210 2284 1062 2269 1037 2269 
C 992 2263 966 2257 966 2208 
C 966 2163 973 2157 1101 2157 
L 1414 2157 
z
" transform="scale(0.015625)"/>
       </defs>
       <use xlink:href="#CMR17-30" transform="scale(0.996264)"/>
       <use xlink:href="#CMMI12-3a" transform="translate(45.690477 0) scale(0.996264)"/>
       <use xlink:href="#CMR17-33" transform="translate(72.787654 0) scale(0.996264)"/>
      </g>
     </g>
    </g>
    <g id="ytick_3">
     <g id="line2d_8">
      <g>
       <use xlink:href="#ma600d9e374" x="80.30907" y="449.249641" style="stroke: #000000; stroke-width: 0.8"/>
      </g>
     </g>
     <g id="text_9">
      <!-- $\mathdefault{0.4}$ -->
      <g transform="translate(47.243881 456.859988) scale(0.22 -0.22)">
       <defs>
        <path id="CMR17-34" d="M 2150 4122 
C 2150 4256 2144 4256 2029 4256 
L 128 1254 
L 128 1088 
L 1779 1088 
L 1779 457 
C 1779 224 1766 160 1318 160 
L 1197 160 
L 1197 0 
C 1402 0 1747 0 1965 0 
C 2182 0 2528 0 2733 0 
L 2733 160 
L 2611 160 
C 2163 160 2150 224 2150 457 
L 2150 1088 
L 2803 1088 
L 2803 1254 
L 2150 1254 
L 2150 4122 
z
M 1798 3703 
L 1798 1254 
L 256 1254 
L 1798 3703 
z
" transform="scale(0.015625)"/>
       </defs>
       <use xlink:href="#CMR17-30" transform="scale(0.996264)"/>
       <use xlink:href="#CMMI12-3a" transform="translate(45.690477 0) scale(0.996264)"/>
       <use xlink:href="#CMR17-34" transform="translate(72.787654 0) scale(0.996264)"/>
      </g>
     </g>
    </g>
    <g id="ytick_4">
     <g id="line2d_9">
      <g>
       <use xlink:href="#ma600d9e374" x="80.30907" y="371.652327" style="stroke: #000000; stroke-width: 0.8"/>
      </g>
     </g>
     <g id="text_10">
      <!-- $\mathdefault{0.5}$ -->
      <g transform="translate(47.243881 379.262673) scale(0.22 -0.22)">
       <use xlink:href="#CMR17-30" transform="scale(0.996264)"/>
       <use xlink:href="#CMMI12-3a" transform="translate(45.690477 0) scale(0.996264)"/>
       <use xlink:href="#CMR17-35" transform="translate(72.787654 0) scale(0.996264)"/>
      </g>
     </g>
    </g>
    <g id="ytick_5">
     <g id="line2d_10">
      <g>
       <use xlink:href="#ma600d9e374" x="80.30907" y="294.055012" style="stroke: #000000; stroke-width: 0.8"/>
      </g>
     </g>
     <g id="text_11">
      <!-- $\mathdefault{0.6}$ -->
      <g transform="translate(47.243881 301.665359) scale(0.22 -0.22)">
       <defs>
        <path id="CMR17-36" d="M 678 2176 
C 678 3690 1395 4032 1811 4032 
C 1946 4032 2272 4009 2400 3776 
C 2298 3776 2106 3776 2106 3553 
C 2106 3381 2246 3323 2336 3323 
C 2394 3323 2566 3348 2566 3560 
C 2566 3954 2246 4179 1805 4179 
C 1043 4179 243 3390 243 1984 
C 243 253 966 -128 1478 -128 
C 2099 -128 2688 427 2688 1283 
C 2688 2081 2170 2662 1517 2662 
C 1126 2662 838 2407 678 1960 
L 678 2176 
z
M 1478 25 
C 691 25 691 1200 691 1436 
C 691 1896 909 2560 1504 2560 
C 1613 2560 1926 2560 2138 2120 
C 2253 1870 2253 1609 2253 1289 
C 2253 944 2253 690 2118 434 
C 1978 171 1773 25 1478 25 
z
" transform="scale(0.015625)"/>
       </defs>
       <use xlink:href="#CMR17-30" transform="scale(0.996264)"/>
       <use xlink:href="#CMMI12-3a" transform="translate(45.690477 0) scale(0.996264)"/>
       <use xlink:href="#CMR17-36" transform="translate(72.787654 0) scale(0.996264)"/>
      </g>
     </g>
    </g>
    <g id="ytick_6">
     <g id="line2d_11">
      <g>
       <use xlink:href="#ma600d9e374" x="80.30907" y="216.457698" style="stroke: #000000; stroke-width: 0.8"/>
      </g>
     </g>
     <g id="text_12">
      <!-- $\mathdefault{0.7}$ -->
      <g transform="translate(47.243881 224.068044) scale(0.22 -0.22)">
       <defs>
        <path id="CMR17-37" d="M 2886 3941 
L 2886 4081 
L 1382 4081 
C 634 4081 621 4165 595 4288 
L 480 4288 
L 294 3094 
L 410 3094 
C 429 3215 474 3540 550 3661 
C 589 3712 1062 3712 1171 3712 
L 2579 3712 
L 1869 2661 
C 1395 1954 1069 999 1069 165 
C 1069 89 1069 -128 1299 -128 
C 1530 -128 1530 89 1530 171 
L 1530 465 
C 1530 1508 1709 2196 2003 2636 
L 2886 3941 
z
" transform="scale(0.015625)"/>
       </defs>
       <use xlink:href="#CMR17-30" transform="scale(0.996264)"/>
       <use xlink:href="#CMMI12-3a" transform="translate(45.690477 0) scale(0.996264)"/>
       <use xlink:href="#CMR17-37" transform="translate(72.787654 0) scale(0.996264)"/>
      </g>
     </g>
    </g>
    <g id="ytick_7">
     <g id="line2d_12">
      <g>
       <use xlink:href="#ma600d9e374" x="80.30907" y="138.860383" style="stroke: #000000; stroke-width: 0.8"/>
      </g>
     </g>
     <g id="text_13">
      <!-- $\mathdefault{0.8}$ -->
      <g transform="translate(47.243881 146.47073) scale(0.22 -0.22)">
       <defs>
        <path id="CMR17-38" d="M 1741 2264 
C 2144 2467 2554 2773 2554 3263 
C 2554 3841 1990 4179 1472 4179 
C 890 4179 378 3759 378 3180 
C 378 3021 416 2747 666 2505 
C 730 2442 998 2251 1171 2130 
C 883 1983 211 1634 211 934 
C 211 279 838 -128 1459 -128 
C 2144 -128 2720 362 2720 1010 
C 2720 1590 2330 1857 2074 2029 
L 1741 2264 
z
M 902 2822 
C 851 2854 595 3051 595 3351 
C 595 3739 998 4032 1459 4032 
C 1965 4032 2336 3676 2336 3262 
C 2336 2669 1670 2331 1638 2331 
C 1632 2331 1626 2331 1574 2370 
L 902 2822 
z
M 2080 1519 
C 2176 1449 2483 1240 2483 851 
C 2483 381 2010 25 1472 25 
C 890 25 448 438 448 940 
C 448 1443 838 1862 1280 2060 
L 2080 1519 
z
" transform="scale(0.015625)"/>
       </defs>
       <use xlink:href="#CMR17-30" transform="scale(0.996264)"/>
       <use xlink:href="#CMMI12-3a" transform="translate(45.690477 0) scale(0.996264)"/>
       <use xlink:href="#CMR17-38" transform="translate(72.787654 0) scale(0.996264)"/>
      </g>
     </g>
    </g>
    <g id="ytick_8">
     <g id="line2d_13">
      <g>
       <use xlink:href="#ma600d9e374" x="80.30907" y="61.263069" style="stroke: #000000; stroke-width: 0.8"/>
      </g>
     </g>
     <g id="text_14">
      <!-- $\mathdefault{0.9}$ -->
      <g transform="translate(47.243881 68.873415) scale(0.22 -0.22)">
       <defs>
        <path id="CMR17-39" d="M 2253 1864 
C 2253 464 1670 31 1190 31 
C 1043 31 685 31 538 294 
C 704 268 826 357 826 518 
C 826 692 685 749 595 749 
C 538 749 365 723 365 506 
C 365 71 742 -128 1203 -128 
C 1939 -128 2688 674 2688 2073 
C 2688 3817 1971 4179 1485 4179 
C 851 4179 243 3628 243 2778 
C 243 1991 762 1408 1414 1408 
C 1952 1408 2189 1903 2253 2112 
L 2253 1864 
z
M 1427 1510 
C 1254 1510 1011 1542 813 1922 
C 678 2169 678 2461 678 2771 
C 678 3146 678 3405 858 3684 
C 947 3817 1114 4032 1485 4032 
C 2240 4032 2240 2885 2240 2632 
C 2240 2182 2035 1510 1427 1510 
z
" transform="scale(0.015625)"/>
       </defs>
       <use xlink:href="#CMR17-30" transform="scale(0.996264)"/>
       <use xlink:href="#CMMI12-3a" transform="translate(45.690477 0) scale(0.996264)"/>
       <use xlink:href="#CMR17-39" transform="translate(72.787654 0) scale(0.996264)"/>
      </g>
     </g>
    </g>
    <g id="text_15">
     <!-- $p_2$ -->
     <g transform="translate(38.980693 344.157308) rotate(-90) scale(0.22 -0.22)">
      <use xlink:href="#CMMI12-70" transform="scale(0.996264)"/>
      <use xlink:href="#CMR17-32" transform="translate(48.959514 -14.943915) scale(0.697382)"/>
     </g>
    </g>
   </g>
   <g id="patch_3">
    <path d="M 80.30907 646.272238 
L 80.30907 23.76 
" style="fill: none; stroke: #000000; stroke-width: 0.8; stroke-linejoin: miter; stroke-linecap: square"/>
   </g>
   <g id="patch_4">
    <path d="M 696.24 646.272238 
L 696.24 23.76 
" style="fill: none; stroke: #000000; stroke-width: 0.8; stroke-linejoin: miter; stroke-linecap: square"/>
   </g>
   <g id="patch_5">
    <path d="M 80.30907 646.272238 
L 696.24 646.272238 
" style="fill: none; stroke: #000000; stroke-width: 0.8; stroke-linejoin: miter; stroke-linecap: square"/>
   </g>
   <g id="patch_6">
    <path d="M 80.30907 23.76 
L 696.24 23.76 
" style="fill: none; stroke: #000000; stroke-width: 0.8; stroke-linejoin: miter; stroke-linecap: square"/>
   </g>
   <g id="legend_1">
    <g id="patch_7">
     <path d="M 580.284285 194.675939 
L 680.84 194.675939 
Q 685.24 194.675939 685.24 190.275939 
L 685.24 39.16 
Q 685.24 34.76 680.84 34.76 
L 580.284285 34.76 
Q 575.884285 34.76 575.884285 39.16 
L 575.884285 190.275939 
Q 575.884285 194.675939 580.284285 194.675939 
z
" style="fill: #ffffff; opacity: 0.8; stroke: #cccccc; stroke-linejoin: miter"/>
    </g>
    <g id="PathCollection_7">
     <defs>
      <path id="mc5695e855f" d="M 0 3 
C 0.795609 3 1.55874 2.683901 2.12132 2.12132 
C 2.683901 1.55874 3 0.795609 3 0 
C 3 -0.795609 2.683901 -1.55874 2.12132 -2.12132 
C 1.55874 -2.683901 0.795609 -3 0 -3 
C -0.795609 -3 -1.55874 -2.683901 -2.12132 -2.12132 
C -2.683901 -1.55874 -3 -0.795609 -3 0 
C -3 0.795609 -2.683901 1.55874 -2.12132 2.12132 
C -1.55874 2.683901 -0.795609 3 0 3 
z
" style="stroke: #7b9ff9"/>
     </defs>
     <g>
      <use xlink:href="#mc5695e855f" x="606.684285" y="53.185" style="fill: #7b9ff9; stroke: #7b9ff9"/>
     </g>
    </g>
    <g id="text_16">
     <!-- $\mathdefault{20}$ -->
     <g transform="translate(646.284285 58.96) scale(0.22 -0.22)">
      <use xlink:href="#CMR17-32" transform="scale(0.996264)"/>
      <use xlink:href="#CMR17-30" transform="translate(45.690477 0) scale(0.996264)"/>
     </g>
    </g>
    <g id="PathCollection_8">
     <defs>
      <path id="m71d4cc05f4" d="M 0 3 
C 0.795609 3 1.55874 2.683901 2.12132 2.12132 
C 2.683901 1.55874 3 0.795609 3 0 
C 3 -0.795609 2.683901 -1.55874 2.12132 -2.12132 
C 1.55874 -2.683901 0.795609 -3 0 -3 
C -0.795609 -3 -1.55874 -2.683901 -2.12132 -2.12132 
C -2.683901 -1.55874 -3 -0.795609 -3 0 
C -3 0.795609 -2.683901 1.55874 -2.12132 2.12132 
C -1.55874 2.683901 -0.795609 3 0 3 
z
" style="stroke: #c0d4f5"/>
     </defs>
     <g>
      <use xlink:href="#m71d4cc05f4" x="606.684285" y="83.848188" style="fill: #c0d4f5; stroke: #c0d4f5"/>
     </g>
    </g>
    <g id="text_17">
     <!-- $\mathdefault{40}$ -->
     <g transform="translate(646.284285 89.623188) scale(0.22 -0.22)">
      <use xlink:href="#CMR17-34" transform="scale(0.996264)"/>
      <use xlink:href="#CMR17-30" transform="translate(45.690477 0) scale(0.996264)"/>
     </g>
    </g>
    <g id="PathCollection_9">
     <defs>
      <path id="m7c621630a3" d="M 0 3 
C 0.795609 3 1.55874 2.683901 2.12132 2.12132 
C 2.683901 1.55874 3 0.795609 3 0 
C 3 -0.795609 2.683901 -1.55874 2.12132 -2.12132 
C 1.55874 -2.683901 0.795609 -3 0 -3 
C -0.795609 -3 -1.55874 -2.683901 -2.12132 -2.12132 
C -2.683901 -1.55874 -3 -0.795609 -3 0 
C -3 0.795609 -2.683901 1.55874 -2.12132 2.12132 
C -1.55874 2.683901 -0.795609 3 0 3 
z
" style="stroke: #f2cbb7"/>
     </defs>
     <g>
      <use xlink:href="#m7c621630a3" x="606.684285" y="114.511376" style="fill: #f2cbb7; stroke: #f2cbb7"/>
     </g>
    </g>
    <g id="text_18">
     <!-- $\mathdefault{60}$ -->
     <g transform="translate(646.284285 120.286376) scale(0.22 -0.22)">
      <use xlink:href="#CMR17-36" transform="scale(0.996264)"/>
      <use xlink:href="#CMR17-30" transform="translate(45.690477 0) scale(0.996264)"/>
     </g>
    </g>
    <g id="PathCollection_10">
     <defs>
      <path id="md4a170f168" d="M 0 3 
C 0.795609 3 1.55874 2.683901 2.12132 2.12132 
C 2.683901 1.55874 3 0.795609 3 0 
C 3 -0.795609 2.683901 -1.55874 2.12132 -2.12132 
C 1.55874 -2.683901 0.795609 -3 0 -3 
C -0.795609 -3 -1.55874 -2.683901 -2.12132 -2.12132 
C -2.683901 -1.55874 -3 -0.795609 -3 0 
C -3 0.795609 -2.683901 1.55874 -2.12132 2.12132 
C -1.55874 2.683901 -0.795609 3 0 3 
z
" style="stroke: #ee8468"/>
     </defs>
     <g>
      <use xlink:href="#md4a170f168" x="606.684285" y="145.174564" style="fill: #ee8468; stroke: #ee8468"/>
     </g>
    </g>
    <g id="text_19">
     <!-- $\mathdefault{80}$ -->
     <g transform="translate(646.284285 150.949564) scale(0.22 -0.22)">
      <use xlink:href="#CMR17-38" transform="scale(0.996264)"/>
      <use xlink:href="#CMR17-30" transform="translate(45.690477 0) scale(0.996264)"/>
     </g>
    </g>
    <g id="PathCollection_11">
     <defs>
      <path id="m8a48f459e4" d="M 0 3 
C 0.795609 3 1.55874 2.683901 2.12132 2.12132 
C 2.683901 1.55874 3 0.795609 3 0 
C 3 -0.795609 2.683901 -1.55874 2.12132 -2.12132 
C 1.55874 -2.683901 0.795609 -3 0 -3 
C -0.795609 -3 -1.55874 -2.683901 -2.12132 -2.12132 
C -2.683901 -1.55874 -3 -0.795609 -3 0 
C -3 0.795609 -2.683901 1.55874 -2.12132 2.12132 
C -1.55874 2.683901 -0.795609 3 0 3 
z
" style="stroke: #b40426"/>
     </defs>
     <g>
      <use xlink:href="#m8a48f459e4" x="606.684285" y="175.837751" style="fill: #b40426; stroke: #b40426"/>
     </g>
    </g>
    <g id="text_20">
     <!-- $\mathdefault{100}$ -->
     <g transform="translate(646.284285 181.612751) scale(0.22 -0.22)">
      <use xlink:href="#CMR17-31" transform="scale(0.996264)"/>
      <use xlink:href="#CMR17-30" transform="translate(45.690477 0) scale(0.996264)"/>
      <use xlink:href="#CMR17-30" transform="translate(91.380954 0) scale(0.996264)"/>
     </g>
    </g>
   </g>
  </g>
 </g>
 <defs>
  <clipPath id="pbe968ad550">
   <rect x="80.30907" y="23.76" width="615.93093" height="622.512238"/>
  </clipPath>
 </defs>
</svg>
