<?xml version="1.0" encoding="utf-8" standalone="no"?>
<!DOCTYPE svg PUBLIC "-//W3C//DTD SVG 1.1//EN"
  "http://www.w3.org/Graphics/SVG/1.1/DTD/svg11.dtd">
<svg xmlns:xlink="http://www.w3.org/1999/xlink" width="720pt" height="720pt" viewBox="0 0 720 720" xmlns="http://www.w3.org/2000/svg" version="1.1">
 <metadata>
  <rdf:RDF xmlns:dc="http://purl.org/dc/elements/1.1/" xmlns:cc="http://creativecommons.org/ns#" xmlns:rdf="http://www.w3.org/1999/02/22-rdf-syntax-ns#">
   <cc:Work>
    <dc:type rdf:resource="http://purl.org/dc/dcmitype/StillImage"/>
    <dc:date>2022-11-02T15:36:26.775552</dc:date>
    <dc:format>image/svg+xml</dc:format>
    <dc:creator>
     <cc:Agent>
      <dc:title>Matplotlib v3.6.0, https://matplotlib.org/</dc:title>
     </cc:Agent>
    </dc:creator>
   </cc:Work>
  </rdf:RDF>
 </metadata>
 <defs>
  <style type="text/css">*{stroke-linejoin: round; stroke-linecap: butt}</style>
 </defs>
 <g id="figure_1">
  <g id="patch_1">
   <path d="M 0 720 
L 720 720 
L 720 0 
L 0 0 
z
" style="fill: #ffffff"/>
  </g>
  <g id="axes_1">
   <g id="patch_2">
    <path d="M 90.360975 646.272238 
L 696.24 646.272238 
L 696.24 23.76 
L 90.360975 23.76 
z
" style="fill: #ffffff"/>
   </g>
   <g id="PathCollection_1">
    <defs>
     <path id="C0_0_28e711b086" d="M 0 3 
C 0.795609 3 1.55874 2.683901 2.12132 2.12132 
C 2.683901 1.55874 3 0.795609 3 -0 
C 3 -0.795609 2.683901 -1.55874 2.12132 -2.12132 
C 1.55874 -2.683901 0.795609 -3 0 -3 
C -0.795609 -3 -1.55874 -2.683901 -2.12132 -2.12132 
C -2.683901 -1.55874 -3 -0.795609 -3 0 
C -3 0.795609 -2.683901 1.55874 -2.12132 2.12132 
C -1.55874 2.683901 -0.795609 3 0 3 
z
"/>
    </defs>
    <g clip-path="url(#p6e8a65a8e8)">
     <use xlink:href="#C0_0_28e711b086" x="668.700044" y="52.056011" style="fill: #3b4cc0"/>
    </g>
    <g clip-path="url(#p6e8a65a8e8)">
     <use xlink:href="#C0_0_28e711b086" x="667.73119" y="53.051464" style="fill: #3b4cc0"/>
    </g>
    <g clip-path="url(#p6e8a65a8e8)">
     <use xlink:href="#C0_0_28e711b086" x="666.671765" y="54.139973" style="fill: #3b4cc0"/>
    </g>
    <g clip-path="url(#p6e8a65a8e8)">
     <use xlink:href="#C0_0_28e711b086" x="665.513708" y="55.329822" style="fill: #3b4cc0"/>
    </g>
    <g clip-path="url(#p6e8a65a8e8)">
     <use xlink:href="#C0_0_28e711b086" x="664.24832" y="56.629948" style="fill: #3b4cc0"/>
    </g>
    <g clip-path="url(#p6e8a65a8e8)">
     <use xlink:href="#C0_0_28e711b086" x="662.866232" y="58.049979" style="fill: #3b4cc0"/>
    </g>
    <g clip-path="url(#p6e8a65a8e8)">
     <use xlink:href="#C0_0_28e711b086" x="661.357369" y="59.600265" style="fill: #3b4cc0"/>
    </g>
    <g clip-path="url(#p6e8a65a8e8)">
     <use xlink:href="#C0_0_28e711b086" x="659.710923" y="61.291911" style="fill: #3b4cc0"/>
    </g>
    <g clip-path="url(#p6e8a65a8e8)">
     <use xlink:href="#C0_0_28e711b086" x="657.915324" y="63.136804" style="fill: #3b4cc0"/>
    </g>
    <g clip-path="url(#p6e8a65a8e8)">
     <use xlink:href="#C0_0_28e711b086" x="655.958223" y="65.147634" style="fill: #3b4cc0"/>
    </g>
    <g clip-path="url(#p6e8a65a8e8)">
     <use xlink:href="#C0_0_28e711b086" x="653.826468" y="67.337911" style="fill: #3b4cc0"/>
    </g>
    <g clip-path="url(#p6e8a65a8e8)">
     <use xlink:href="#C0_0_28e711b086" x="651.506109" y="69.721971" style="fill: #3b4cc0"/>
    </g>
    <g clip-path="url(#p6e8a65a8e8)">
     <use xlink:href="#C0_0_28e711b086" x="648.982392" y="72.314972" style="fill: #3b4cc0"/>
    </g>
    <g clip-path="url(#p6e8a65a8e8)">
     <use xlink:href="#C0_0_28e711b086" x="646.23978" y="75.132877" style="fill: #3b4cc0"/>
    </g>
    <g clip-path="url(#p6e8a65a8e8)">
     <use xlink:href="#C0_0_28e711b086" x="643.261985" y="78.192422" style="fill: #3b4cc0"/>
    </g>
    <g clip-path="url(#p6e8a65a8e8)">
     <use xlink:href="#C0_0_28e711b086" x="640.032014" y="81.511066" style="fill: #3b4cc0"/>
    </g>
    <g clip-path="url(#p6e8a65a8e8)">
     <use xlink:href="#C0_0_28e711b086" x="636.532245" y="85.106914" style="fill: #3b4cc0"/>
    </g>
    <g clip-path="url(#p6e8a65a8e8)">
     <use xlink:href="#C0_0_28e711b086" x="632.744519" y="88.998625" style="fill: #3b4cc0"/>
    </g>
    <g clip-path="url(#p6e8a65a8e8)">
     <use xlink:href="#C0_0_28e711b086" x="628.650264" y="93.205279" style="fill: #3b4cc0"/>
    </g>
    <g clip-path="url(#p6e8a65a8e8)">
     <use xlink:href="#C0_0_28e711b086" x="624.230648" y="97.746226" style="fill: #3b4cc0"/>
    </g>
    <g clip-path="url(#p6e8a65a8e8)">
     <use xlink:href="#C0_0_28e711b086" x="619.46677" y="102.640888" style="fill: #3b4cc0"/>
    </g>
    <g clip-path="url(#p6e8a65a8e8)">
     <use xlink:href="#C0_0_28e711b086" x="614.339876" y="107.90853" style="fill: #3b4cc0"/>
    </g>
    <g clip-path="url(#p6e8a65a8e8)">
     <use xlink:href="#C0_0_28e711b086" x="608.831631" y="113.567993" style="fill: #3b4cc0"/>
    </g>
    <g clip-path="url(#p6e8a65a8e8)">
     <use xlink:href="#C0_0_28e711b086" x="602.924412" y="119.637383" style="fill: #3b4cc0"/>
    </g>
    <g clip-path="url(#p6e8a65a8e8)">
     <use xlink:href="#C0_0_28e711b086" x="596.601654" y="126.13372" style="fill: #3b4cc0"/>
    </g>
    <g clip-path="url(#p6e8a65a8e8)">
     <use xlink:href="#C0_0_28e711b086" x="589.848227" y="133.072549" style="fill: #3b4cc0"/>
    </g>
    <g clip-path="url(#p6e8a65a8e8)">
     <use xlink:href="#C0_0_28e711b086" x="582.650845" y="140.467521" style="fill: #3b4cc0"/>
    </g>
    <g clip-path="url(#p6e8a65a8e8)">
     <use xlink:href="#C0_0_28e711b086" x="574.998512" y="148.329933" style="fill: #3b4cc0"/>
    </g>
    <g clip-path="url(#p6e8a65a8e8)">
     <use xlink:href="#C0_0_28e711b086" x="566.882976" y="156.668265" style="fill: #3b4cc0"/>
    </g>
    <g clip-path="url(#p6e8a65a8e8)">
     <use xlink:href="#C0_0_28e711b086" x="558.299202" y="165.48769" style="fill: #3b4cc0"/>
    </g>
    <g clip-path="url(#p6e8a65a8e8)">
     <use xlink:href="#C0_0_28e711b086" x="549.245835" y="174.789599" style="fill: #3b4cc0"/>
    </g>
    <g clip-path="url(#p6e8a65a8e8)">
     <use xlink:href="#C0_0_28e711b086" x="539.725646" y="184.571147" style="fill: #3b4cc0"/>
    </g>
    <g clip-path="url(#p6e8a65a8e8)">
     <use xlink:href="#C0_0_28e711b086" x="529.745936" y="194.82483" style="fill: #3b4cc0"/>
    </g>
    <g clip-path="url(#p6e8a65a8e8)">
     <use xlink:href="#C0_0_28e711b086" x="519.318886" y="205.538134" style="fill: #3b4cc0"/>
    </g>
    <g clip-path="url(#p6e8a65a8e8)">
     <use xlink:href="#C0_0_28e711b086" x="508.461825" y="216.693254" style="fill: #3b4cc0"/>
    </g>
    <g clip-path="url(#p6e8a65a8e8)">
     <use xlink:href="#C0_0_28e711b086" x="497.197404" y="228.266917" style="fill: #3b4cc0"/>
    </g>
    <g clip-path="url(#p6e8a65a8e8)">
     <use xlink:href="#C0_0_28e711b086" x="485.553649" y="240.230329" style="fill: #3b4cc0"/>
    </g>
    <g clip-path="url(#p6e8a65a8e8)">
     <use xlink:href="#C0_0_28e711b086" x="473.563884" y="252.549249" style="fill: #3b4cc0"/>
    </g>
    <g clip-path="url(#p6e8a65a8e8)">
     <use xlink:href="#C0_0_28e711b086" x="461.266513" y="265.18422" style="fill: #3b4cc0"/>
    </g>
    <g clip-path="url(#p6e8a65a8e8)">
     <use xlink:href="#C0_0_28e711b086" x="448.704655" y="278.09094" style="fill: #3c4ec2"/>
    </g>
    <g clip-path="url(#p6e8a65a8e8)">
     <use xlink:href="#C0_0_28e711b086" x="435.925627" y="291.22079" style="fill: #3c4ec2"/>
    </g>
    <g clip-path="url(#p6e8a65a8e8)">
     <use xlink:href="#C0_0_28e711b086" x="422.980302" y="304.521503" style="fill: #3c4ec2"/>
    </g>
    <g clip-path="url(#p6e8a65a8e8)">
     <use xlink:href="#C0_0_28e711b086" x="409.922334" y="317.937953" style="fill: #3c4ec2"/>
    </g>
    <g clip-path="url(#p6e8a65a8e8)">
     <use xlink:href="#C0_0_28e711b086" x="396.807291" y="331.413043" style="fill: #3c4ec2"/>
    </g>
    <g clip-path="url(#p6e8a65a8e8)">
     <use xlink:href="#C0_0_28e711b086" x="383.691724" y="344.888672" style="fill: #3c4ec2"/>
    </g>
    <g clip-path="url(#p6e8a65a8e8)">
     <use xlink:href="#C0_0_28e711b086" x="370.632192" y="358.306728" style="fill: #3c4ec2"/>
    </g>
    <g clip-path="url(#p6e8a65a8e8)">
     <use xlink:href="#C0_0_28e711b086" x="357.68429" y="371.610088" style="fill: #3d50c3"/>
    </g>
    <g clip-path="url(#p6e8a65a8e8)">
     <use xlink:href="#C0_0_28e711b086" x="344.901717" y="384.743582" style="fill: #3d50c3"/>
    </g>
    <g clip-path="url(#p6e8a65a8e8)">
     <use xlink:href="#C0_0_28e711b086" x="332.335403" y="397.65488" style="fill: #3d50c3"/>
    </g>
    <g clip-path="url(#p6e8a65a8e8)">
     <use xlink:href="#C0_0_28e711b086" x="320.032737" y="410.29529" style="fill: #3d50c3"/>
    </g>
    <g clip-path="url(#p6e8a65a8e8)">
     <use xlink:href="#C0_0_28e711b086" x="308.036922" y="422.620427" style="fill: #3d50c3"/>
    </g>
    <g clip-path="url(#p6e8a65a8e8)">
     <use xlink:href="#C0_0_28e711b086" x="296.386452" y="434.590738" style="fill: #3e51c5"/>
    </g>
    <g clip-path="url(#p6e8a65a8e8)">
     <use xlink:href="#C0_0_28e711b086" x="285.114748" y="446.171885" style="fill: #3e51c5"/>
    </g>
    <g clip-path="url(#p6e8a65a8e8)">
     <use xlink:href="#C0_0_28e711b086" x="274.249934" y="457.33497" style="fill: #3e51c5"/>
    </g>
    <g clip-path="url(#p6e8a65a8e8)">
     <use xlink:href="#C0_0_28e711b086" x="263.814761" y="468.05662" style="fill: #3f53c6"/>
    </g>
    <g clip-path="url(#p6e8a65a8e8)">
     <use xlink:href="#C0_0_28e711b086" x="253.826655" y="478.31893" style="fill: #3f53c6"/>
    </g>
    <g clip-path="url(#p6e8a65a8e8)">
     <use xlink:href="#C0_0_28e711b086" x="244.297889" y="488.109289" style="fill: #4055c8"/>
    </g>
    <g clip-path="url(#p6e8a65a8e8)">
     <use xlink:href="#C0_0_28e711b086" x="235.235854" y="497.420105" style="fill: #4055c8"/>
    </g>
    <g clip-path="url(#p6e8a65a8e8)">
     <use xlink:href="#C0_0_28e711b086" x="226.643399" y="506.248449" style="fill: #4257c9"/>
    </g>
    <g clip-path="url(#p6e8a65a8e8)">
     <use xlink:href="#C0_0_28e711b086" x="218.519242" y="514.595639" style="fill: #4257c9"/>
    </g>
    <g clip-path="url(#p6e8a65a8e8)">
     <use xlink:href="#C0_0_28e711b086" x="210.858411" y="522.466782" style="fill: #4358cb"/>
    </g>
    <g clip-path="url(#p6e8a65a8e8)">
     <use xlink:href="#C0_0_28e711b086" x="203.652711" y="529.870301" style="fill: #445acc"/>
    </g>
    <g clip-path="url(#p6e8a65a8e8)">
     <use xlink:href="#C0_0_28e711b086" x="196.89119" y="536.817445" style="fill: #445acc"/>
    </g>
    <g clip-path="url(#p6e8a65a8e8)">
     <use xlink:href="#C0_0_28e711b086" x="190.560603" y="543.321826" style="fill: #455cce"/>
    </g>
    <g clip-path="url(#p6e8a65a8e8)">
     <use xlink:href="#C0_0_28e711b086" x="184.645849" y="549.398959" style="fill: #465ecf"/>
    </g>
    <g clip-path="url(#p6e8a65a8e8)">
     <use xlink:href="#C0_0_28e711b086" x="179.130385" y="555.065839" style="fill: #485fd1"/>
    </g>
    <g clip-path="url(#p6e8a65a8e8)">
     <use xlink:href="#C0_0_28e711b086" x="173.996606" y="560.340556" style="fill: #4a63d3"/>
    </g>
    <g clip-path="url(#p6e8a65a8e8)">
     <use xlink:href="#C0_0_28e711b086" x="169.226185" y="565.241939" style="fill: #4b64d5"/>
    </g>
    <g clip-path="url(#p6e8a65a8e8)">
     <use xlink:href="#C0_0_28e711b086" x="164.800377" y="569.789249" style="fill: #4c66d6"/>
    </g>
    <g clip-path="url(#p6e8a65a8e8)">
     <use xlink:href="#C0_0_28e711b086" x="160.700279" y="574.001907" style="fill: #4f69d9"/>
    </g>
    <g clip-path="url(#p6e8a65a8e8)">
     <use xlink:href="#C0_0_28e711b086" x="156.907055" y="577.899266" style="fill: #506bda"/>
    </g>
    <g clip-path="url(#p6e8a65a8e8)">
     <use xlink:href="#C0_0_28e711b086" x="153.402129" y="581.500413" style="fill: #536edd"/>
    </g>
    <g clip-path="url(#p6e8a65a8e8)">
     <use xlink:href="#C0_0_28e711b086" x="150.167332" y="584.824015" style="fill: #5572df"/>
    </g>
    <g clip-path="url(#p6e8a65a8e8)">
     <use xlink:href="#C0_0_28e711b086" x="147.185031" y="587.88819" style="fill: #5875e1"/>
    </g>
    <g clip-path="url(#p6e8a65a8e8)">
     <use xlink:href="#C0_0_28e711b086" x="144.438221" y="590.710407" style="fill: #5b7ae5"/>
    </g>
    <g clip-path="url(#p6e8a65a8e8)">
     <use xlink:href="#C0_0_28e711b086" x="141.910601" y="593.307419" style="fill: #5f7fe8"/>
    </g>
    <g clip-path="url(#p6e8a65a8e8)">
     <use xlink:href="#C0_0_28e711b086" x="139.586619" y="595.695201" style="fill: #6384eb"/>
    </g>
    <g clip-path="url(#p6e8a65a8e8)">
     <use xlink:href="#C0_0_28e711b086" x="137.451507" y="597.888928" style="fill: #6788ee"/>
    </g>
    <g clip-path="url(#p6e8a65a8e8)">
     <use xlink:href="#C0_0_28e711b086" x="135.491298" y="599.902951" style="fill: #6b8df0"/>
    </g>
    <g clip-path="url(#p6e8a65a8e8)">
     <use xlink:href="#C0_0_28e711b086" x="133.692828" y="601.750794" style="fill: #7093f3"/>
    </g>
    <g clip-path="url(#p6e8a65a8e8)">
     <use xlink:href="#C0_0_28e711b086" x="132.043732" y="603.445163" style="fill: #7699f6"/>
    </g>
    <g clip-path="url(#p6e8a65a8e8)">
     <use xlink:href="#C0_0_28e711b086" x="130.532426" y="604.997959" style="fill: #7da0f9"/>
    </g>
    <g clip-path="url(#p6e8a65a8e8)">
     <use xlink:href="#C0_0_28e711b086" x="129.148088" y="606.420301" style="fill: #84a7fc"/>
    </g>
    <g clip-path="url(#p6e8a65a8e8)">
     <use xlink:href="#C0_0_28e711b086" x="127.88063" y="607.722555" style="fill: #8caffe"/>
    </g>
    <g clip-path="url(#p6e8a65a8e8)">
     <use xlink:href="#C0_0_28e711b086" x="126.72067" y="608.914359" style="fill: #94b6ff"/>
    </g>
    <g clip-path="url(#p6e8a65a8e8)">
     <use xlink:href="#C0_0_28e711b086" x="125.659496" y="610.004665" style="fill: #9ebeff"/>
    </g>
    <g clip-path="url(#p6e8a65a8e8)">
     <use xlink:href="#C0_0_28e711b086" x="124.689037" y="611.001767" style="fill: #a7c5fe"/>
    </g>
    <g clip-path="url(#p6e8a65a8e8)">
     <use xlink:href="#C0_0_28e711b086" x="123.801821" y="611.91334" style="fill: #b2ccfb"/>
    </g>
    <g clip-path="url(#p6e8a65a8e8)">
     <use xlink:href="#C0_0_28e711b086" x="122.990945" y="612.746476" style="fill: #bed2f6"/>
    </g>
    <g clip-path="url(#p6e8a65a8e8)">
     <use xlink:href="#C0_0_28e711b086" x="122.25004" y="613.507721" style="fill: #cad8ef"/>
    </g>
    <g clip-path="url(#p6e8a65a8e8)">
     <use xlink:href="#C0_0_28e711b086" x="121.573233" y="614.203109" style="fill: #d6dce4"/>
    </g>
    <g clip-path="url(#p6e8a65a8e8)">
     <use xlink:href="#C0_0_28e711b086" x="120.955117" y="614.838194" style="fill: #e2dad5"/>
    </g>
    <g clip-path="url(#p6e8a65a8e8)">
     <use xlink:href="#C0_0_28e711b086" x="120.390717" y="615.418088" style="fill: #edd1c2"/>
    </g>
    <g clip-path="url(#p6e8a65a8e8)">
     <use xlink:href="#C0_0_28e711b086" x="119.875462" y="615.947489" style="fill: #f5c4ac"/>
    </g>
    <g clip-path="url(#p6e8a65a8e8)">
     <use xlink:href="#C0_0_28e711b086" x="119.405152" y="616.43071" style="fill: #f7b093"/>
    </g>
    <g clip-path="url(#p6e8a65a8e8)">
     <use xlink:href="#C0_0_28e711b086" x="118.975934" y="616.871711" style="fill: #f39778"/>
    </g>
    <g clip-path="url(#p6e8a65a8e8)">
     <use xlink:href="#C0_0_28e711b086" x="118.584272" y="617.274125" style="fill: #e8765c"/>
    </g>
    <g clip-path="url(#p6e8a65a8e8)">
     <use xlink:href="#C0_0_28e711b086" x="118.226927" y="617.641281" style="fill: #d24b40"/>
    </g>
    <g clip-path="url(#p6e8a65a8e8)">
     <use xlink:href="#C0_0_28e711b086" x="117.900931" y="617.976227" style="fill: #b40426"/>
    </g>
   </g>
   <g id="PathCollection_2"/>
   <g id="PathCollection_3"/>
   <g id="PathCollection_4"/>
   <g id="PathCollection_5"/>
   <g id="PathCollection_6"/>
   <g id="matplotlib.axis_1">
    <g id="xtick_1">
     <g id="line2d_1">
      <defs>
       <path id="m3385fdae1e" d="M 0 0 
L 0 3.5 
" style="stroke: #000000; stroke-width: 0.8"/>
      </defs>
      <g>
       <use xlink:href="#m3385fdae1e" x="114.535317" y="646.272238" style="stroke: #000000; stroke-width: 0.8"/>
      </g>
     </g>
     <g id="text_1">
      <!-- $\mathdefault{0.20}$ -->
      <g transform="translate(96.47677 668.492931) scale(0.22 -0.22)">
       <defs>
        <path id="CMR17-30" d="M 2688 2025 
C 2688 2416 2682 3080 2413 3591 
C 2176 4039 1798 4198 1466 4198 
C 1158 4198 768 4058 525 3597 
C 269 3118 243 2524 243 2025 
C 243 1661 250 1106 448 619 
C 723 -39 1216 -128 1466 -128 
C 1760 -128 2208 -7 2470 600 
C 2662 1042 2688 1559 2688 2025 
z
M 1466 -26 
C 1056 -26 813 325 723 812 
C 653 1188 653 1738 653 2096 
C 653 2588 653 2997 736 3387 
C 858 3929 1216 4096 1466 4096 
C 1728 4096 2067 3923 2189 3400 
C 2272 3036 2278 2607 2278 2096 
C 2278 1680 2278 1169 2202 792 
C 2067 95 1690 -26 1466 -26 
z
" transform="scale(0.015625)"/>
        <path id="CMMI12-3a" d="M 1178 307 
C 1178 492 1024 619 870 619 
C 685 619 557 466 557 313 
C 557 128 710 0 864 0 
C 1050 0 1178 153 1178 307 
z
" transform="scale(0.015625)"/>
        <path id="CMR17-32" d="M 2669 989 
L 2554 989 
C 2490 536 2438 459 2413 420 
C 2381 369 1920 369 1830 369 
L 602 369 
C 832 619 1280 1072 1824 1597 
C 2214 1967 2669 2402 2669 3035 
C 2669 3790 2067 4224 1395 4224 
C 691 4224 262 3604 262 3030 
C 262 2780 448 2748 525 2748 
C 589 2748 781 2787 781 3010 
C 781 3207 614 3264 525 3264 
C 486 3264 448 3258 422 3245 
C 544 3790 915 4058 1306 4058 
C 1862 4058 2227 3617 2227 3035 
C 2227 2479 1901 2000 1536 1584 
L 262 146 
L 262 0 
L 2515 0 
L 2669 989 
z
" transform="scale(0.015625)"/>
       </defs>
       <use xlink:href="#CMR17-30" transform="scale(0.996264)"/>
       <use xlink:href="#CMMI12-3a" transform="translate(45.690477 0) scale(0.996264)"/>
       <use xlink:href="#CMR17-32" transform="translate(72.787654 0) scale(0.996264)"/>
       <use xlink:href="#CMR17-30" transform="translate(118.478131 0) scale(0.996264)"/>
      </g>
     </g>
    </g>
    <g id="xtick_2">
     <g id="line2d_2">
      <g>
       <use xlink:href="#m3385fdae1e" x="199.180514" y="646.272238" style="stroke: #000000; stroke-width: 0.8"/>
      </g>
     </g>
     <g id="text_2">
      <!-- $\mathdefault{0.22}$ -->
      <g transform="translate(181.121967 668.492931) scale(0.22 -0.22)">
       <use xlink:href="#CMR17-30" transform="scale(0.996264)"/>
       <use xlink:href="#CMMI12-3a" transform="translate(45.690477 0) scale(0.996264)"/>
       <use xlink:href="#CMR17-32" transform="translate(72.787654 0) scale(0.996264)"/>
       <use xlink:href="#CMR17-32" transform="translate(118.478131 0) scale(0.996264)"/>
      </g>
     </g>
    </g>
    <g id="xtick_3">
     <g id="line2d_3">
      <g>
       <use xlink:href="#m3385fdae1e" x="283.82571" y="646.272238" style="stroke: #000000; stroke-width: 0.8"/>
      </g>
     </g>
     <g id="text_3">
      <!-- $\mathdefault{0.24}$ -->
      <g transform="translate(265.767164 668.492931) scale(0.22 -0.22)">
       <defs>
        <path id="CMR17-34" d="M 2150 4122 
C 2150 4256 2144 4256 2029 4256 
L 128 1254 
L 128 1088 
L 1779 1088 
L 1779 457 
C 1779 224 1766 160 1318 160 
L 1197 160 
L 1197 0 
C 1402 0 1747 0 1965 0 
C 2182 0 2528 0 2733 0 
L 2733 160 
L 2611 160 
C 2163 160 2150 224 2150 457 
L 2150 1088 
L 2803 1088 
L 2803 1254 
L 2150 1254 
L 2150 4122 
z
M 1798 3703 
L 1798 1254 
L 256 1254 
L 1798 3703 
z
" transform="scale(0.015625)"/>
       </defs>
       <use xlink:href="#CMR17-30" transform="scale(0.996264)"/>
       <use xlink:href="#CMMI12-3a" transform="translate(45.690477 0) scale(0.996264)"/>
       <use xlink:href="#CMR17-32" transform="translate(72.787654 0) scale(0.996264)"/>
       <use xlink:href="#CMR17-34" transform="translate(118.478131 0) scale(0.996264)"/>
      </g>
     </g>
    </g>
    <g id="xtick_4">
     <g id="line2d_4">
      <g>
       <use xlink:href="#m3385fdae1e" x="368.470907" y="646.272238" style="stroke: #000000; stroke-width: 0.8"/>
      </g>
     </g>
     <g id="text_4">
      <!-- $\mathdefault{0.26}$ -->
      <g transform="translate(350.41236 668.492931) scale(0.22 -0.22)">
       <defs>
        <path id="CMR17-36" d="M 678 2176 
C 678 3690 1395 4032 1811 4032 
C 1946 4032 2272 4009 2400 3776 
C 2298 3776 2106 3776 2106 3553 
C 2106 3381 2246 3323 2336 3323 
C 2394 3323 2566 3348 2566 3560 
C 2566 3954 2246 4179 1805 4179 
C 1043 4179 243 3390 243 1984 
C 243 253 966 -128 1478 -128 
C 2099 -128 2688 427 2688 1283 
C 2688 2081 2170 2662 1517 2662 
C 1126 2662 838 2407 678 1960 
L 678 2176 
z
M 1478 25 
C 691 25 691 1200 691 1436 
C 691 1896 909 2560 1504 2560 
C 1613 2560 1926 2560 2138 2120 
C 2253 1870 2253 1609 2253 1289 
C 2253 944 2253 690 2118 434 
C 1978 171 1773 25 1478 25 
z
" transform="scale(0.015625)"/>
       </defs>
       <use xlink:href="#CMR17-30" transform="scale(0.996264)"/>
       <use xlink:href="#CMMI12-3a" transform="translate(45.690477 0) scale(0.996264)"/>
       <use xlink:href="#CMR17-32" transform="translate(72.787654 0) scale(0.996264)"/>
       <use xlink:href="#CMR17-36" transform="translate(118.478131 0) scale(0.996264)"/>
      </g>
     </g>
    </g>
    <g id="xtick_5">
     <g id="line2d_5">
      <g>
       <use xlink:href="#m3385fdae1e" x="453.116104" y="646.272238" style="stroke: #000000; stroke-width: 0.8"/>
      </g>
     </g>
     <g id="text_5">
      <!-- $\mathdefault{0.28}$ -->
      <g transform="translate(435.057557 668.492931) scale(0.22 -0.22)">
       <defs>
        <path id="CMR17-38" d="M 1741 2264 
C 2144 2467 2554 2773 2554 3263 
C 2554 3841 1990 4179 1472 4179 
C 890 4179 378 3759 378 3180 
C 378 3021 416 2747 666 2505 
C 730 2442 998 2251 1171 2130 
C 883 1983 211 1634 211 934 
C 211 279 838 -128 1459 -128 
C 2144 -128 2720 362 2720 1010 
C 2720 1590 2330 1857 2074 2029 
L 1741 2264 
z
M 902 2822 
C 851 2854 595 3051 595 3351 
C 595 3739 998 4032 1459 4032 
C 1965 4032 2336 3676 2336 3262 
C 2336 2669 1670 2331 1638 2331 
C 1632 2331 1626 2331 1574 2370 
L 902 2822 
z
M 2080 1519 
C 2176 1449 2483 1240 2483 851 
C 2483 381 2010 25 1472 25 
C 890 25 448 438 448 940 
C 448 1443 838 1862 1280 2060 
L 2080 1519 
z
" transform="scale(0.015625)"/>
       </defs>
       <use xlink:href="#CMR17-30" transform="scale(0.996264)"/>
       <use xlink:href="#CMMI12-3a" transform="translate(45.690477 0) scale(0.996264)"/>
       <use xlink:href="#CMR17-32" transform="translate(72.787654 0) scale(0.996264)"/>
       <use xlink:href="#CMR17-38" transform="translate(118.478131 0) scale(0.996264)"/>
      </g>
     </g>
    </g>
    <g id="xtick_6">
     <g id="line2d_6">
      <g>
       <use xlink:href="#m3385fdae1e" x="537.761301" y="646.272238" style="stroke: #000000; stroke-width: 0.8"/>
      </g>
     </g>
     <g id="text_6">
      <!-- $\mathdefault{0.30}$ -->
      <g transform="translate(519.702754 668.492931) scale(0.22 -0.22)">
       <defs>
        <path id="CMR17-33" d="M 1414 2157 
C 1984 2157 2234 1662 2234 1090 
C 2234 320 1824 25 1453 25 
C 1114 25 563 194 390 693 
C 422 680 454 680 486 680 
C 640 680 755 782 755 948 
C 755 1133 614 1216 486 1216 
C 378 1216 211 1165 211 926 
C 211 335 787 -128 1466 -128 
C 2176 -128 2720 430 2720 1085 
C 2720 1707 2208 2157 1600 2227 
C 2086 2328 2554 2756 2554 3329 
C 2554 3820 2048 4179 1472 4179 
C 890 4179 378 3829 378 3329 
C 378 3110 544 3072 627 3072 
C 762 3072 877 3155 877 3321 
C 877 3486 762 3569 627 3569 
C 602 3569 570 3569 544 3557 
C 730 3959 1235 4032 1459 4032 
C 1683 4032 2106 3925 2106 3320 
C 2106 3143 2080 2828 1862 2550 
C 1670 2304 1453 2304 1242 2284 
C 1210 2284 1062 2269 1037 2269 
C 992 2263 966 2257 966 2208 
C 966 2163 973 2157 1101 2157 
L 1414 2157 
z
" transform="scale(0.015625)"/>
       </defs>
       <use xlink:href="#CMR17-30" transform="scale(0.996264)"/>
       <use xlink:href="#CMMI12-3a" transform="translate(45.690477 0) scale(0.996264)"/>
       <use xlink:href="#CMR17-33" transform="translate(72.787654 0) scale(0.996264)"/>
       <use xlink:href="#CMR17-30" transform="translate(118.478131 0) scale(0.996264)"/>
      </g>
     </g>
    </g>
    <g id="xtick_7">
     <g id="line2d_7">
      <g>
       <use xlink:href="#m3385fdae1e" x="622.406498" y="646.272238" style="stroke: #000000; stroke-width: 0.8"/>
      </g>
     </g>
     <g id="text_7">
      <!-- $\mathdefault{0.32}$ -->
      <g transform="translate(604.347951 668.492931) scale(0.22 -0.22)">
       <use xlink:href="#CMR17-30" transform="scale(0.996264)"/>
       <use xlink:href="#CMMI12-3a" transform="translate(45.690477 0) scale(0.996264)"/>
       <use xlink:href="#CMR17-33" transform="translate(72.787654 0) scale(0.996264)"/>
       <use xlink:href="#CMR17-32" transform="translate(118.478131 0) scale(0.996264)"/>
      </g>
     </g>
    </g>
    <g id="text_8">
     <!-- $p_0$ -->
     <g transform="translate(384.159299 691.976812) scale(0.22 -0.22)">
      <defs>
       <path id="CMMI12-70" d="M 275 -789 
C 230 -980 205 -1031 -58 -1031 
C -134 -1031 -198 -1031 -198 -1152 
C -198 -1165 -192 -1216 -122 -1216 
C -38 -1216 51 -1216 134 -1216 
L 410 -1216 
C 544 -1216 870 -1216 1005 -1216 
C 1043 -1216 1120 -1216 1120 -1101 
C 1120 -1031 1075 -1031 966 -1031 
C 672 -1031 653 -987 653 -937 
C 653 -861 941 219 979 364 
C 1050 185 1222 -64 1555 -64 
C 2278 -64 3059 875 3059 1814 
C 3059 2401 2726 2816 2246 2816 
C 1837 2816 1491 2420 1421 2331 
C 1370 2650 1120 2816 864 2816 
C 678 2816 531 2727 410 2484 
C 294 2254 205 1865 205 1839 
C 205 1814 230 1782 275 1782 
C 326 1782 333 1788 371 1935 
C 467 2312 589 2689 845 2689 
C 992 2689 1043 2587 1043 2397 
C 1043 2245 1024 2181 998 2067 
L 275 -789 
z
M 1382 1993 
C 1427 2171 1606 2357 1709 2446 
C 1779 2510 1990 2689 2234 2689 
C 2515 2689 2643 2408 2643 2076 
C 2643 1769 2464 1047 2304 715 
C 2144 370 1850 64 1555 64 
C 1120 64 1050 613 1050 639 
C 1050 658 1062 709 1069 741 
L 1382 1993 
z
" transform="scale(0.015625)"/>
      </defs>
      <use xlink:href="#CMMI12-70" transform="scale(0.996264)"/>
      <use xlink:href="#CMR17-30" transform="translate(48.959514 -14.943915) scale(0.697382)"/>
     </g>
    </g>
   </g>
   <g id="matplotlib.axis_2">
    <g id="ytick_1">
     <g id="line2d_8">
      <defs>
       <path id="ma600d9e374" d="M 0 0 
L -3.5 0 
" style="stroke: #000000; stroke-width: 0.8"/>
      </defs>
      <g>
       <use xlink:href="#ma600d9e374" x="90.360975" y="621.434237" style="stroke: #000000; stroke-width: 0.8"/>
      </g>
     </g>
     <g id="text_9">
      <!-- $\mathdefault{0.20}$ -->
      <g transform="translate(47.243881 629.044584) scale(0.22 -0.22)">
       <use xlink:href="#CMR17-30" transform="scale(0.996264)"/>
       <use xlink:href="#CMMI12-3a" transform="translate(45.690477 0) scale(0.996264)"/>
       <use xlink:href="#CMR17-32" transform="translate(72.787654 0) scale(0.996264)"/>
       <use xlink:href="#CMR17-30" transform="translate(118.478131 0) scale(0.996264)"/>
      </g>
     </g>
    </g>
    <g id="ytick_2">
     <g id="line2d_9">
      <g>
       <use xlink:href="#ma600d9e374" x="90.360975" y="534.465273" style="stroke: #000000; stroke-width: 0.8"/>
      </g>
     </g>
     <g id="text_10">
      <!-- $\mathdefault{0.22}$ -->
      <g transform="translate(47.243881 542.07562) scale(0.22 -0.22)">
       <use xlink:href="#CMR17-30" transform="scale(0.996264)"/>
       <use xlink:href="#CMMI12-3a" transform="translate(45.690477 0) scale(0.996264)"/>
       <use xlink:href="#CMR17-32" transform="translate(72.787654 0) scale(0.996264)"/>
       <use xlink:href="#CMR17-32" transform="translate(118.478131 0) scale(0.996264)"/>
      </g>
     </g>
    </g>
    <g id="ytick_3">
     <g id="line2d_10">
      <g>
       <use xlink:href="#ma600d9e374" x="90.360975" y="447.49631" style="stroke: #000000; stroke-width: 0.8"/>
      </g>
     </g>
     <g id="text_11">
      <!-- $\mathdefault{0.24}$ -->
      <g transform="translate(47.243881 455.106656) scale(0.22 -0.22)">
       <use xlink:href="#CMR17-30" transform="scale(0.996264)"/>
       <use xlink:href="#CMMI12-3a" transform="translate(45.690477 0) scale(0.996264)"/>
       <use xlink:href="#CMR17-32" transform="translate(72.787654 0) scale(0.996264)"/>
       <use xlink:href="#CMR17-34" transform="translate(118.478131 0) scale(0.996264)"/>
      </g>
     </g>
    </g>
    <g id="ytick_4">
     <g id="line2d_11">
      <g>
       <use xlink:href="#ma600d9e374" x="90.360975" y="360.527346" style="stroke: #000000; stroke-width: 0.8"/>
      </g>
     </g>
     <g id="text_12">
      <!-- $\mathdefault{0.26}$ -->
      <g transform="translate(47.243881 368.137693) scale(0.22 -0.22)">
       <use xlink:href="#CMR17-30" transform="scale(0.996264)"/>
       <use xlink:href="#CMMI12-3a" transform="translate(45.690477 0) scale(0.996264)"/>
       <use xlink:href="#CMR17-32" transform="translate(72.787654 0) scale(0.996264)"/>
       <use xlink:href="#CMR17-36" transform="translate(118.478131 0) scale(0.996264)"/>
      </g>
     </g>
    </g>
    <g id="ytick_5">
     <g id="line2d_12">
      <g>
       <use xlink:href="#ma600d9e374" x="90.360975" y="273.558382" style="stroke: #000000; stroke-width: 0.8"/>
      </g>
     </g>
     <g id="text_13">
      <!-- $\mathdefault{0.28}$ -->
      <g transform="translate(47.243881 281.168729) scale(0.22 -0.22)">
       <use xlink:href="#CMR17-30" transform="scale(0.996264)"/>
       <use xlink:href="#CMMI12-3a" transform="translate(45.690477 0) scale(0.996264)"/>
       <use xlink:href="#CMR17-32" transform="translate(72.787654 0) scale(0.996264)"/>
       <use xlink:href="#CMR17-38" transform="translate(118.478131 0) scale(0.996264)"/>
      </g>
     </g>
    </g>
    <g id="ytick_6">
     <g id="line2d_13">
      <g>
       <use xlink:href="#ma600d9e374" x="90.360975" y="186.589419" style="stroke: #000000; stroke-width: 0.8"/>
      </g>
     </g>
     <g id="text_14">
      <!-- $\mathdefault{0.30}$ -->
      <g transform="translate(47.243881 194.199765) scale(0.22 -0.22)">
       <use xlink:href="#CMR17-30" transform="scale(0.996264)"/>
       <use xlink:href="#CMMI12-3a" transform="translate(45.690477 0) scale(0.996264)"/>
       <use xlink:href="#CMR17-33" transform="translate(72.787654 0) scale(0.996264)"/>
       <use xlink:href="#CMR17-30" transform="translate(118.478131 0) scale(0.996264)"/>
      </g>
     </g>
    </g>
    <g id="ytick_7">
     <g id="line2d_14">
      <g>
       <use xlink:href="#ma600d9e374" x="90.360975" y="99.620455" style="stroke: #000000; stroke-width: 0.8"/>
      </g>
     </g>
     <g id="text_15">
      <!-- $\mathdefault{0.32}$ -->
      <g transform="translate(47.243881 107.230802) scale(0.22 -0.22)">
       <use xlink:href="#CMR17-30" transform="scale(0.996264)"/>
       <use xlink:href="#CMMI12-3a" transform="translate(45.690477 0) scale(0.996264)"/>
       <use xlink:href="#CMR17-33" transform="translate(72.787654 0) scale(0.996264)"/>
       <use xlink:href="#CMR17-32" transform="translate(118.478131 0) scale(0.996264)"/>
      </g>
     </g>
    </g>
    <g id="text_16">
     <!-- $p_2$ -->
     <g transform="translate(38.980693 344.157308) rotate(-90) scale(0.22 -0.22)">
      <use xlink:href="#CMMI12-70" transform="scale(0.996264)"/>
      <use xlink:href="#CMR17-32" transform="translate(48.959514 -14.943915) scale(0.697382)"/>
     </g>
    </g>
   </g>
   <g id="patch_3">
    <path d="M 90.360975 646.272238 
L 90.360975 23.76 
" style="fill: none; stroke: #000000; stroke-width: 0.8; stroke-linejoin: miter; stroke-linecap: square"/>
   </g>
   <g id="patch_4">
    <path d="M 696.24 646.272238 
L 696.24 23.76 
" style="fill: none; stroke: #000000; stroke-width: 0.8; stroke-linejoin: miter; stroke-linecap: square"/>
   </g>
   <g id="patch_5">
    <path d="M 90.360975 646.272238 
L 696.24 646.272238 
" style="fill: none; stroke: #000000; stroke-width: 0.8; stroke-linejoin: miter; stroke-linecap: square"/>
   </g>
   <g id="patch_6">
    <path d="M 90.360975 23.76 
L 696.24 23.76 
" style="fill: none; stroke: #000000; stroke-width: 0.8; stroke-linejoin: miter; stroke-linecap: square"/>
   </g>
   <g id="legend_1">
    <g id="patch_7">
     <path d="M 105.760975 194.675939 
L 206.31669 194.675939 
Q 210.71669 194.675939 210.71669 190.275939 
L 210.71669 39.16 
Q 210.71669 34.76 206.31669 34.76 
L 105.760975 34.76 
Q 101.360975 34.76 101.360975 39.16 
L 101.360975 190.275939 
Q 101.360975 194.675939 105.760975 194.675939 
z
" style="fill: #ffffff; opacity: 0.8; stroke: #cccccc; stroke-linejoin: miter"/>
    </g>
    <g id="PathCollection_7">
     <defs>
      <path id="mc5695e855f" d="M 0 3 
C 0.795609 3 1.55874 2.683901 2.12132 2.12132 
C 2.683901 1.55874 3 0.795609 3 0 
C 3 -0.795609 2.683901 -1.55874 2.12132 -2.12132 
C 1.55874 -2.683901 0.795609 -3 0 -3 
C -0.795609 -3 -1.55874 -2.683901 -2.12132 -2.12132 
C -2.683901 -1.55874 -3 -0.795609 -3 0 
C -3 0.795609 -2.683901 1.55874 -2.12132 2.12132 
C -1.55874 2.683901 -0.795609 3 0 3 
z
" style="stroke: #7b9ff9"/>
     </defs>
     <g>
      <use xlink:href="#mc5695e855f" x="132.160975" y="53.185" style="fill: #7b9ff9; stroke: #7b9ff9"/>
     </g>
    </g>
    <g id="text_17">
     <!-- $\mathdefault{20}$ -->
     <g transform="translate(171.760975 58.96) scale(0.22 -0.22)">
      <use xlink:href="#CMR17-32" transform="scale(0.996264)"/>
      <use xlink:href="#CMR17-30" transform="translate(45.690477 0) scale(0.996264)"/>
     </g>
    </g>
    <g id="PathCollection_8">
     <defs>
      <path id="m71d4cc05f4" d="M 0 3 
C 0.795609 3 1.55874 2.683901 2.12132 2.12132 
C 2.683901 1.55874 3 0.795609 3 0 
C 3 -0.795609 2.683901 -1.55874 2.12132 -2.12132 
C 1.55874 -2.683901 0.795609 -3 0 -3 
C -0.795609 -3 -1.55874 -2.683901 -2.12132 -2.12132 
C -2.683901 -1.55874 -3 -0.795609 -3 0 
C -3 0.795609 -2.683901 1.55874 -2.12132 2.12132 
C -1.55874 2.683901 -0.795609 3 0 3 
z
" style="stroke: #c0d4f5"/>
     </defs>
     <g>
      <use xlink:href="#m71d4cc05f4" x="132.160975" y="83.848188" style="fill: #c0d4f5; stroke: #c0d4f5"/>
     </g>
    </g>
    <g id="text_18">
     <!-- $\mathdefault{40}$ -->
     <g transform="translate(171.760975 89.623188) scale(0.22 -0.22)">
      <use xlink:href="#CMR17-34" transform="scale(0.996264)"/>
      <use xlink:href="#CMR17-30" transform="translate(45.690477 0) scale(0.996264)"/>
     </g>
    </g>
    <g id="PathCollection_9">
     <defs>
      <path id="m7c621630a3" d="M 0 3 
C 0.795609 3 1.55874 2.683901 2.12132 2.12132 
C 2.683901 1.55874 3 0.795609 3 0 
C 3 -0.795609 2.683901 -1.55874 2.12132 -2.12132 
C 1.55874 -2.683901 0.795609 -3 0 -3 
C -0.795609 -3 -1.55874 -2.683901 -2.12132 -2.12132 
C -2.683901 -1.55874 -3 -0.795609 -3 0 
C -3 0.795609 -2.683901 1.55874 -2.12132 2.12132 
C -1.55874 2.683901 -0.795609 3 0 3 
z
" style="stroke: #f2cbb7"/>
     </defs>
     <g>
      <use xlink:href="#m7c621630a3" x="132.160975" y="114.511376" style="fill: #f2cbb7; stroke: #f2cbb7"/>
     </g>
    </g>
    <g id="text_19">
     <!-- $\mathdefault{60}$ -->
     <g transform="translate(171.760975 120.286376) scale(0.22 -0.22)">
      <use xlink:href="#CMR17-36" transform="scale(0.996264)"/>
      <use xlink:href="#CMR17-30" transform="translate(45.690477 0) scale(0.996264)"/>
     </g>
    </g>
    <g id="PathCollection_10">
     <defs>
      <path id="md4a170f168" d="M 0 3 
C 0.795609 3 1.55874 2.683901 2.12132 2.12132 
C 2.683901 1.55874 3 0.795609 3 0 
C 3 -0.795609 2.683901 -1.55874 2.12132 -2.12132 
C 1.55874 -2.683901 0.795609 -3 0 -3 
C -0.795609 -3 -1.55874 -2.683901 -2.12132 -2.12132 
C -2.683901 -1.55874 -3 -0.795609 -3 0 
C -3 0.795609 -2.683901 1.55874 -2.12132 2.12132 
C -1.55874 2.683901 -0.795609 3 0 3 
z
" style="stroke: #ee8468"/>
     </defs>
     <g>
      <use xlink:href="#md4a170f168" x="132.160975" y="145.174564" style="fill: #ee8468; stroke: #ee8468"/>
     </g>
    </g>
    <g id="text_20">
     <!-- $\mathdefault{80}$ -->
     <g transform="translate(171.760975 150.949564) scale(0.22 -0.22)">
      <use xlink:href="#CMR17-38" transform="scale(0.996264)"/>
      <use xlink:href="#CMR17-30" transform="translate(45.690477 0) scale(0.996264)"/>
     </g>
    </g>
    <g id="PathCollection_11">
     <defs>
      <path id="m8a48f459e4" d="M 0 3 
C 0.795609 3 1.55874 2.683901 2.12132 2.12132 
C 2.683901 1.55874 3 0.795609 3 0 
C 3 -0.795609 2.683901 -1.55874 2.12132 -2.12132 
C 1.55874 -2.683901 0.795609 -3 0 -3 
C -0.795609 -3 -1.55874 -2.683901 -2.12132 -2.12132 
C -2.683901 -1.55874 -3 -0.795609 -3 0 
C -3 0.795609 -2.683901 1.55874 -2.12132 2.12132 
C -1.55874 2.683901 -0.795609 3 0 3 
z
" style="stroke: #b40426"/>
     </defs>
     <g>
      <use xlink:href="#m8a48f459e4" x="132.160975" y="175.837751" style="fill: #b40426; stroke: #b40426"/>
     </g>
    </g>
    <g id="text_21">
     <!-- $\mathdefault{100}$ -->
     <g transform="translate(171.760975 181.612751) scale(0.22 -0.22)">
      <defs>
       <path id="CMR17-31" d="M 1702 4058 
C 1702 4192 1696 4192 1606 4192 
C 1357 3916 979 3827 621 3827 
C 602 3827 570 3827 563 3808 
C 557 3795 557 3782 557 3648 
C 755 3648 1088 3686 1344 3839 
L 1344 461 
C 1344 236 1331 160 781 160 
L 589 160 
L 589 0 
C 896 0 1216 0 1523 0 
C 1830 0 2150 0 2458 0 
L 2458 160 
L 2266 160 
C 1715 160 1702 230 1702 458 
L 1702 4058 
z
" transform="scale(0.015625)"/>
      </defs>
      <use xlink:href="#CMR17-31" transform="scale(0.996264)"/>
      <use xlink:href="#CMR17-30" transform="translate(45.690477 0) scale(0.996264)"/>
      <use xlink:href="#CMR17-30" transform="translate(91.380954 0) scale(0.996264)"/>
     </g>
    </g>
   </g>
  </g>
 </g>
 <defs>
  <clipPath id="p6e8a65a8e8">
   <rect x="90.360975" y="23.76" width="605.879025" height="622.512238"/>
  </clipPath>
 </defs>
</svg>
