<?xml version="1.0" encoding="utf-8" standalone="no"?>
<!DOCTYPE svg PUBLIC "-//W3C//DTD SVG 1.1//EN"
  "http://www.w3.org/Graphics/SVG/1.1/DTD/svg11.dtd">
<svg xmlns:xlink="http://www.w3.org/1999/xlink" width="720pt" height="720pt" viewBox="0 0 720 720" xmlns="http://www.w3.org/2000/svg" version="1.1">
 <metadata>
  <rdf:RDF xmlns:dc="http://purl.org/dc/elements/1.1/" xmlns:cc="http://creativecommons.org/ns#" xmlns:rdf="http://www.w3.org/1999/02/22-rdf-syntax-ns#">
   <cc:Work>
    <dc:type rdf:resource="http://purl.org/dc/dcmitype/StillImage"/>
    <dc:date>2022-11-01T14:57:07.832025</dc:date>
    <dc:format>image/svg+xml</dc:format>
    <dc:creator>
     <cc:Agent>
      <dc:title>Matplotlib v3.6.0, https://matplotlib.org/</dc:title>
     </cc:Agent>
    </dc:creator>
   </cc:Work>
  </rdf:RDF>
 </metadata>
 <defs>
  <style type="text/css">*{stroke-linejoin: round; stroke-linecap: butt}</style>
 </defs>
 <g id="figure_1">
  <g id="patch_1">
   <path d="M 0 720 
L 720 720 
L 720 0 
L 0 0 
z
" style="fill: #ffffff"/>
  </g>
  <g id="axes_1">
   <g id="patch_2">
    <path d="M 80.30907 646.272238 
L 696.24 646.272238 
L 696.24 23.76 
L 80.30907 23.76 
z
" style="fill: #ffffff"/>
   </g>
   <g id="PathCollection_1">
    <defs>
     <path id="m3fec2054d8" d="M 0 0.5 
C 0.132602 0.5 0.25979 0.447317 0.353553 0.353553 
C 0.447317 0.25979 0.5 0.132602 0.5 0 
C 0.5 -0.132602 0.447317 -0.25979 0.353553 -0.353553 
C 0.25979 -0.447317 0.132602 -0.5 0 -0.5 
C -0.132602 -0.5 -0.25979 -0.447317 -0.353553 -0.353553 
C -0.447317 -0.25979 -0.5 -0.132602 -0.5 0 
C -0.5 0.132602 -0.447317 0.25979 -0.353553 0.353553 
C -0.25979 0.447317 -0.132602 0.5 0 0.5 
z
" style="stroke: #d62728"/>
    </defs>
    <g clip-path="url(#pbe968ad550)">
     <use xlink:href="#m3fec2054d8" x="440.238063" y="615.7057" style="fill: #d62728; stroke: #d62728"/>
     <use xlink:href="#m3fec2054d8" x="436.290347" y="613.466633" style="fill: #d62728; stroke: #d62728"/>
     <use xlink:href="#m3fec2054d8" x="432.422667" y="611.25818" style="fill: #d62728; stroke: #d62728"/>
     <use xlink:href="#m3fec2054d8" x="428.632676" y="609.07953" style="fill: #d62728; stroke: #d62728"/>
     <use xlink:href="#m3fec2054d8" x="424.918118" y="606.929899" style="fill: #d62728; stroke: #d62728"/>
     <use xlink:href="#m3fec2054d8" x="421.276822" y="604.808536" style="fill: #d62728; stroke: #d62728"/>
     <use xlink:href="#m3fec2054d8" x="417.7067" y="602.714716" style="fill: #d62728; stroke: #d62728"/>
     <use xlink:href="#m3fec2054d8" x="414.205742" y="600.647739" style="fill: #d62728; stroke: #d62728"/>
     <use xlink:href="#m3fec2054d8" x="410.772012" y="598.606934" style="fill: #d62728; stroke: #d62728"/>
     <use xlink:href="#m3fec2054d8" x="407.403646" y="596.59165" style="fill: #d62728; stroke: #d62728"/>
     <use xlink:href="#m3fec2054d8" x="404.098847" y="594.601261" style="fill: #d62728; stroke: #d62728"/>
     <use xlink:href="#m3fec2054d8" x="400.855884" y="592.635165" style="fill: #d62728; stroke: #d62728"/>
     <use xlink:href="#m3fec2054d8" x="397.673087" y="590.692777" style="fill: #d62728; stroke: #d62728"/>
     <use xlink:href="#m3fec2054d8" x="394.548846" y="588.773535" style="fill: #d62728; stroke: #d62728"/>
     <use xlink:href="#m3fec2054d8" x="391.481606" y="586.876896" style="fill: #d62728; stroke: #d62728"/>
     <use xlink:href="#m3fec2054d8" x="388.469868" y="585.002334" style="fill: #d62728; stroke: #d62728"/>
     <use xlink:href="#m3fec2054d8" x="385.512183" y="583.149341" style="fill: #d62728; stroke: #d62728"/>
     <use xlink:href="#m3fec2054d8" x="382.607154" y="581.317427" style="fill: #d62728; stroke: #d62728"/>
     <use xlink:href="#m3fec2054d8" x="379.75343" y="579.506118" style="fill: #d62728; stroke: #d62728"/>
     <use xlink:href="#m3fec2054d8" x="376.949706" y="577.714953" style="fill: #d62728; stroke: #d62728"/>
     <use xlink:href="#m3fec2054d8" x="374.194719" y="575.94349" style="fill: #d62728; stroke: #d62728"/>
     <use xlink:href="#m3fec2054d8" x="371.487249" y="574.191297" style="fill: #d62728; stroke: #d62728"/>
     <use xlink:href="#m3fec2054d8" x="368.826118" y="572.457959" style="fill: #d62728; stroke: #d62728"/>
     <use xlink:href="#m3fec2054d8" x="366.210183" y="570.743072" style="fill: #d62728; stroke: #d62728"/>
     <use xlink:href="#m3fec2054d8" x="363.63834" y="569.046245" style="fill: #d62728; stroke: #d62728"/>
     <use xlink:href="#m3fec2054d8" x="361.10952" y="567.367101" style="fill: #d62728; stroke: #d62728"/>
     <use xlink:href="#m3fec2054d8" x="358.622688" y="565.705271" style="fill: #d62728; stroke: #d62728"/>
     <use xlink:href="#m3fec2054d8" x="356.176841" y="564.0604" style="fill: #d62728; stroke: #d62728"/>
     <use xlink:href="#m3fec2054d8" x="353.771009" y="562.432143" style="fill: #d62728; stroke: #d62728"/>
     <use xlink:href="#m3fec2054d8" x="351.404251" y="560.820165" style="fill: #d62728; stroke: #d62728"/>
     <use xlink:href="#m3fec2054d8" x="349.075655" y="559.224141" style="fill: #d62728; stroke: #d62728"/>
     <use xlink:href="#m3fec2054d8" x="346.784337" y="557.643756" style="fill: #d62728; stroke: #d62728"/>
     <use xlink:href="#m3fec2054d8" x="344.529441" y="556.078703" style="fill: #d62728; stroke: #d62728"/>
     <use xlink:href="#m3fec2054d8" x="342.310134" y="554.528685" style="fill: #d62728; stroke: #d62728"/>
     <use xlink:href="#m3fec2054d8" x="340.125612" y="552.993414" style="fill: #d62728; stroke: #d62728"/>
     <use xlink:href="#m3fec2054d8" x="337.975091" y="551.472608" style="fill: #d62728; stroke: #d62728"/>
     <use xlink:href="#m3fec2054d8" x="335.857812" y="549.965995" style="fill: #d62728; stroke: #d62728"/>
     <use xlink:href="#m3fec2054d8" x="333.773039" y="548.47331" style="fill: #d62728; stroke: #d62728"/>
     <use xlink:href="#m3fec2054d8" x="331.720056" y="546.994294" style="fill: #d62728; stroke: #d62728"/>
     <use xlink:href="#m3fec2054d8" x="329.698168" y="545.528698" style="fill: #d62728; stroke: #d62728"/>
     <use xlink:href="#m3fec2054d8" x="327.7067" y="544.076277" style="fill: #d62728; stroke: #d62728"/>
     <use xlink:href="#m3fec2054d8" x="325.744997" y="542.636795" style="fill: #d62728; stroke: #d62728"/>
     <use xlink:href="#m3fec2054d8" x="323.81242" y="541.210019" style="fill: #d62728; stroke: #d62728"/>
     <use xlink:href="#m3fec2054d8" x="321.908351" y="539.795726" style="fill: #d62728; stroke: #d62728"/>
     <use xlink:href="#m3fec2054d8" x="320.032188" y="538.393696" style="fill: #d62728; stroke: #d62728"/>
     <use xlink:href="#m3fec2054d8" x="318.183345" y="537.003717" style="fill: #d62728; stroke: #d62728"/>
     <use xlink:href="#m3fec2054d8" x="316.361253" y="535.625581" style="fill: #d62728; stroke: #d62728"/>
     <use xlink:href="#m3fec2054d8" x="314.565358" y="534.259086" style="fill: #d62728; stroke: #d62728"/>
     <use xlink:href="#m3fec2054d8" x="312.795122" y="532.904034" style="fill: #d62728; stroke: #d62728"/>
     <use xlink:href="#m3fec2054d8" x="311.05002" y="531.560234" style="fill: #d62728; stroke: #d62728"/>
     <use xlink:href="#m3fec2054d8" x="309.329542" y="530.227499" style="fill: #d62728; stroke: #d62728"/>
     <use xlink:href="#m3fec2054d8" x="307.633191" y="528.905645" style="fill: #d62728; stroke: #d62728"/>
     <use xlink:href="#m3fec2054d8" x="305.960485" y="527.594496" style="fill: #d62728; stroke: #d62728"/>
     <use xlink:href="#m3fec2054d8" x="304.310952" y="526.293877" style="fill: #d62728; stroke: #d62728"/>
     <use xlink:href="#m3fec2054d8" x="302.684133" y="525.00362" style="fill: #d62728; stroke: #d62728"/>
     <use xlink:href="#m3fec2054d8" x="301.079583" y="523.723558" style="fill: #d62728; stroke: #d62728"/>
     <use xlink:href="#m3fec2054d8" x="299.496865" y="522.453531" style="fill: #d62728; stroke: #d62728"/>
     <use xlink:href="#m3fec2054d8" x="297.935557" y="521.193382" style="fill: #d62728; stroke: #d62728"/>
     <use xlink:href="#m3fec2054d8" x="296.395244" y="519.942956" style="fill: #d62728; stroke: #d62728"/>
     <use xlink:href="#m3fec2054d8" x="294.875524" y="518.702104" style="fill: #d62728; stroke: #d62728"/>
     <use xlink:href="#m3fec2054d8" x="293.376004" y="517.470679" style="fill: #d62728; stroke: #d62728"/>
     <use xlink:href="#m3fec2054d8" x="291.896302" y="516.248539" style="fill: #d62728; stroke: #d62728"/>
     <use xlink:href="#m3fec2054d8" x="290.436044" y="515.035542" style="fill: #d62728; stroke: #d62728"/>
     <use xlink:href="#m3fec2054d8" x="288.994866" y="513.831554" style="fill: #d62728; stroke: #d62728"/>
     <use xlink:href="#m3fec2054d8" x="287.572413" y="512.636439" style="fill: #d62728; stroke: #d62728"/>
     <use xlink:href="#m3fec2054d8" x="286.168338" y="511.450068" style="fill: #d62728; stroke: #d62728"/>
     <use xlink:href="#m3fec2054d8" x="284.782303" y="510.272314" style="fill: #d62728; stroke: #d62728"/>
     <use xlink:href="#m3fec2054d8" x="283.413978" y="509.103051" style="fill: #d62728; stroke: #d62728"/>
     <use xlink:href="#m3fec2054d8" x="282.063041" y="507.942157" style="fill: #d62728; stroke: #d62728"/>
     <use xlink:href="#m3fec2054d8" x="280.729178" y="506.789514" style="fill: #d62728; stroke: #d62728"/>
     <use xlink:href="#m3fec2054d8" x="279.412081" y="505.645004" style="fill: #d62728; stroke: #d62728"/>
     <use xlink:href="#m3fec2054d8" x="278.11145" y="504.508514" style="fill: #d62728; stroke: #d62728"/>
     <use xlink:href="#m3fec2054d8" x="276.826993" y="503.379932" style="fill: #d62728; stroke: #d62728"/>
     <use xlink:href="#m3fec2054d8" x="275.558425" y="502.259148" style="fill: #d62728; stroke: #d62728"/>
     <use xlink:href="#m3fec2054d8" x="274.305464" y="501.146055" style="fill: #d62728; stroke: #d62728"/>
     <use xlink:href="#m3fec2054d8" x="273.06784" y="500.040549" style="fill: #d62728; stroke: #d62728"/>
     <use xlink:href="#m3fec2054d8" x="271.845284" y="498.942527" style="fill: #d62728; stroke: #d62728"/>
     <use xlink:href="#m3fec2054d8" x="270.637536" y="497.851889" style="fill: #d62728; stroke: #d62728"/>
     <use xlink:href="#m3fec2054d8" x="269.444342" y="496.768537" style="fill: #d62728; stroke: #d62728"/>
     <use xlink:href="#m3fec2054d8" x="268.265452" y="495.692373" style="fill: #d62728; stroke: #d62728"/>
     <use xlink:href="#m3fec2054d8" x="267.100623" y="494.623305" style="fill: #d62728; stroke: #d62728"/>
     <use xlink:href="#m3fec2054d8" x="265.949618" y="493.561238" style="fill: #d62728; stroke: #d62728"/>
     <use xlink:href="#m3fec2054d8" x="264.812202" y="492.506083" style="fill: #d62728; stroke: #d62728"/>
     <use xlink:href="#m3fec2054d8" x="263.688149" y="491.457752" style="fill: #d62728; stroke: #d62728"/>
     <use xlink:href="#m3fec2054d8" x="262.577236" y="490.416156" style="fill: #d62728; stroke: #d62728"/>
     <use xlink:href="#m3fec2054d8" x="261.479246" y="489.38121" style="fill: #d62728; stroke: #d62728"/>
     <use xlink:href="#m3fec2054d8" x="260.393964" y="488.352832" style="fill: #d62728; stroke: #d62728"/>
     <use xlink:href="#m3fec2054d8" x="259.321182" y="487.330938" style="fill: #d62728; stroke: #d62728"/>
     <use xlink:href="#m3fec2054d8" x="258.260697" y="486.315449" style="fill: #d62728; stroke: #d62728"/>
     <use xlink:href="#m3fec2054d8" x="257.212309" y="485.306286" style="fill: #d62728; stroke: #d62728"/>
     <use xlink:href="#m3fec2054d8" x="256.175822" y="484.303371" style="fill: #d62728; stroke: #d62728"/>
     <use xlink:href="#m3fec2054d8" x="255.151046" y="483.306628" style="fill: #d62728; stroke: #d62728"/>
     <use xlink:href="#m3fec2054d8" x="254.137791" y="482.315984" style="fill: #d62728; stroke: #d62728"/>
     <use xlink:href="#m3fec2054d8" x="253.135876" y="481.331364" style="fill: #d62728; stroke: #d62728"/>
     <use xlink:href="#m3fec2054d8" x="252.145121" y="480.352697" style="fill: #d62728; stroke: #d62728"/>
     <use xlink:href="#m3fec2054d8" x="251.16535" y="479.379913" style="fill: #d62728; stroke: #d62728"/>
     <use xlink:href="#m3fec2054d8" x="250.19639" y="478.412943" style="fill: #d62728; stroke: #d62728"/>
     <use xlink:href="#m3fec2054d8" x="249.238073" y="477.451718" style="fill: #d62728; stroke: #d62728"/>
     <use xlink:href="#m3fec2054d8" x="248.290233" y="476.496173" style="fill: #d62728; stroke: #d62728"/>
    </g>
   </g>
   <g id="matplotlib.axis_1">
    <g id="xtick_1">
     <g id="line2d_1">
      <defs>
       <path id="m3385fdae1e" d="M 0 0 
L 0 3.5 
" style="stroke: #000000; stroke-width: 0.8"/>
      </defs>
      <g>
       <use xlink:href="#m3385fdae1e" x="108.305931" y="646.272238" style="stroke: #000000; stroke-width: 0.8"/>
      </g>
     </g>
     <g id="text_1">
      <!-- $\mathdefault{0.0}$ -->
      <g transform="translate(95.273336 668.492931) scale(0.22 -0.22)">
       <defs>
        <path id="CMR17-30" d="M 2688 2025 
C 2688 2416 2682 3080 2413 3591 
C 2176 4039 1798 4198 1466 4198 
C 1158 4198 768 4058 525 3597 
C 269 3118 243 2524 243 2025 
C 243 1661 250 1106 448 619 
C 723 -39 1216 -128 1466 -128 
C 1760 -128 2208 -7 2470 600 
C 2662 1042 2688 1559 2688 2025 
z
M 1466 -26 
C 1056 -26 813 325 723 812 
C 653 1188 653 1738 653 2096 
C 653 2588 653 2997 736 3387 
C 858 3929 1216 4096 1466 4096 
C 1728 4096 2067 3923 2189 3400 
C 2272 3036 2278 2607 2278 2096 
C 2278 1680 2278 1169 2202 792 
C 2067 95 1690 -26 1466 -26 
z
" transform="scale(0.015625)"/>
        <path id="CMMI12-3a" d="M 1178 307 
C 1178 492 1024 619 870 619 
C 685 619 557 466 557 313 
C 557 128 710 0 864 0 
C 1050 0 1178 153 1178 307 
z
" transform="scale(0.015625)"/>
       </defs>
       <use xlink:href="#CMR17-30" transform="scale(0.996264)"/>
       <use xlink:href="#CMMI12-3a" transform="translate(45.690477 0) scale(0.996264)"/>
       <use xlink:href="#CMR17-30" transform="translate(72.787654 0) scale(0.996264)"/>
      </g>
     </g>
    </g>
    <g id="xtick_2">
     <g id="line2d_2">
      <g>
       <use xlink:href="#m3385fdae1e" x="220.293372" y="646.272238" style="stroke: #000000; stroke-width: 0.8"/>
      </g>
     </g>
     <g id="text_2">
      <!-- $\mathdefault{0.2}$ -->
      <g transform="translate(207.260778 668.492931) scale(0.22 -0.22)">
       <defs>
        <path id="CMR17-32" d="M 2669 989 
L 2554 989 
C 2490 536 2438 459 2413 420 
C 2381 369 1920 369 1830 369 
L 602 369 
C 832 619 1280 1072 1824 1597 
C 2214 1967 2669 2402 2669 3035 
C 2669 3790 2067 4224 1395 4224 
C 691 4224 262 3604 262 3030 
C 262 2780 448 2748 525 2748 
C 589 2748 781 2787 781 3010 
C 781 3207 614 3264 525 3264 
C 486 3264 448 3258 422 3245 
C 544 3790 915 4058 1306 4058 
C 1862 4058 2227 3617 2227 3035 
C 2227 2479 1901 2000 1536 1584 
L 262 146 
L 262 0 
L 2515 0 
L 2669 989 
z
" transform="scale(0.015625)"/>
       </defs>
       <use xlink:href="#CMR17-30" transform="scale(0.996264)"/>
       <use xlink:href="#CMMI12-3a" transform="translate(45.690477 0) scale(0.996264)"/>
       <use xlink:href="#CMR17-32" transform="translate(72.787654 0) scale(0.996264)"/>
      </g>
     </g>
    </g>
    <g id="xtick_3">
     <g id="line2d_3">
      <g>
       <use xlink:href="#m3385fdae1e" x="332.280814" y="646.272238" style="stroke: #000000; stroke-width: 0.8"/>
      </g>
     </g>
     <g id="text_3">
      <!-- $\mathdefault{0.4}$ -->
      <g transform="translate(319.24822 668.492931) scale(0.22 -0.22)">
       <defs>
        <path id="CMR17-34" d="M 2150 4122 
C 2150 4256 2144 4256 2029 4256 
L 128 1254 
L 128 1088 
L 1779 1088 
L 1779 457 
C 1779 224 1766 160 1318 160 
L 1197 160 
L 1197 0 
C 1402 0 1747 0 1965 0 
C 2182 0 2528 0 2733 0 
L 2733 160 
L 2611 160 
C 2163 160 2150 224 2150 457 
L 2150 1088 
L 2803 1088 
L 2803 1254 
L 2150 1254 
L 2150 4122 
z
M 1798 3703 
L 1798 1254 
L 256 1254 
L 1798 3703 
z
" transform="scale(0.015625)"/>
       </defs>
       <use xlink:href="#CMR17-30" transform="scale(0.996264)"/>
       <use xlink:href="#CMMI12-3a" transform="translate(45.690477 0) scale(0.996264)"/>
       <use xlink:href="#CMR17-34" transform="translate(72.787654 0) scale(0.996264)"/>
      </g>
     </g>
    </g>
    <g id="xtick_4">
     <g id="line2d_4">
      <g>
       <use xlink:href="#m3385fdae1e" x="444.268256" y="646.272238" style="stroke: #000000; stroke-width: 0.8"/>
      </g>
     </g>
     <g id="text_4">
      <!-- $\mathdefault{0.6}$ -->
      <g transform="translate(431.235662 668.492931) scale(0.22 -0.22)">
       <defs>
        <path id="CMR17-36" d="M 678 2176 
C 678 3690 1395 4032 1811 4032 
C 1946 4032 2272 4009 2400 3776 
C 2298 3776 2106 3776 2106 3553 
C 2106 3381 2246 3323 2336 3323 
C 2394 3323 2566 3348 2566 3560 
C 2566 3954 2246 4179 1805 4179 
C 1043 4179 243 3390 243 1984 
C 243 253 966 -128 1478 -128 
C 2099 -128 2688 427 2688 1283 
C 2688 2081 2170 2662 1517 2662 
C 1126 2662 838 2407 678 1960 
L 678 2176 
z
M 1478 25 
C 691 25 691 1200 691 1436 
C 691 1896 909 2560 1504 2560 
C 1613 2560 1926 2560 2138 2120 
C 2253 1870 2253 1609 2253 1289 
C 2253 944 2253 690 2118 434 
C 1978 171 1773 25 1478 25 
z
" transform="scale(0.015625)"/>
       </defs>
       <use xlink:href="#CMR17-30" transform="scale(0.996264)"/>
       <use xlink:href="#CMMI12-3a" transform="translate(45.690477 0) scale(0.996264)"/>
       <use xlink:href="#CMR17-36" transform="translate(72.787654 0) scale(0.996264)"/>
      </g>
     </g>
    </g>
    <g id="xtick_5">
     <g id="line2d_5">
      <g>
       <use xlink:href="#m3385fdae1e" x="556.255698" y="646.272238" style="stroke: #000000; stroke-width: 0.8"/>
      </g>
     </g>
     <g id="text_5">
      <!-- $\mathdefault{0.8}$ -->
      <g transform="translate(543.223103 668.492931) scale(0.22 -0.22)">
       <defs>
        <path id="CMR17-38" d="M 1741 2264 
C 2144 2467 2554 2773 2554 3263 
C 2554 3841 1990 4179 1472 4179 
C 890 4179 378 3759 378 3180 
C 378 3021 416 2747 666 2505 
C 730 2442 998 2251 1171 2130 
C 883 1983 211 1634 211 934 
C 211 279 838 -128 1459 -128 
C 2144 -128 2720 362 2720 1010 
C 2720 1590 2330 1857 2074 2029 
L 1741 2264 
z
M 902 2822 
C 851 2854 595 3051 595 3351 
C 595 3739 998 4032 1459 4032 
C 1965 4032 2336 3676 2336 3262 
C 2336 2669 1670 2331 1638 2331 
C 1632 2331 1626 2331 1574 2370 
L 902 2822 
z
M 2080 1519 
C 2176 1449 2483 1240 2483 851 
C 2483 381 2010 25 1472 25 
C 890 25 448 438 448 940 
C 448 1443 838 1862 1280 2060 
L 2080 1519 
z
" transform="scale(0.015625)"/>
       </defs>
       <use xlink:href="#CMR17-30" transform="scale(0.996264)"/>
       <use xlink:href="#CMMI12-3a" transform="translate(45.690477 0) scale(0.996264)"/>
       <use xlink:href="#CMR17-38" transform="translate(72.787654 0) scale(0.996264)"/>
      </g>
     </g>
    </g>
    <g id="xtick_6">
     <g id="line2d_6">
      <g>
       <use xlink:href="#m3385fdae1e" x="668.24314" y="646.272238" style="stroke: #000000; stroke-width: 0.8"/>
      </g>
     </g>
     <g id="text_6">
      <!-- $\mathdefault{1.0}$ -->
      <g transform="translate(655.210545 668.492931) scale(0.22 -0.22)">
       <defs>
        <path id="CMR17-31" d="M 1702 4058 
C 1702 4192 1696 4192 1606 4192 
C 1357 3916 979 3827 621 3827 
C 602 3827 570 3827 563 3808 
C 557 3795 557 3782 557 3648 
C 755 3648 1088 3686 1344 3839 
L 1344 461 
C 1344 236 1331 160 781 160 
L 589 160 
L 589 0 
C 896 0 1216 0 1523 0 
C 1830 0 2150 0 2458 0 
L 2458 160 
L 2266 160 
C 1715 160 1702 230 1702 458 
L 1702 4058 
z
" transform="scale(0.015625)"/>
       </defs>
       <use xlink:href="#CMR17-31" transform="scale(0.996264)"/>
       <use xlink:href="#CMMI12-3a" transform="translate(45.690477 0) scale(0.996264)"/>
       <use xlink:href="#CMR17-30" transform="translate(72.787654 0) scale(0.996264)"/>
      </g>
     </g>
    </g>
    <g id="text_7">
     <!-- $p_0$ -->
     <g transform="translate(379.133346 691.976812) scale(0.22 -0.22)">
      <defs>
       <path id="CMMI12-70" d="M 275 -789 
C 230 -980 205 -1031 -58 -1031 
C -134 -1031 -198 -1031 -198 -1152 
C -198 -1165 -192 -1216 -122 -1216 
C -38 -1216 51 -1216 134 -1216 
L 410 -1216 
C 544 -1216 870 -1216 1005 -1216 
C 1043 -1216 1120 -1216 1120 -1101 
C 1120 -1031 1075 -1031 966 -1031 
C 672 -1031 653 -987 653 -937 
C 653 -861 941 219 979 364 
C 1050 185 1222 -64 1555 -64 
C 2278 -64 3059 875 3059 1814 
C 3059 2401 2726 2816 2246 2816 
C 1837 2816 1491 2420 1421 2331 
C 1370 2650 1120 2816 864 2816 
C 678 2816 531 2727 410 2484 
C 294 2254 205 1865 205 1839 
C 205 1814 230 1782 275 1782 
C 326 1782 333 1788 371 1935 
C 467 2312 589 2689 845 2689 
C 992 2689 1043 2587 1043 2397 
C 1043 2245 1024 2181 998 2067 
L 275 -789 
z
M 1382 1993 
C 1427 2171 1606 2357 1709 2446 
C 1779 2510 1990 2689 2234 2689 
C 2515 2689 2643 2408 2643 2076 
C 2643 1769 2464 1047 2304 715 
C 2144 370 1850 64 1555 64 
C 1120 64 1050 613 1050 639 
C 1050 658 1062 709 1069 741 
L 1382 1993 
z
" transform="scale(0.015625)"/>
      </defs>
      <use xlink:href="#CMMI12-70" transform="scale(0.996264)"/>
      <use xlink:href="#CMR17-30" transform="translate(48.959514 -14.943915) scale(0.697382)"/>
     </g>
    </g>
   </g>
   <g id="matplotlib.axis_2">
    <g id="ytick_1">
     <g id="line2d_7">
      <defs>
       <path id="ma600d9e374" d="M 0 0 
L -3.5 0 
" style="stroke: #000000; stroke-width: 0.8"/>
      </defs>
      <g>
       <use xlink:href="#ma600d9e374" x="80.30907" y="617.976227" style="stroke: #000000; stroke-width: 0.8"/>
      </g>
     </g>
     <g id="text_8">
      <!-- $\mathdefault{0.0}$ -->
      <g transform="translate(47.243881 625.586573) scale(0.22 -0.22)">
       <use xlink:href="#CMR17-30" transform="scale(0.996264)"/>
       <use xlink:href="#CMMI12-3a" transform="translate(45.690477 0) scale(0.996264)"/>
       <use xlink:href="#CMR17-30" transform="translate(72.787654 0) scale(0.996264)"/>
      </g>
     </g>
    </g>
    <g id="ytick_2">
     <g id="line2d_8">
      <g>
       <use xlink:href="#ma600d9e374" x="80.30907" y="504.792184" style="stroke: #000000; stroke-width: 0.8"/>
      </g>
     </g>
     <g id="text_9">
      <!-- $\mathdefault{0.2}$ -->
      <g transform="translate(47.243881 512.40253) scale(0.22 -0.22)">
       <use xlink:href="#CMR17-30" transform="scale(0.996264)"/>
       <use xlink:href="#CMMI12-3a" transform="translate(45.690477 0) scale(0.996264)"/>
       <use xlink:href="#CMR17-32" transform="translate(72.787654 0) scale(0.996264)"/>
      </g>
     </g>
    </g>
    <g id="ytick_3">
     <g id="line2d_9">
      <g>
       <use xlink:href="#ma600d9e374" x="80.30907" y="391.60814" style="stroke: #000000; stroke-width: 0.8"/>
      </g>
     </g>
     <g id="text_10">
      <!-- $\mathdefault{0.4}$ -->
      <g transform="translate(47.243881 399.218487) scale(0.22 -0.22)">
       <use xlink:href="#CMR17-30" transform="scale(0.996264)"/>
       <use xlink:href="#CMMI12-3a" transform="translate(45.690477 0) scale(0.996264)"/>
       <use xlink:href="#CMR17-34" transform="translate(72.787654 0) scale(0.996264)"/>
      </g>
     </g>
    </g>
    <g id="ytick_4">
     <g id="line2d_10">
      <g>
       <use xlink:href="#ma600d9e374" x="80.30907" y="278.424097" style="stroke: #000000; stroke-width: 0.8"/>
      </g>
     </g>
     <g id="text_11">
      <!-- $\mathdefault{0.6}$ -->
      <g transform="translate(47.243881 286.034444) scale(0.22 -0.22)">
       <use xlink:href="#CMR17-30" transform="scale(0.996264)"/>
       <use xlink:href="#CMMI12-3a" transform="translate(45.690477 0) scale(0.996264)"/>
       <use xlink:href="#CMR17-36" transform="translate(72.787654 0) scale(0.996264)"/>
      </g>
     </g>
    </g>
    <g id="ytick_5">
     <g id="line2d_11">
      <g>
       <use xlink:href="#ma600d9e374" x="80.30907" y="165.240054" style="stroke: #000000; stroke-width: 0.8"/>
      </g>
     </g>
     <g id="text_12">
      <!-- $\mathdefault{0.8}$ -->
      <g transform="translate(47.243881 172.850401) scale(0.22 -0.22)">
       <use xlink:href="#CMR17-30" transform="scale(0.996264)"/>
       <use xlink:href="#CMMI12-3a" transform="translate(45.690477 0) scale(0.996264)"/>
       <use xlink:href="#CMR17-38" transform="translate(72.787654 0) scale(0.996264)"/>
      </g>
     </g>
    </g>
    <g id="ytick_6">
     <g id="line2d_12">
      <g>
       <use xlink:href="#ma600d9e374" x="80.30907" y="52.056011" style="stroke: #000000; stroke-width: 0.8"/>
      </g>
     </g>
     <g id="text_13">
      <!-- $\mathdefault{1.0}$ -->
      <g transform="translate(47.243881 59.666357) scale(0.22 -0.22)">
       <use xlink:href="#CMR17-31" transform="scale(0.996264)"/>
       <use xlink:href="#CMMI12-3a" transform="translate(45.690477 0) scale(0.996264)"/>
       <use xlink:href="#CMR17-30" transform="translate(72.787654 0) scale(0.996264)"/>
      </g>
     </g>
    </g>
    <g id="text_14">
     <!-- $p_2$ -->
     <g transform="translate(38.980693 344.157308) rotate(-90) scale(0.22 -0.22)">
      <use xlink:href="#CMMI12-70" transform="scale(0.996264)"/>
      <use xlink:href="#CMR17-32" transform="translate(48.959514 -14.943915) scale(0.697382)"/>
     </g>
    </g>
   </g>
   <g id="line2d_13">
    <path d="M 108.305931 52.056011 
L 113.961862 57.772377 
L 119.617793 63.488742 
L 125.273725 69.205108 
L 130.929656 74.921474 
L 136.585588 80.63784 
L 142.241519 86.354206 
L 147.89745 92.070572 
L 153.553382 97.786937 
L 159.209313 103.503303 
L 164.865245 109.219669 
L 170.521176 114.936035 
L 176.177107 120.652401 
L 181.833039 126.368766 
L 187.48897 132.085132 
L 193.144902 137.801498 
L 198.800833 143.517864 
L 204.456764 149.23423 
L 210.112696 154.950596 
L 215.768627 160.666961 
L 221.424559 166.383327 
L 227.08049 172.099693 
L 232.736421 177.816059 
L 238.392353 183.532425 
L 244.048284 189.24879 
L 249.704216 194.965156 
L 255.360147 200.681522 
L 261.016078 206.397888 
L 266.67201 212.114254 
L 272.327941 217.830619 
L 277.983873 223.546985 
L 283.639804 229.263351 
L 289.295736 234.979717 
L 294.951667 240.696083 
L 300.607598 246.412449 
L 306.26353 252.128814 
L 311.919461 257.84518 
L 317.575393 263.561546 
L 323.231324 269.277912 
L 328.887255 274.994278 
L 334.543187 280.710643 
L 340.199118 286.427009 
L 345.85505 292.143375 
L 351.510981 297.859741 
L 357.166912 303.576107 
L 362.822844 309.292473 
L 368.478775 315.008838 
L 374.134707 320.725204 
L 379.790638 326.44157 
L 385.446569 332.157936 
L 391.102501 337.874302 
L 396.758432 343.590667 
L 402.414364 349.307033 
L 408.070295 355.023399 
L 413.726226 360.739765 
L 419.382158 366.456131 
L 425.038089 372.172497 
L 430.694021 377.888862 
L 436.349952 383.605228 
L 442.005883 389.321594 
L 447.661815 395.03796 
L 453.317746 400.754326 
L 458.973678 406.470691 
L 464.629609 412.187057 
L 470.28554 417.903423 
L 475.941472 423.619789 
L 481.597403 429.336155 
L 487.253335 435.052521 
L 492.909266 440.768886 
L 498.565197 446.485252 
L 504.221129 452.201618 
L 509.87706 457.917984 
L 515.532992 463.63435 
L 521.188923 469.350715 
L 526.844854 475.067081 
L 532.500786 480.783447 
L 538.156717 486.499813 
L 543.812649 492.216179 
L 549.46858 497.932545 
L 555.124511 503.64891 
L 560.780443 509.365276 
L 566.436374 515.081642 
L 572.092306 520.798008 
L 577.748237 526.514374 
L 583.404168 532.230739 
L 589.0601 537.947105 
L 594.716031 543.663471 
L 600.371963 549.379837 
L 606.027894 555.096203 
L 611.683826 560.812569 
L 617.339757 566.528934 
L 622.995688 572.2453 
L 628.65162 577.961666 
L 634.307551 583.678032 
L 639.963483 589.394398 
L 645.619414 595.110763 
L 651.275345 600.827129 
L 656.931277 606.543495 
L 662.587208 612.259861 
L 668.24314 617.976227 
" clip-path="url(#pbe968ad550)" style="fill: none; stroke: #1f77b4; stroke-width: 1.5; stroke-linecap: square"/>
   </g>
   <g id="line2d_14">
    <path d="M 108.305931 52.056011 
L 113.961862 160.093888 
L 119.617793 201.496073 
L 125.273725 231.935043 
L 130.929656 256.699034 
L 136.585588 277.836403 
L 142.241519 296.397669 
L 147.89745 313.006889 
L 153.553382 328.070672 
L 159.209313 341.871449 
L 164.865245 354.614856 
L 170.521176 366.456131 
L 176.177107 377.51588 
L 181.833039 387.890013 
L 187.48897 397.656295 
L 193.144902 406.878814 
L 198.800833 415.611132 
L 204.456764 423.898553 
L 210.112696 431.779808 
L 215.768627 439.288312 
L 221.424559 446.453137 
L 227.08049 453.29976 
L 232.736421 459.850659 
L 238.392353 466.125784 
L 244.048284 472.142936 
L 249.704216 477.918083 
L 255.360147 483.465607 
L 261.016078 488.798522 
L 266.67201 493.928646 
L 272.327941 498.866751 
L 277.983873 503.622688 
L 283.639804 508.205493 
L 289.295736 512.62348 
L 294.951667 516.884317 
L 300.607598 520.995095 
L 306.26353 524.962387 
L 311.919461 528.792302 
L 317.575393 532.490525 
L 323.231324 536.062361 
L 328.887255 539.512767 
L 334.543187 542.846384 
L 340.199118 546.067566 
L 345.85505 549.180402 
L 351.510981 552.188739 
L 357.166912 555.096203 
L 362.822844 557.906212 
L 368.478775 560.621999 
L 374.134707 563.24662 
L 379.790638 565.782969 
L 385.446569 568.23379 
L 391.102501 570.601689 
L 396.758432 572.889142 
L 402.414364 575.098504 
L 408.070295 577.232015 
L 413.726226 579.291814 
L 419.382158 581.279939 
L 425.038089 583.198336 
L 430.694021 585.048864 
L 436.349952 586.833302 
L 442.005883 588.553351 
L 447.661815 590.210643 
L 453.317746 591.806739 
L 458.973678 593.343139 
L 464.629609 594.821281 
L 470.28554 596.242546 
L 475.941472 597.608264 
L 481.597403 598.91971 
L 487.253335 600.178113 
L 492.909266 601.384658 
L 498.565197 602.540483 
L 504.221129 603.646687 
L 509.87706 604.704331 
L 515.532992 605.714435 
L 521.188923 606.677988 
L 526.844854 607.595943 
L 532.500786 608.469221 
L 538.156717 609.298712 
L 543.812649 610.085278 
L 549.46858 610.829753 
L 555.124511 611.532943 
L 560.780443 612.19563 
L 566.436374 612.818571 
L 572.092306 613.4025 
L 577.748237 613.948128 
L 583.404168 614.456145 
L 589.0601 614.927221 
L 594.716031 615.362007 
L 600.371963 615.761133 
L 606.027894 616.125212 
L 611.683826 616.45484 
L 617.339757 616.750596 
L 622.995688 617.013043 
L 628.65162 617.242729 
L 634.307551 617.440187 
L 639.963483 617.605934 
L 645.619414 617.740475 
L 651.275345 617.844303 
L 656.931277 617.917895 
L 662.587208 617.961718 
L 668.24314 617.976227 
" clip-path="url(#pbe968ad550)" style="fill: none; stroke: #ff7f0e; stroke-width: 1.5; stroke-linecap: square"/>
   </g>
   <g id="patch_3">
    <path d="M 80.30907 646.272238 
L 80.30907 23.76 
" style="fill: none; stroke: #000000; stroke-width: 0.8; stroke-linejoin: miter; stroke-linecap: square"/>
   </g>
   <g id="patch_4">
    <path d="M 696.24 646.272238 
L 696.24 23.76 
" style="fill: none; stroke: #000000; stroke-width: 0.8; stroke-linejoin: miter; stroke-linecap: square"/>
   </g>
   <g id="patch_5">
    <path d="M 80.30907 646.272238 
L 696.24 646.272238 
" style="fill: none; stroke: #000000; stroke-width: 0.8; stroke-linejoin: miter; stroke-linecap: square"/>
   </g>
   <g id="patch_6">
    <path d="M 80.30907 23.76 
L 696.24 23.76 
" style="fill: none; stroke: #000000; stroke-width: 0.8; stroke-linejoin: miter; stroke-linecap: square"/>
   </g>
   <g id="legend_1">
    <g id="patch_7">
     <path d="M 559.03534 133.349564 
L 680.84 133.349564 
Q 685.24 133.349564 685.24 128.949564 
L 685.24 39.16 
Q 685.24 34.76 680.84 34.76 
L 559.03534 34.76 
Q 554.63534 34.76 554.63534 39.16 
L 554.63534 128.949564 
Q 554.63534 133.349564 559.03534 133.349564 
z
" style="fill: #ffffff; opacity: 0.8; stroke: #cccccc; stroke-linejoin: miter"/>
    </g>
    <g id="PathCollection_2">
     <g>
      <use xlink:href="#m3fec2054d8" x="585.43534" y="53.185" style="fill: #d62728; stroke: #d62728"/>
     </g>
    </g>
    <g id="text_15">
     <!-- Sim -->
     <g transform="translate(625.03534 58.96) scale(0.22 -0.22)">
      <defs>
       <path id="CMSS17-53" d="M 2797 4169 
C 2515 4334 2208 4480 1690 4480 
C 864 4480 333 3879 333 3266 
C 333 3025 403 2753 653 2475 
C 902 2196 1184 2121 1542 2033 
C 1690 1994 1939 1924 1984 1906 
C 2342 1767 2515 1444 2515 1140 
C 2515 742 2202 318 1645 318 
C 1453 318 890 318 358 819 
L 269 318 
C 794 -64 1363 -128 1651 -128 
C 2438 -128 3002 488 3002 1186 
C 3002 1440 2925 1763 2656 2061 
C 2394 2347 2163 2410 1638 2549 
C 1338 2626 1146 2677 986 2873 
C 877 3013 819 3146 819 3317 
C 819 3673 1126 4060 1690 4060 
C 1971 4060 2336 4002 2707 3660 
L 2797 4169 
z
" transform="scale(0.015625)"/>
       <path id="CMSS17-69" d="M 979 4183 
L 442 4183 
L 442 3648 
L 979 3648 
L 979 4183 
z
M 947 2739 
L 474 2739 
L 474 0 
L 947 0 
L 947 2739 
z
" transform="scale(0.015625)"/>
       <path id="CMSS17-6d" d="M 4288 1877 
C 4288 2308 4179 2816 3462 2816 
C 2982 2816 2694 2516 2566 2331 
C 2451 2670 2182 2816 1798 2816 
C 1363 2816 1088 2568 941 2389 
L 941 2758 
L 474 2758 
L 474 0 
L 960 0 
L 960 1559 
C 960 1939 1101 2428 1555 2428 
C 2138 2428 2138 2016 2138 1829 
L 2138 0 
L 2624 0 
L 2624 1559 
C 2624 1939 2765 2428 3219 2428 
C 3802 2428 3802 2016 3802 1829 
L 3802 0 
L 4288 0 
L 4288 1877 
z
" transform="scale(0.015625)"/>
      </defs>
      <use xlink:href="#CMSS17-53" transform="scale(0.996264)"/>
      <use xlink:href="#CMSS17-69" transform="translate(52.048516 0) scale(0.996264)"/>
      <use xlink:href="#CMSS17-6d" transform="translate(74.229239 0) scale(0.996264)"/>
     </g>
    </g>
    <g id="line2d_15">
     <path d="M 563.43534 81.923188 
L 585.43534 81.923188 
L 607.43534 81.923188 
" style="fill: none; stroke: #1f77b4; stroke-width: 1.5; stroke-linecap: square"/>
    </g>
    <g id="text_16">
     <!-- Coord -->
     <g transform="translate(625.03534 89.623188) scale(0.22 -0.22)">
      <defs>
       <path id="CMSS17-43" d="M 3501 714 
C 3072 427 2874 344 2355 344 
C 1459 344 934 1303 934 2179 
C 934 3112 1472 4032 2381 4032 
C 2790 4032 3059 3918 3386 3715 
L 3475 4217 
C 3168 4370 2778 4440 2387 4440 
C 1158 4440 397 3316 397 2179 
C 397 927 1299 -64 2323 -64 
C 2874 -64 3066 -19 3539 280 
L 3501 714 
z
" transform="scale(0.015625)"/>
       <path id="CMSS17-6f" d="M 2829 1356 
C 2829 2176 2221 2816 1504 2816 
C 768 2816 173 2157 173 1356 
C 173 544 787 -64 1498 -64 
C 2227 -64 2829 563 2829 1356 
z
M 1504 337 
C 1050 337 659 709 659 1408 
C 659 2151 1114 2427 1498 2427 
C 1914 2427 2342 2126 2342 1408 
C 2342 683 1926 337 1504 337 
z
" transform="scale(0.015625)"/>
       <path id="CMSS17-72" d="M 954 1363 
C 954 1965 1395 2368 1958 2368 
L 1958 2789 
C 1549 2789 1165 2585 934 2253 
L 934 2758 
L 480 2758 
L 480 0 
L 954 0 
L 954 1363 
z
" transform="scale(0.015625)"/>
       <path id="CMSS17-64" d="M 2611 4416 
L 2138 4416 
L 2138 2438 
C 1939 2603 1613 2756 1254 2756 
C 672 2756 211 2131 211 1347 
C 211 562 666 -64 1235 -64 
C 1677 -64 1971 172 2125 306 
L 2125 -13 
L 2611 -13 
L 2611 4416 
z
M 2125 836 
C 2125 747 2125 653 1926 482 
C 1798 375 1645 325 1498 325 
C 1152 325 698 576 698 1340 
C 698 2134 1210 2368 1562 2368 
C 1798 2368 1990 2254 2125 2065 
L 2125 836 
z
" transform="scale(0.015625)"/>
      </defs>
      <use xlink:href="#CMSS17-43" transform="scale(0.996264)"/>
      <use xlink:href="#CMSS17-6f" transform="translate(59.855772 0) scale(0.996264)"/>
      <use xlink:href="#CMSS17-6f" transform="translate(109.301834 0) scale(0.996264)"/>
      <use xlink:href="#CMSS17-72" transform="translate(153.543003 0) scale(0.996264)"/>
      <use xlink:href="#CMSS17-64" transform="translate(185.452776 0) scale(0.996264)"/>
     </g>
    </g>
    <g id="line2d_16">
     <path d="M 563.43534 112.586376 
L 585.43534 112.586376 
L 607.43534 112.586376 
" style="fill: none; stroke: #ff7f0e; stroke-width: 1.5; stroke-linecap: square"/>
    </g>
    <g id="text_17">
     <!-- Indep -->
     <g transform="translate(625.03534 120.286376) scale(0.22 -0.22)">
      <defs>
       <path id="CMSS17-49" d="M 1094 4416 
L 557 4416 
L 557 0 
L 1094 0 
L 1094 4416 
z
" transform="scale(0.015625)"/>
       <path id="CMSS17-6e" d="M 2618 1877 
C 2618 2283 2522 2816 1798 2816 
C 1389 2816 1120 2606 941 2389 
L 941 2758 
L 474 2758 
L 474 0 
L 960 0 
L 960 1559 
C 960 1964 1114 2428 1549 2428 
C 2112 2428 2131 2048 2131 1829 
L 2131 0 
L 2618 0 
L 2618 1877 
z
" transform="scale(0.015625)"/>
       <path id="CMSS17-65" d="M 2502 1377 
C 2502 1590 2490 2003 2285 2345 
C 2061 2713 1696 2816 1421 2816 
C 755 2816 192 2188 192 1375 
C 192 582 774 -64 1510 -64 
C 1798 -64 2150 19 2470 248 
C 2470 274 2458 414 2451 420 
C 2451 433 2432 630 2432 656 
C 2125 407 1773 325 1517 325 
C 1107 325 666 667 646 1377 
L 2502 1377 
z
M 698 1728 
C 781 2084 1062 2421 1421 2421 
C 1517 2421 1965 2421 2080 1728 
L 698 1728 
z
" transform="scale(0.015625)"/>
       <path id="CMSS17-70" d="M 966 333 
C 1178 129 1466 -5 1773 -5 
C 2368 -5 2880 603 2880 1412 
C 2880 2159 2496 2816 1946 2816 
C 1626 2816 1242 2702 954 2472 
L 954 2765 
L 480 2765 
L 480 -1216 
L 966 -1216 
L 966 333 
z
M 966 2100 
C 1018 2176 1235 2415 1587 2415 
C 2035 2415 2394 1960 2394 1412 
C 2394 787 1958 384 1530 384 
C 1402 384 1267 415 1139 523 
C 966 674 966 768 966 857 
L 966 2100 
z
" transform="scale(0.015625)"/>
      </defs>
      <use xlink:href="#CMSS17-49" transform="scale(0.996264)"/>
      <use xlink:href="#CMSS17-6e" transform="translate(25.783926 0) scale(0.996264)"/>
      <use xlink:href="#CMSS17-64" transform="translate(73.988869 0) scale(0.996264)"/>
      <use xlink:href="#CMSS17-65" transform="translate(122.193812 0) scale(0.996264)"/>
      <use xlink:href="#CMSS17-70" transform="translate(163.832634 0) scale(0.996264)"/>
     </g>
    </g>
   </g>
  </g>
 </g>
 <defs>
  <clipPath id="pbe968ad550">
   <rect x="80.30907" y="23.76" width="615.93093" height="622.512238"/>
  </clipPath>
 </defs>
</svg>
