<?xml version="1.0" encoding="utf-8" standalone="no"?>
<!DOCTYPE svg PUBLIC "-//W3C//DTD SVG 1.1//EN"
  "http://www.w3.org/Graphics/SVG/1.1/DTD/svg11.dtd">
<svg xmlns:xlink="http://www.w3.org/1999/xlink" width="720pt" height="720pt" viewBox="0 0 720 720" xmlns="http://www.w3.org/2000/svg" version="1.1">
 <metadata>
  <rdf:RDF xmlns:dc="http://purl.org/dc/elements/1.1/" xmlns:cc="http://creativecommons.org/ns#" xmlns:rdf="http://www.w3.org/1999/02/22-rdf-syntax-ns#">
   <cc:Work>
    <dc:type rdf:resource="http://purl.org/dc/dcmitype/StillImage"/>
    <dc:date>2022-11-02T15:36:14.857410</dc:date>
    <dc:format>image/svg+xml</dc:format>
    <dc:creator>
     <cc:Agent>
      <dc:title>Matplotlib v3.6.0, https://matplotlib.org/</dc:title>
     </cc:Agent>
    </dc:creator>
   </cc:Work>
  </rdf:RDF>
 </metadata>
 <defs>
  <style type="text/css">*{stroke-linejoin: round; stroke-linecap: butt}</style>
 </defs>
 <g id="figure_1">
  <g id="patch_1">
   <path d="M 0 720 
L 720 720 
L 720 0 
L 0 0 
z
" style="fill: #ffffff"/>
  </g>
  <g id="axes_1">
   <g id="patch_2">
    <path d="M 80.30907 646.272238 
L 696.24 646.272238 
L 696.24 23.76 
L 80.30907 23.76 
z
" style="fill: #ffffff"/>
   </g>
   <g id="PathCollection_1">
    <defs>
     <path id="C0_0_28e711b086" d="M 0 3 
C 0.795609 3 1.55874 2.683901 2.12132 2.12132 
C 2.683901 1.55874 3 0.795609 3 -0 
C 3 -0.795609 2.683901 -1.55874 2.12132 -2.12132 
C 1.55874 -2.683901 0.795609 -3 0 -3 
C -0.795609 -3 -1.55874 -2.683901 -2.12132 -2.12132 
C -2.683901 -1.55874 -3 -0.795609 -3 0 
C -3 0.795609 -2.683901 1.55874 -2.12132 2.12132 
C -1.55874 2.683901 -0.795609 3 0 3 
z
"/>
    </defs>
    <g clip-path="url(#pf7b117c240)">
     <use xlink:href="#C0_0_28e711b086" x="108.305931" y="52.056011" style="fill: #3b4cc0"/>
    </g>
    <g clip-path="url(#pf7b117c240)">
     <use xlink:href="#C0_0_28e711b086" x="110.698929" y="80.630197" style="fill: #3d50c3"/>
    </g>
    <g clip-path="url(#pf7b117c240)">
     <use xlink:href="#C0_0_28e711b086" x="114.366946" y="107.117462" style="fill: #4055c8"/>
    </g>
    <g clip-path="url(#pf7b117c240)">
     <use xlink:href="#C0_0_28e711b086" x="119.095527" y="131.726419" style="fill: #4358cb"/>
    </g>
    <g clip-path="url(#pf7b117c240)">
     <use xlink:href="#C0_0_28e711b086" x="124.704178" y="154.639682" style="fill: #465ecf"/>
    </g>
    <g clip-path="url(#pf7b117c240)">
     <use xlink:href="#C0_0_28e711b086" x="131.040586" y="176.017707" style="fill: #4a63d3"/>
    </g>
    <g clip-path="url(#pf7b117c240)">
     <use xlink:href="#C0_0_28e711b086" x="137.975919" y="196.001975" style="fill: #4c66d6"/>
    </g>
    <g clip-path="url(#pf7b117c240)">
     <use xlink:href="#C0_0_28e711b086" x="145.400982" y="214.717659" style="fill: #506bda"/>
    </g>
    <g clip-path="url(#pf7b117c240)">
     <use xlink:href="#C0_0_28e711b086" x="153.223057" y="232.275854" style="fill: #536edd"/>
    </g>
    <g clip-path="url(#pf7b117c240)">
     <use xlink:href="#C0_0_28e711b086" x="161.363296" y="248.77546" style="fill: #5673e0"/>
    </g>
    <g clip-path="url(#pf7b117c240)">
     <use xlink:href="#C0_0_28e711b086" x="169.754565" y="264.304774" style="fill: #5a78e4"/>
    </g>
    <g clip-path="url(#pf7b117c240)">
     <use xlink:href="#C0_0_28e711b086" x="178.339646" y="278.942842" style="fill: #5d7ce6"/>
    </g>
    <g clip-path="url(#pf7b117c240)">
     <use xlink:href="#C0_0_28e711b086" x="187.06974" y="292.760618" style="fill: #6180e9"/>
    </g>
    <g clip-path="url(#pf7b117c240)">
     <use xlink:href="#C0_0_28e711b086" x="195.903213" y="305.821944" style="fill: #6384eb"/>
    </g>
    <g clip-path="url(#pf7b117c240)">
     <use xlink:href="#C0_0_28e711b086" x="204.804543" y="318.184409" style="fill: #6788ee"/>
    </g>
    <g clip-path="url(#pf7b117c240)">
     <use xlink:href="#C0_0_28e711b086" x="213.743431" y="329.900075" style="fill: #6b8df0"/>
    </g>
    <g clip-path="url(#pf7b117c240)">
     <use xlink:href="#C0_0_28e711b086" x="222.694052" y="341.016112" style="fill: #6e90f2"/>
    </g>
    <g clip-path="url(#pf7b117c240)">
     <use xlink:href="#C0_0_28e711b086" x="231.634419" y="351.575347" style="fill: #7295f4"/>
    </g>
    <g clip-path="url(#pf7b117c240)">
     <use xlink:href="#C0_0_28e711b086" x="240.545842" y="361.616742" style="fill: #7699f6"/>
    </g>
    <g clip-path="url(#pf7b117c240)">
     <use xlink:href="#C0_0_28e711b086" x="249.412472" y="371.175814" style="fill: #799cf8"/>
    </g>
    <g clip-path="url(#pf7b117c240)">
     <use xlink:href="#C0_0_28e711b086" x="258.220902" y="380.284996" style="fill: #7da0f9"/>
    </g>
    <g clip-path="url(#pf7b117c240)">
     <use xlink:href="#C0_0_28e711b086" x="266.959837" y="388.973961" style="fill: #80a3fa"/>
    </g>
    <g clip-path="url(#pf7b117c240)">
     <use xlink:href="#C0_0_28e711b086" x="275.619805" y="397.269902" style="fill: #84a7fc"/>
    </g>
    <g clip-path="url(#pf7b117c240)">
     <use xlink:href="#C0_0_28e711b086" x="284.192905" y="405.197782" style="fill: #88abfd"/>
    </g>
    <g clip-path="url(#pf7b117c240)">
     <use xlink:href="#C0_0_28e711b086" x="292.672601" y="412.78055" style="fill: #8badfd"/>
    </g>
    <g clip-path="url(#pf7b117c240)">
     <use xlink:href="#C0_0_28e711b086" x="301.053534" y="420.03934" style="fill: #8fb1fe"/>
    </g>
    <g clip-path="url(#pf7b117c240)">
     <use xlink:href="#C0_0_28e711b086" x="309.331366" y="426.993642" style="fill: #92b4fe"/>
    </g>
    <g clip-path="url(#pf7b117c240)">
     <use xlink:href="#C0_0_28e711b086" x="317.50264" y="433.661456" style="fill: #96b7ff"/>
    </g>
    <g clip-path="url(#pf7b117c240)">
     <use xlink:href="#C0_0_28e711b086" x="325.564665" y="440.059429" style="fill: #9abbff"/>
    </g>
    <g clip-path="url(#pf7b117c240)">
     <use xlink:href="#C0_0_28e711b086" x="333.515409" y="446.202974" style="fill: #9dbdff"/>
    </g>
    <g clip-path="url(#pf7b117c240)">
     <use xlink:href="#C0_0_28e711b086" x="341.353415" y="452.106388" style="fill: #a1c0ff"/>
    </g>
    <g clip-path="url(#pf7b117c240)">
     <use xlink:href="#C0_0_28e711b086" x="349.077718" y="457.78294" style="fill: #a3c2fe"/>
    </g>
    <g clip-path="url(#pf7b117c240)">
     <use xlink:href="#C0_0_28e711b086" x="356.687781" y="463.244966" style="fill: #a7c5fe"/>
    </g>
    <g clip-path="url(#pf7b117c240)">
     <use xlink:href="#C0_0_28e711b086" x="364.183432" y="468.503948" style="fill: #abc8fd"/>
    </g>
    <g clip-path="url(#pf7b117c240)">
     <use xlink:href="#C0_0_28e711b086" x="371.564819" y="473.570582" style="fill: #aec9fc"/>
    </g>
    <g clip-path="url(#pf7b117c240)">
     <use xlink:href="#C0_0_28e711b086" x="378.832358" y="478.454844" style="fill: #b2ccfb"/>
    </g>
    <g clip-path="url(#pf7b117c240)">
     <use xlink:href="#C0_0_28e711b086" x="385.986701" y="483.166052" style="fill: #b6cefa"/>
    </g>
    <g clip-path="url(#pf7b117c240)">
     <use xlink:href="#C0_0_28e711b086" x="393.028695" y="487.712913" style="fill: #b9d0f9"/>
    </g>
    <g clip-path="url(#pf7b117c240)">
     <use xlink:href="#C0_0_28e711b086" x="399.959358" y="492.103574" style="fill: #bcd2f7"/>
    </g>
    <g clip-path="url(#pf7b117c240)">
     <use xlink:href="#C0_0_28e711b086" x="406.779849" y="496.345667" style="fill: #bfd3f6"/>
    </g>
    <g clip-path="url(#pf7b117c240)">
     <use xlink:href="#C0_0_28e711b086" x="413.491446" y="500.446346" style="fill: #c3d5f4"/>
    </g>
    <g clip-path="url(#pf7b117c240)">
     <use xlink:href="#C0_0_28e711b086" x="420.095527" y="504.412323" style="fill: #c6d6f1"/>
    </g>
    <g clip-path="url(#pf7b117c240)">
     <use xlink:href="#C0_0_28e711b086" x="426.593554" y="508.249903" style="fill: #c9d7f0"/>
    </g>
    <g clip-path="url(#pf7b117c240)">
     <use xlink:href="#C0_0_28e711b086" x="432.987052" y="511.965013" style="fill: #ccd9ed"/>
    </g>
    <g clip-path="url(#pf7b117c240)">
     <use xlink:href="#C0_0_28e711b086" x="439.277604" y="515.563228" style="fill: #cedaeb"/>
    </g>
    <g clip-path="url(#pf7b117c240)">
     <use xlink:href="#C0_0_28e711b086" x="445.466831" y="519.049799" style="fill: #d2dbe8"/>
    </g>
    <g clip-path="url(#pf7b117c240)">
     <use xlink:href="#C0_0_28e711b086" x="451.556387" y="522.429673" style="fill: #d5dbe5"/>
    </g>
    <g clip-path="url(#pf7b117c240)">
     <use xlink:href="#C0_0_28e711b086" x="457.547952" y="525.707517" style="fill: #d7dce3"/>
    </g>
    <g clip-path="url(#pf7b117c240)">
     <use xlink:href="#C0_0_28e711b086" x="463.443216" y="528.887734" style="fill: #dadce0"/>
    </g>
    <g clip-path="url(#pf7b117c240)">
     <use xlink:href="#C0_0_28e711b086" x="469.243881" y="531.974485" style="fill: #dddcdc"/>
    </g>
    <g clip-path="url(#pf7b117c240)">
     <use xlink:href="#C0_0_28e711b086" x="474.951652" y="534.971702" style="fill: #dfdbd9"/>
    </g>
    <g clip-path="url(#pf7b117c240)">
     <use xlink:href="#C0_0_28e711b086" x="480.568228" y="537.883104" style="fill: #e2dad5"/>
    </g>
    <g clip-path="url(#pf7b117c240)">
     <use xlink:href="#C0_0_28e711b086" x="486.095307" y="540.712212" style="fill: #e4d9d2"/>
    </g>
    <g clip-path="url(#pf7b117c240)">
     <use xlink:href="#C0_0_28e711b086" x="491.534571" y="543.462362" style="fill: #e7d7ce"/>
    </g>
    <g clip-path="url(#pf7b117c240)">
     <use xlink:href="#C0_0_28e711b086" x="496.887692" y="546.136713" style="fill: #ead5c9"/>
    </g>
    <g clip-path="url(#pf7b117c240)">
     <use xlink:href="#C0_0_28e711b086" x="502.156325" y="548.738264" style="fill: #ebd3c6"/>
    </g>
    <g clip-path="url(#pf7b117c240)">
     <use xlink:href="#C0_0_28e711b086" x="507.342105" y="551.269861" style="fill: #edd1c2"/>
    </g>
    <g clip-path="url(#pf7b117c240)">
     <use xlink:href="#C0_0_28e711b086" x="512.446649" y="553.734205" style="fill: #efcfbf"/>
    </g>
    <g clip-path="url(#pf7b117c240)">
     <use xlink:href="#C0_0_28e711b086" x="517.471548" y="556.133865" style="fill: #f1cdba"/>
    </g>
    <g clip-path="url(#pf7b117c240)">
     <use xlink:href="#C0_0_28e711b086" x="522.418373" y="558.471281" style="fill: #f2cab5"/>
    </g>
    <g clip-path="url(#pf7b117c240)">
     <use xlink:href="#C0_0_28e711b086" x="527.288669" y="560.748775" style="fill: #f3c8b2"/>
    </g>
    <g clip-path="url(#pf7b117c240)">
     <use xlink:href="#C0_0_28e711b086" x="532.083954" y="562.968559" style="fill: #f4c5ad"/>
    </g>
    <g clip-path="url(#pf7b117c240)">
     <use xlink:href="#C0_0_28e711b086" x="536.805723" y="565.132738" style="fill: #f5c2aa"/>
    </g>
    <g clip-path="url(#pf7b117c240)">
     <use xlink:href="#C0_0_28e711b086" x="541.45544" y="567.243318" style="fill: #f6bfa6"/>
    </g>
    <g clip-path="url(#pf7b117c240)">
     <use xlink:href="#C0_0_28e711b086" x="546.034544" y="569.302211" style="fill: #f7bca1"/>
    </g>
    <g clip-path="url(#pf7b117c240)">
     <use xlink:href="#C0_0_28e711b086" x="550.544448" y="571.311243" style="fill: #f7b99e"/>
    </g>
    <g clip-path="url(#pf7b117c240)">
     <use xlink:href="#C0_0_28e711b086" x="554.986535" y="573.272155" style="fill: #f7b599"/>
    </g>
    <g clip-path="url(#pf7b117c240)">
     <use xlink:href="#C0_0_28e711b086" x="559.362162" y="575.186609" style="fill: #f7b194"/>
    </g>
    <g clip-path="url(#pf7b117c240)">
     <use xlink:href="#C0_0_28e711b086" x="563.672656" y="577.056195" style="fill: #f7af91"/>
    </g>
    <g clip-path="url(#pf7b117c240)">
     <use xlink:href="#C0_0_28e711b086" x="567.919319" y="578.88243" style="fill: #f7aa8c"/>
    </g>
    <g clip-path="url(#pf7b117c240)">
     <use xlink:href="#C0_0_28e711b086" x="572.103424" y="580.666766" style="fill: #f7a889"/>
    </g>
    <g clip-path="url(#pf7b117c240)">
     <use xlink:href="#C0_0_28e711b086" x="576.226218" y="582.410592" style="fill: #f6a385"/>
    </g>
    <g clip-path="url(#pf7b117c240)">
     <use xlink:href="#C0_0_28e711b086" x="580.288921" y="584.115238" style="fill: #f59f80"/>
    </g>
    <g clip-path="url(#pf7b117c240)">
     <use xlink:href="#C0_0_28e711b086" x="584.292726" y="585.781977" style="fill: #f59c7d"/>
    </g>
    <g clip-path="url(#pf7b117c240)">
     <use xlink:href="#C0_0_28e711b086" x="588.2388" y="587.412027" style="fill: #f39778"/>
    </g>
    <g clip-path="url(#pf7b117c240)">
     <use xlink:href="#C0_0_28e711b086" x="592.128285" y="589.006558" style="fill: #f39475"/>
    </g>
    <g clip-path="url(#pf7b117c240)">
     <use xlink:href="#C0_0_28e711b086" x="595.962296" y="590.566689" style="fill: #f18f71"/>
    </g>
    <g clip-path="url(#pf7b117c240)">
     <use xlink:href="#C0_0_28e711b086" x="599.741925" y="592.093496" style="fill: #f08a6c"/>
    </g>
    <g clip-path="url(#pf7b117c240)">
     <use xlink:href="#C0_0_28e711b086" x="603.468237" y="593.588009" style="fill: #ee8669"/>
    </g>
    <g clip-path="url(#pf7b117c240)">
     <use xlink:href="#C0_0_28e711b086" x="607.142276" y="595.051218" style="fill: #ec8165"/>
    </g>
    <g clip-path="url(#pf7b117c240)">
     <use xlink:href="#C0_0_28e711b086" x="610.765059" y="596.484073" style="fill: #eb7d62"/>
    </g>
    <g clip-path="url(#pf7b117c240)">
     <use xlink:href="#C0_0_28e711b086" x="614.337584" y="597.887488" style="fill: #e9785d"/>
    </g>
    <g clip-path="url(#pf7b117c240)">
     <use xlink:href="#C0_0_28e711b086" x="617.860822" y="599.262339" style="fill: #e67259"/>
    </g>
    <g clip-path="url(#pf7b117c240)">
     <use xlink:href="#C0_0_28e711b086" x="621.335725" y="600.60947" style="fill: #e46e56"/>
    </g>
    <g clip-path="url(#pf7b117c240)">
     <use xlink:href="#C0_0_28e711b086" x="624.763222" y="601.929693" style="fill: #e26952"/>
    </g>
    <g clip-path="url(#pf7b117c240)">
     <use xlink:href="#C0_0_28e711b086" x="628.14422" y="603.223786" style="fill: #df634e"/>
    </g>
    <g clip-path="url(#pf7b117c240)">
     <use xlink:href="#C0_0_28e711b086" x="631.479607" y="604.492503" style="fill: #dd5f4b"/>
    </g>
    <g clip-path="url(#pf7b117c240)">
     <use xlink:href="#C0_0_28e711b086" x="634.77025" y="605.736564" style="fill: #d95847"/>
    </g>
    <g clip-path="url(#pf7b117c240)">
     <use xlink:href="#C0_0_28e711b086" x="638.016995" y="606.956666" style="fill: #d75445"/>
    </g>
    <g clip-path="url(#pf7b117c240)">
     <use xlink:href="#C0_0_28e711b086" x="641.22067" y="608.153481" style="fill: #d44e41"/>
    </g>
    <g clip-path="url(#pf7b117c240)">
     <use xlink:href="#C0_0_28e711b086" x="644.382084" y="609.327653" style="fill: #d0473d"/>
    </g>
    <g clip-path="url(#pf7b117c240)">
     <use xlink:href="#C0_0_28e711b086" x="647.502027" y="610.479807" style="fill: #cd423b"/>
    </g>
    <g clip-path="url(#pf7b117c240)">
     <use xlink:href="#C0_0_28e711b086" x="650.581271" y="611.610542" style="fill: #ca3b37"/>
    </g>
    <g clip-path="url(#pf7b117c240)">
     <use xlink:href="#C0_0_28e711b086" x="653.620571" y="612.720437" style="fill: #c73635"/>
    </g>
    <g clip-path="url(#pf7b117c240)">
     <use xlink:href="#C0_0_28e711b086" x="656.620664" y="613.810053" style="fill: #c32e31"/>
    </g>
    <g clip-path="url(#pf7b117c240)">
     <use xlink:href="#C0_0_28e711b086" x="659.582271" y="614.879928" style="fill: #be242e"/>
    </g>
    <g clip-path="url(#pf7b117c240)">
     <use xlink:href="#C0_0_28e711b086" x="662.506096" y="615.930583" style="fill: #bb1b2c"/>
    </g>
    <g clip-path="url(#pf7b117c240)">
     <use xlink:href="#C0_0_28e711b086" x="665.392828" y="616.96252" style="fill: #b70d28"/>
    </g>
    <g clip-path="url(#pf7b117c240)">
     <use xlink:href="#C0_0_28e711b086" x="668.24314" y="617.976227" style="fill: #b40426"/>
    </g>
   </g>
   <g id="PathCollection_2"/>
   <g id="PathCollection_3"/>
   <g id="PathCollection_4"/>
   <g id="PathCollection_5"/>
   <g id="PathCollection_6"/>
   <g id="matplotlib.axis_1">
    <g id="xtick_1">
     <g id="line2d_1">
      <defs>
       <path id="m3385fdae1e" d="M 0 0 
L 0 3.5 
" style="stroke: #000000; stroke-width: 0.8"/>
      </defs>
      <g>
       <use xlink:href="#m3385fdae1e" x="107.443494" y="646.272238" style="stroke: #000000; stroke-width: 0.8"/>
      </g>
     </g>
     <g id="text_1">
      <!-- $\mathdefault{0.00}$ -->
      <g transform="translate(89.384947 668.492931) scale(0.22 -0.22)">
       <defs>
        <path id="CMR17-30" d="M 2688 2025 
C 2688 2416 2682 3080 2413 3591 
C 2176 4039 1798 4198 1466 4198 
C 1158 4198 768 4058 525 3597 
C 269 3118 243 2524 243 2025 
C 243 1661 250 1106 448 619 
C 723 -39 1216 -128 1466 -128 
C 1760 -128 2208 -7 2470 600 
C 2662 1042 2688 1559 2688 2025 
z
M 1466 -26 
C 1056 -26 813 325 723 812 
C 653 1188 653 1738 653 2096 
C 653 2588 653 2997 736 3387 
C 858 3929 1216 4096 1466 4096 
C 1728 4096 2067 3923 2189 3400 
C 2272 3036 2278 2607 2278 2096 
C 2278 1680 2278 1169 2202 792 
C 2067 95 1690 -26 1466 -26 
z
" transform="scale(0.015625)"/>
        <path id="CMMI12-3a" d="M 1178 307 
C 1178 492 1024 619 870 619 
C 685 619 557 466 557 313 
C 557 128 710 0 864 0 
C 1050 0 1178 153 1178 307 
z
" transform="scale(0.015625)"/>
       </defs>
       <use xlink:href="#CMR17-30" transform="scale(0.996264)"/>
       <use xlink:href="#CMMI12-3a" transform="translate(45.690477 0) scale(0.996264)"/>
       <use xlink:href="#CMR17-30" transform="translate(72.787654 0) scale(0.996264)"/>
       <use xlink:href="#CMR17-30" transform="translate(118.478131 0) scale(0.996264)"/>
      </g>
     </g>
    </g>
    <g id="xtick_2">
     <g id="line2d_2">
      <g>
       <use xlink:href="#m3385fdae1e" x="219.603423" y="646.272238" style="stroke: #000000; stroke-width: 0.8"/>
      </g>
     </g>
     <g id="text_2">
      <!-- $\mathdefault{0.05}$ -->
      <g transform="translate(201.544876 668.492931) scale(0.22 -0.22)">
       <defs>
        <path id="CMR17-35" d="M 730 3692 
C 794 3666 1056 3584 1325 3584 
C 1920 3584 2246 3911 2432 4100 
C 2432 4157 2432 4192 2394 4192 
C 2387 4192 2374 4192 2323 4163 
C 2099 4058 1837 3973 1517 3973 
C 1325 3973 1037 3999 723 4139 
C 653 4171 640 4171 634 4171 
C 602 4171 595 4164 595 4037 
L 595 2203 
C 595 2089 595 2057 659 2057 
C 691 2057 704 2070 736 2114 
C 941 2401 1222 2522 1542 2522 
C 1766 2522 2246 2382 2246 1289 
C 2246 1085 2246 715 2054 421 
C 1894 159 1645 25 1370 25 
C 947 25 518 320 403 814 
C 429 807 480 795 506 795 
C 589 795 749 840 749 1038 
C 749 1210 627 1280 506 1280 
C 358 1280 262 1190 262 1011 
C 262 454 704 -128 1382 -128 
C 2042 -128 2669 440 2669 1264 
C 2669 2030 2170 2624 1549 2624 
C 1222 2624 947 2503 730 2274 
L 730 3692 
z
" transform="scale(0.015625)"/>
       </defs>
       <use xlink:href="#CMR17-30" transform="scale(0.996264)"/>
       <use xlink:href="#CMMI12-3a" transform="translate(45.690477 0) scale(0.996264)"/>
       <use xlink:href="#CMR17-30" transform="translate(72.787654 0) scale(0.996264)"/>
       <use xlink:href="#CMR17-35" transform="translate(118.478131 0) scale(0.996264)"/>
      </g>
     </g>
    </g>
    <g id="xtick_3">
     <g id="line2d_3">
      <g>
       <use xlink:href="#m3385fdae1e" x="331.763352" y="646.272238" style="stroke: #000000; stroke-width: 0.8"/>
      </g>
     </g>
     <g id="text_3">
      <!-- $\mathdefault{0.10}$ -->
      <g transform="translate(313.704805 668.492931) scale(0.22 -0.22)">
       <defs>
        <path id="CMR17-31" d="M 1702 4058 
C 1702 4192 1696 4192 1606 4192 
C 1357 3916 979 3827 621 3827 
C 602 3827 570 3827 563 3808 
C 557 3795 557 3782 557 3648 
C 755 3648 1088 3686 1344 3839 
L 1344 461 
C 1344 236 1331 160 781 160 
L 589 160 
L 589 0 
C 896 0 1216 0 1523 0 
C 1830 0 2150 0 2458 0 
L 2458 160 
L 2266 160 
C 1715 160 1702 230 1702 458 
L 1702 4058 
z
" transform="scale(0.015625)"/>
       </defs>
       <use xlink:href="#CMR17-30" transform="scale(0.996264)"/>
       <use xlink:href="#CMMI12-3a" transform="translate(45.690477 0) scale(0.996264)"/>
       <use xlink:href="#CMR17-31" transform="translate(72.787654 0) scale(0.996264)"/>
       <use xlink:href="#CMR17-30" transform="translate(118.478131 0) scale(0.996264)"/>
      </g>
     </g>
    </g>
    <g id="xtick_4">
     <g id="line2d_4">
      <g>
       <use xlink:href="#m3385fdae1e" x="443.923281" y="646.272238" style="stroke: #000000; stroke-width: 0.8"/>
      </g>
     </g>
     <g id="text_4">
      <!-- $\mathdefault{0.15}$ -->
      <g transform="translate(425.864734 668.492931) scale(0.22 -0.22)">
       <use xlink:href="#CMR17-30" transform="scale(0.996264)"/>
       <use xlink:href="#CMMI12-3a" transform="translate(45.690477 0) scale(0.996264)"/>
       <use xlink:href="#CMR17-31" transform="translate(72.787654 0) scale(0.996264)"/>
       <use xlink:href="#CMR17-35" transform="translate(118.478131 0) scale(0.996264)"/>
      </g>
     </g>
    </g>
    <g id="xtick_5">
     <g id="line2d_5">
      <g>
       <use xlink:href="#m3385fdae1e" x="556.08321" y="646.272238" style="stroke: #000000; stroke-width: 0.8"/>
      </g>
     </g>
     <g id="text_5">
      <!-- $\mathdefault{0.20}$ -->
      <g transform="translate(538.024663 668.492931) scale(0.22 -0.22)">
       <defs>
        <path id="CMR17-32" d="M 2669 989 
L 2554 989 
C 2490 536 2438 459 2413 420 
C 2381 369 1920 369 1830 369 
L 602 369 
C 832 619 1280 1072 1824 1597 
C 2214 1967 2669 2402 2669 3035 
C 2669 3790 2067 4224 1395 4224 
C 691 4224 262 3604 262 3030 
C 262 2780 448 2748 525 2748 
C 589 2748 781 2787 781 3010 
C 781 3207 614 3264 525 3264 
C 486 3264 448 3258 422 3245 
C 544 3790 915 4058 1306 4058 
C 1862 4058 2227 3617 2227 3035 
C 2227 2479 1901 2000 1536 1584 
L 262 146 
L 262 0 
L 2515 0 
L 2669 989 
z
" transform="scale(0.015625)"/>
       </defs>
       <use xlink:href="#CMR17-30" transform="scale(0.996264)"/>
       <use xlink:href="#CMMI12-3a" transform="translate(45.690477 0) scale(0.996264)"/>
       <use xlink:href="#CMR17-32" transform="translate(72.787654 0) scale(0.996264)"/>
       <use xlink:href="#CMR17-30" transform="translate(118.478131 0) scale(0.996264)"/>
      </g>
     </g>
    </g>
    <g id="xtick_6">
     <g id="line2d_6">
      <g>
       <use xlink:href="#m3385fdae1e" x="668.24314" y="646.272238" style="stroke: #000000; stroke-width: 0.8"/>
      </g>
     </g>
     <g id="text_6">
      <!-- $\mathdefault{0.25}$ -->
      <g transform="translate(650.184593 668.492931) scale(0.22 -0.22)">
       <use xlink:href="#CMR17-30" transform="scale(0.996264)"/>
       <use xlink:href="#CMMI12-3a" transform="translate(45.690477 0) scale(0.996264)"/>
       <use xlink:href="#CMR17-32" transform="translate(72.787654 0) scale(0.996264)"/>
       <use xlink:href="#CMR17-35" transform="translate(118.478131 0) scale(0.996264)"/>
      </g>
     </g>
    </g>
    <g id="text_7">
     <!-- $p_0$ -->
     <g transform="translate(379.133346 691.976812) scale(0.22 -0.22)">
      <defs>
       <path id="CMMI12-70" d="M 275 -789 
C 230 -980 205 -1031 -58 -1031 
C -134 -1031 -198 -1031 -198 -1152 
C -198 -1165 -192 -1216 -122 -1216 
C -38 -1216 51 -1216 134 -1216 
L 410 -1216 
C 544 -1216 870 -1216 1005 -1216 
C 1043 -1216 1120 -1216 1120 -1101 
C 1120 -1031 1075 -1031 966 -1031 
C 672 -1031 653 -987 653 -937 
C 653 -861 941 219 979 364 
C 1050 185 1222 -64 1555 -64 
C 2278 -64 3059 875 3059 1814 
C 3059 2401 2726 2816 2246 2816 
C 1837 2816 1491 2420 1421 2331 
C 1370 2650 1120 2816 864 2816 
C 678 2816 531 2727 410 2484 
C 294 2254 205 1865 205 1839 
C 205 1814 230 1782 275 1782 
C 326 1782 333 1788 371 1935 
C 467 2312 589 2689 845 2689 
C 992 2689 1043 2587 1043 2397 
C 1043 2245 1024 2181 998 2067 
L 275 -789 
z
M 1382 1993 
C 1427 2171 1606 2357 1709 2446 
C 1779 2510 1990 2689 2234 2689 
C 2515 2689 2643 2408 2643 2076 
C 2643 1769 2464 1047 2304 715 
C 2144 370 1850 64 1555 64 
C 1120 64 1050 613 1050 639 
C 1050 658 1062 709 1069 741 
L 1382 1993 
z
" transform="scale(0.015625)"/>
      </defs>
      <use xlink:href="#CMMI12-70" transform="scale(0.996264)"/>
      <use xlink:href="#CMR17-30" transform="translate(48.959514 -14.943915) scale(0.697382)"/>
     </g>
    </g>
   </g>
   <g id="matplotlib.axis_2">
    <g id="ytick_1">
     <g id="line2d_7">
      <defs>
       <path id="ma600d9e374" d="M 0 0 
L -3.5 0 
" style="stroke: #000000; stroke-width: 0.8"/>
      </defs>
      <g>
       <use xlink:href="#ma600d9e374" x="80.30907" y="578.188188" style="stroke: #000000; stroke-width: 0.8"/>
      </g>
     </g>
     <g id="text_8">
      <!-- $\mathdefault{0.3}$ -->
      <g transform="translate(47.243881 585.798535) scale(0.22 -0.22)">
       <defs>
        <path id="CMR17-33" d="M 1414 2157 
C 1984 2157 2234 1662 2234 1090 
C 2234 320 1824 25 1453 25 
C 1114 25 563 194 390 693 
C 422 680 454 680 486 680 
C 640 680 755 782 755 948 
C 755 1133 614 1216 486 1216 
C 378 1216 211 1165 211 926 
C 211 335 787 -128 1466 -128 
C 2176 -128 2720 430 2720 1085 
C 2720 1707 2208 2157 1600 2227 
C 2086 2328 2554 2756 2554 3329 
C 2554 3820 2048 4179 1472 4179 
C 890 4179 378 3829 378 3329 
C 378 3110 544 3072 627 3072 
C 762 3072 877 3155 877 3321 
C 877 3486 762 3569 627 3569 
C 602 3569 570 3569 544 3557 
C 730 3959 1235 4032 1459 4032 
C 1683 4032 2106 3925 2106 3320 
C 2106 3143 2080 2828 1862 2550 
C 1670 2304 1453 2304 1242 2284 
C 1210 2284 1062 2269 1037 2269 
C 992 2263 966 2257 966 2208 
C 966 2163 973 2157 1101 2157 
L 1414 2157 
z
" transform="scale(0.015625)"/>
       </defs>
       <use xlink:href="#CMR17-30" transform="scale(0.996264)"/>
       <use xlink:href="#CMMI12-3a" transform="translate(45.690477 0) scale(0.996264)"/>
       <use xlink:href="#CMR17-33" transform="translate(72.787654 0) scale(0.996264)"/>
      </g>
     </g>
    </g>
    <g id="ytick_2">
     <g id="line2d_8">
      <g>
       <use xlink:href="#ma600d9e374" x="80.30907" y="498.612111" style="stroke: #000000; stroke-width: 0.8"/>
      </g>
     </g>
     <g id="text_9">
      <!-- $\mathdefault{0.4}$ -->
      <g transform="translate(47.243881 506.222458) scale(0.22 -0.22)">
       <defs>
        <path id="CMR17-34" d="M 2150 4122 
C 2150 4256 2144 4256 2029 4256 
L 128 1254 
L 128 1088 
L 1779 1088 
L 1779 457 
C 1779 224 1766 160 1318 160 
L 1197 160 
L 1197 0 
C 1402 0 1747 0 1965 0 
C 2182 0 2528 0 2733 0 
L 2733 160 
L 2611 160 
C 2163 160 2150 224 2150 457 
L 2150 1088 
L 2803 1088 
L 2803 1254 
L 2150 1254 
L 2150 4122 
z
M 1798 3703 
L 1798 1254 
L 256 1254 
L 1798 3703 
z
" transform="scale(0.015625)"/>
       </defs>
       <use xlink:href="#CMR17-30" transform="scale(0.996264)"/>
       <use xlink:href="#CMMI12-3a" transform="translate(45.690477 0) scale(0.996264)"/>
       <use xlink:href="#CMR17-34" transform="translate(72.787654 0) scale(0.996264)"/>
      </g>
     </g>
    </g>
    <g id="ytick_3">
     <g id="line2d_9">
      <g>
       <use xlink:href="#ma600d9e374" x="80.30907" y="419.036035" style="stroke: #000000; stroke-width: 0.8"/>
      </g>
     </g>
     <g id="text_10">
      <!-- $\mathdefault{0.5}$ -->
      <g transform="translate(47.243881 426.646381) scale(0.22 -0.22)">
       <use xlink:href="#CMR17-30" transform="scale(0.996264)"/>
       <use xlink:href="#CMMI12-3a" transform="translate(45.690477 0) scale(0.996264)"/>
       <use xlink:href="#CMR17-35" transform="translate(72.787654 0) scale(0.996264)"/>
      </g>
     </g>
    </g>
    <g id="ytick_4">
     <g id="line2d_10">
      <g>
       <use xlink:href="#ma600d9e374" x="80.30907" y="339.459958" style="stroke: #000000; stroke-width: 0.8"/>
      </g>
     </g>
     <g id="text_11">
      <!-- $\mathdefault{0.6}$ -->
      <g transform="translate(47.243881 347.070304) scale(0.22 -0.22)">
       <defs>
        <path id="CMR17-36" d="M 678 2176 
C 678 3690 1395 4032 1811 4032 
C 1946 4032 2272 4009 2400 3776 
C 2298 3776 2106 3776 2106 3553 
C 2106 3381 2246 3323 2336 3323 
C 2394 3323 2566 3348 2566 3560 
C 2566 3954 2246 4179 1805 4179 
C 1043 4179 243 3390 243 1984 
C 243 253 966 -128 1478 -128 
C 2099 -128 2688 427 2688 1283 
C 2688 2081 2170 2662 1517 2662 
C 1126 2662 838 2407 678 1960 
L 678 2176 
z
M 1478 25 
C 691 25 691 1200 691 1436 
C 691 1896 909 2560 1504 2560 
C 1613 2560 1926 2560 2138 2120 
C 2253 1870 2253 1609 2253 1289 
C 2253 944 2253 690 2118 434 
C 1978 171 1773 25 1478 25 
z
" transform="scale(0.015625)"/>
       </defs>
       <use xlink:href="#CMR17-30" transform="scale(0.996264)"/>
       <use xlink:href="#CMMI12-3a" transform="translate(45.690477 0) scale(0.996264)"/>
       <use xlink:href="#CMR17-36" transform="translate(72.787654 0) scale(0.996264)"/>
      </g>
     </g>
    </g>
    <g id="ytick_5">
     <g id="line2d_11">
      <g>
       <use xlink:href="#ma600d9e374" x="80.30907" y="259.883881" style="stroke: #000000; stroke-width: 0.8"/>
      </g>
     </g>
     <g id="text_12">
      <!-- $\mathdefault{0.7}$ -->
      <g transform="translate(47.243881 267.494228) scale(0.22 -0.22)">
       <defs>
        <path id="CMR17-37" d="M 2886 3941 
L 2886 4081 
L 1382 4081 
C 634 4081 621 4165 595 4288 
L 480 4288 
L 294 3094 
L 410 3094 
C 429 3215 474 3540 550 3661 
C 589 3712 1062 3712 1171 3712 
L 2579 3712 
L 1869 2661 
C 1395 1954 1069 999 1069 165 
C 1069 89 1069 -128 1299 -128 
C 1530 -128 1530 89 1530 171 
L 1530 465 
C 1530 1508 1709 2196 2003 2636 
L 2886 3941 
z
" transform="scale(0.015625)"/>
       </defs>
       <use xlink:href="#CMR17-30" transform="scale(0.996264)"/>
       <use xlink:href="#CMMI12-3a" transform="translate(45.690477 0) scale(0.996264)"/>
       <use xlink:href="#CMR17-37" transform="translate(72.787654 0) scale(0.996264)"/>
      </g>
     </g>
    </g>
    <g id="ytick_6">
     <g id="line2d_12">
      <g>
       <use xlink:href="#ma600d9e374" x="80.30907" y="180.307804" style="stroke: #000000; stroke-width: 0.8"/>
      </g>
     </g>
     <g id="text_13">
      <!-- $\mathdefault{0.8}$ -->
      <g transform="translate(47.243881 187.918151) scale(0.22 -0.22)">
       <defs>
        <path id="CMR17-38" d="M 1741 2264 
C 2144 2467 2554 2773 2554 3263 
C 2554 3841 1990 4179 1472 4179 
C 890 4179 378 3759 378 3180 
C 378 3021 416 2747 666 2505 
C 730 2442 998 2251 1171 2130 
C 883 1983 211 1634 211 934 
C 211 279 838 -128 1459 -128 
C 2144 -128 2720 362 2720 1010 
C 2720 1590 2330 1857 2074 2029 
L 1741 2264 
z
M 902 2822 
C 851 2854 595 3051 595 3351 
C 595 3739 998 4032 1459 4032 
C 1965 4032 2336 3676 2336 3262 
C 2336 2669 1670 2331 1638 2331 
C 1632 2331 1626 2331 1574 2370 
L 902 2822 
z
M 2080 1519 
C 2176 1449 2483 1240 2483 851 
C 2483 381 2010 25 1472 25 
C 890 25 448 438 448 940 
C 448 1443 838 1862 1280 2060 
L 2080 1519 
z
" transform="scale(0.015625)"/>
       </defs>
       <use xlink:href="#CMR17-30" transform="scale(0.996264)"/>
       <use xlink:href="#CMMI12-3a" transform="translate(45.690477 0) scale(0.996264)"/>
       <use xlink:href="#CMR17-38" transform="translate(72.787654 0) scale(0.996264)"/>
      </g>
     </g>
    </g>
    <g id="ytick_7">
     <g id="line2d_13">
      <g>
       <use xlink:href="#ma600d9e374" x="80.30907" y="100.731727" style="stroke: #000000; stroke-width: 0.8"/>
      </g>
     </g>
     <g id="text_14">
      <!-- $\mathdefault{0.9}$ -->
      <g transform="translate(47.243881 108.342074) scale(0.22 -0.22)">
       <defs>
        <path id="CMR17-39" d="M 2253 1864 
C 2253 464 1670 31 1190 31 
C 1043 31 685 31 538 294 
C 704 268 826 357 826 518 
C 826 692 685 749 595 749 
C 538 749 365 723 365 506 
C 365 71 742 -128 1203 -128 
C 1939 -128 2688 674 2688 2073 
C 2688 3817 1971 4179 1485 4179 
C 851 4179 243 3628 243 2778 
C 243 1991 762 1408 1414 1408 
C 1952 1408 2189 1903 2253 2112 
L 2253 1864 
z
M 1427 1510 
C 1254 1510 1011 1542 813 1922 
C 678 2169 678 2461 678 2771 
C 678 3146 678 3405 858 3684 
C 947 3817 1114 4032 1485 4032 
C 2240 4032 2240 2885 2240 2632 
C 2240 2182 2035 1510 1427 1510 
z
" transform="scale(0.015625)"/>
       </defs>
       <use xlink:href="#CMR17-30" transform="scale(0.996264)"/>
       <use xlink:href="#CMMI12-3a" transform="translate(45.690477 0) scale(0.996264)"/>
       <use xlink:href="#CMR17-39" transform="translate(72.787654 0) scale(0.996264)"/>
      </g>
     </g>
    </g>
    <g id="text_15">
     <!-- $p_2$ -->
     <g transform="translate(38.980693 344.157308) rotate(-90) scale(0.22 -0.22)">
      <use xlink:href="#CMMI12-70" transform="scale(0.996264)"/>
      <use xlink:href="#CMR17-32" transform="translate(48.959514 -14.943915) scale(0.697382)"/>
     </g>
    </g>
   </g>
   <g id="patch_3">
    <path d="M 80.30907 646.272238 
L 80.30907 23.76 
" style="fill: none; stroke: #000000; stroke-width: 0.8; stroke-linejoin: miter; stroke-linecap: square"/>
   </g>
   <g id="patch_4">
    <path d="M 696.24 646.272238 
L 696.24 23.76 
" style="fill: none; stroke: #000000; stroke-width: 0.8; stroke-linejoin: miter; stroke-linecap: square"/>
   </g>
   <g id="patch_5">
    <path d="M 80.30907 646.272238 
L 696.24 646.272238 
" style="fill: none; stroke: #000000; stroke-width: 0.8; stroke-linejoin: miter; stroke-linecap: square"/>
   </g>
   <g id="patch_6">
    <path d="M 80.30907 23.76 
L 696.24 23.76 
" style="fill: none; stroke: #000000; stroke-width: 0.8; stroke-linejoin: miter; stroke-linecap: square"/>
   </g>
   <g id="legend_1">
    <g id="patch_7">
     <path d="M 584.374811 194.675939 
L 680.84 194.675939 
Q 685.24 194.675939 685.24 190.275939 
L 685.24 39.16 
Q 685.24 34.76 680.84 34.76 
L 584.374811 34.76 
Q 579.974811 34.76 579.974811 39.16 
L 579.974811 190.275939 
Q 579.974811 194.675939 584.374811 194.675939 
z
" style="fill: #ffffff; opacity: 0.8; stroke: #cccccc; stroke-linejoin: miter"/>
    </g>
    <g id="PathCollection_7">
     <defs>
      <path id="m32fd684121" d="M 0 3 
C 0.795609 3 1.55874 2.683901 2.12132 2.12132 
C 2.683901 1.55874 3 0.795609 3 0 
C 3 -0.795609 2.683901 -1.55874 2.12132 -2.12132 
C 1.55874 -2.683901 0.795609 -3 0 -3 
C -0.795609 -3 -1.55874 -2.683901 -2.12132 -2.12132 
C -2.683901 -1.55874 -3 -0.795609 -3 0 
C -3 0.795609 -2.683901 1.55874 -2.12132 2.12132 
C -1.55874 2.683901 -0.795609 3 0 3 
z
" style="stroke: #799cf8"/>
     </defs>
     <g>
      <use xlink:href="#m32fd684121" x="610.774811" y="53.185" style="fill: #799cf8; stroke: #799cf8"/>
     </g>
    </g>
    <g id="text_16">
     <!-- $\mathdefault{0.2}$ -->
     <g transform="translate(650.374811 58.96) scale(0.22 -0.22)">
      <use xlink:href="#CMR17-30" transform="scale(0.996264)"/>
      <use xlink:href="#CMMI12-3a" transform="translate(45.690477 0) scale(0.996264)"/>
      <use xlink:href="#CMR17-32" transform="translate(72.787654 0) scale(0.996264)"/>
     </g>
    </g>
    <g id="PathCollection_8">
     <defs>
      <path id="mc260d2545a" d="M 0 3 
C 0.795609 3 1.55874 2.683901 2.12132 2.12132 
C 2.683901 1.55874 3 0.795609 3 0 
C 3 -0.795609 2.683901 -1.55874 2.12132 -2.12132 
C 1.55874 -2.683901 0.795609 -3 0 -3 
C -0.795609 -3 -1.55874 -2.683901 -2.12132 -2.12132 
C -2.683901 -1.55874 -3 -0.795609 -3 0 
C -3 0.795609 -2.683901 1.55874 -2.12132 2.12132 
C -1.55874 2.683901 -0.795609 3 0 3 
z
" style="stroke: #bed2f6"/>
     </defs>
     <g>
      <use xlink:href="#mc260d2545a" x="610.774811" y="83.848188" style="fill: #bed2f6; stroke: #bed2f6"/>
     </g>
    </g>
    <g id="text_17">
     <!-- $\mathdefault{0.4}$ -->
     <g transform="translate(650.374811 89.623188) scale(0.22 -0.22)">
      <use xlink:href="#CMR17-30" transform="scale(0.996264)"/>
      <use xlink:href="#CMMI12-3a" transform="translate(45.690477 0) scale(0.996264)"/>
      <use xlink:href="#CMR17-34" transform="translate(72.787654 0) scale(0.996264)"/>
     </g>
    </g>
    <g id="PathCollection_9">
     <defs>
      <path id="mc7601154eb" d="M 0 3 
C 0.795609 3 1.55874 2.683901 2.12132 2.12132 
C 2.683901 1.55874 3 0.795609 3 0 
C 3 -0.795609 2.683901 -1.55874 2.12132 -2.12132 
C 1.55874 -2.683901 0.795609 -3 0 -3 
C -0.795609 -3 -1.55874 -2.683901 -2.12132 -2.12132 
C -2.683901 -1.55874 -3 -0.795609 -3 0 
C -3 0.795609 -2.683901 1.55874 -2.12132 2.12132 
C -1.55874 2.683901 -0.795609 3 0 3 
z
" style="stroke: #f1ccb8"/>
     </defs>
     <g>
      <use xlink:href="#mc7601154eb" x="610.774811" y="114.511376" style="fill: #f1ccb8; stroke: #f1ccb8"/>
     </g>
    </g>
    <g id="text_18">
     <!-- $\mathdefault{0.6}$ -->
     <g transform="translate(650.374811 120.286376) scale(0.22 -0.22)">
      <use xlink:href="#CMR17-30" transform="scale(0.996264)"/>
      <use xlink:href="#CMMI12-3a" transform="translate(45.690477 0) scale(0.996264)"/>
      <use xlink:href="#CMR17-36" transform="translate(72.787654 0) scale(0.996264)"/>
     </g>
    </g>
    <g id="PathCollection_10">
     <defs>
      <path id="md4a170f168" d="M 0 3 
C 0.795609 3 1.55874 2.683901 2.12132 2.12132 
C 2.683901 1.55874 3 0.795609 3 0 
C 3 -0.795609 2.683901 -1.55874 2.12132 -2.12132 
C 1.55874 -2.683901 0.795609 -3 0 -3 
C -0.795609 -3 -1.55874 -2.683901 -2.12132 -2.12132 
C -2.683901 -1.55874 -3 -0.795609 -3 0 
C -3 0.795609 -2.683901 1.55874 -2.12132 2.12132 
C -1.55874 2.683901 -0.795609 3 0 3 
z
" style="stroke: #ee8468"/>
     </defs>
     <g>
      <use xlink:href="#md4a170f168" x="610.774811" y="145.174564" style="fill: #ee8468; stroke: #ee8468"/>
     </g>
    </g>
    <g id="text_19">
     <!-- $\mathdefault{0.8}$ -->
     <g transform="translate(650.374811 150.949564) scale(0.22 -0.22)">
      <use xlink:href="#CMR17-30" transform="scale(0.996264)"/>
      <use xlink:href="#CMMI12-3a" transform="translate(45.690477 0) scale(0.996264)"/>
      <use xlink:href="#CMR17-38" transform="translate(72.787654 0) scale(0.996264)"/>
     </g>
    </g>
    <g id="PathCollection_11">
     <defs>
      <path id="m8a48f459e4" d="M 0 3 
C 0.795609 3 1.55874 2.683901 2.12132 2.12132 
C 2.683901 1.55874 3 0.795609 3 0 
C 3 -0.795609 2.683901 -1.55874 2.12132 -2.12132 
C 1.55874 -2.683901 0.795609 -3 0 -3 
C -0.795609 -3 -1.55874 -2.683901 -2.12132 -2.12132 
C -2.683901 -1.55874 -3 -0.795609 -3 0 
C -3 0.795609 -2.683901 1.55874 -2.12132 2.12132 
C -1.55874 2.683901 -0.795609 3 0 3 
z
" style="stroke: #b40426"/>
     </defs>
     <g>
      <use xlink:href="#m8a48f459e4" x="610.774811" y="175.837751" style="fill: #b40426; stroke: #b40426"/>
     </g>
    </g>
    <g id="text_20">
     <!-- $\mathdefault{1.0}$ -->
     <g transform="translate(650.374811 181.612751) scale(0.22 -0.22)">
      <use xlink:href="#CMR17-31" transform="scale(0.996264)"/>
      <use xlink:href="#CMMI12-3a" transform="translate(45.690477 0) scale(0.996264)"/>
      <use xlink:href="#CMR17-30" transform="translate(72.787654 0) scale(0.996264)"/>
     </g>
    </g>
   </g>
  </g>
 </g>
 <defs>
  <clipPath id="pf7b117c240">
   <rect x="80.30907" y="23.76" width="615.93093" height="622.512238"/>
  </clipPath>
 </defs>
</svg>
